<svg id="lovers-heart" xmlns="http://www.w3.org/2000/svg" width="33.567" height="31" viewBox="0 0 33.567 31">
  <g id="그룹_58" data-name="그룹 58" transform="translate(0)">
    <path id="패스_110" data-name="패스 110" d="M16.164,47.7a1.373,1.373,0,0,0,.709.215,1.247,1.247,0,0,0,.709-.215c.58-.387,14.21-9.373,15.758-18.51.8-4.73-.666-7.653-2.021-9.266a8.376,8.376,0,0,0-6.3-3.01,6.108,6.108,0,0,0-2.193.387,16,16,0,0,0-6.686,4.88,13.656,13.656,0,0,0-5.654-4.407,7.473,7.473,0,0,0-2.429-.387,7.7,7.7,0,0,0-5.718,2.494c-1.268,1.4-2.709,4.063-2.257,8.707C.986,37.728,15.54,47.295,16.164,47.7ZM4.254,21.6a5.1,5.1,0,0,1,3.805-1.655,4.839,4.839,0,0,1,1.591.258c2.988,1.01,5.374,4.816,5.417,4.837a1.251,1.251,0,0,0,1.118.6,1.3,1.3,0,0,0,1.1-.645,13.628,13.628,0,0,1,6.471-5.31,3.919,3.919,0,0,1,1.268-.215,5.815,5.815,0,0,1,4.321,2.107c1.462,1.72,1.956,4.214,1.44,7.18-.559,3.268-3.225,7.18-7.718,11.329a61.4,61.4,0,0,1-6.191,4.966,64.515,64.515,0,0,1-6.557-5.224c-4.686-4.3-7.331-8.277-7.653-11.5C2.384,25.388,2.921,23.066,4.254,21.6Z" transform="translate(0.001 -16.918)" fill="#fff"/>
  </g>
</svg>
