<svg id="smiling-face" xmlns="http://www.w3.org/2000/svg" width="39" height="39" viewBox="0 0 39 39">
  <g id="그룹_32" data-name="그룹 32">
    <path id="패스_53" data-name="패스 53" d="M19.5,39A19.5,19.5,0,1,0,0,19.5,19.512,19.512,0,0,0,19.5,39Zm0-36.181A16.681,16.681,0,1,1,2.819,19.5,16.715,16.715,0,0,1,19.5,2.819Z" fill="#91c6c2"/>
    <path id="패스_54" data-name="패스 54" d="M139.714,147.264a2.232,2.232,0,1,0-1.574-.658A2.224,2.224,0,0,0,139.714,147.264Z" transform="translate(-126.087 -130.959)" fill="#91c6c2"/>
    <path id="패스_55" data-name="패스 55" d="M274.581,147.264a2.232,2.232,0,1,0-1.574-.658A2.184,2.184,0,0,0,274.581,147.264Z" transform="translate(-249.771 -130.959)" fill="#91c6c2"/>
    <path id="패스_56" data-name="패스 56" d="M133.217,274.839c7.26,0,9.374-4.887,9.468-5.075a1.426,1.426,0,0,0-.752-1.856,1.373,1.373,0,0,0-1.833.752c-.07.141-1.551,3.36-6.86,3.36-5.145,0-6.061-3.031-6.108-3.172v.023l-2.749.681C124.453,269.764,125.793,274.839,133.217,274.839Z" transform="translate(-114.069 -245.589)" fill="#91c6c2"/>
  </g>
</svg>
