<svg xmlns="http://www.w3.org/2000/svg" width="36.038" height="33.333" viewBox="0 0 36.038 33.333">
  <g id="그룹_100" data-name="그룹 100" transform="translate(0 0)">
    <path id="패스_177" data-name="패스 177" d="M4.132,35.777l-.873,4.9a1.249,1.249,0,0,0,.511,1.257,1.194,1.194,0,0,0,.745.234,1.13,1.13,0,0,0,.6-.149l5.112-2.748c1.108,4.792,6.432,8.434,12.8,8.434q.671,0,1.342-.064l6.581,3.536a1.237,1.237,0,0,0,.6.149,1.342,1.342,0,0,0,.745-.234,1.249,1.249,0,0,0,.511-1.257l-.873-4.9a9.372,9.372,0,0,0,4.111-7.5c0-4.771-4.2-8.924-10.053-10.011-.554-5.261-6.155-9.436-12.971-9.436C5.836,17.992,0,22.593,0,28.258A9.43,9.43,0,0,0,4.132,35.777ZM33.5,37.438a7.063,7.063,0,0,1-3.642,5.836,1.3,1.3,0,0,0-.575,1.3l.554,3.11-4.6-2.471a1.309,1.309,0,0,0-.745-.149c-.49.043-1,.085-1.47.085-5.261,0-9.627-2.875-10.351-6.6h.341c6.432,0,11.778-3.706,12.822-8.541C30.33,30.942,33.5,33.988,33.5,37.438ZM13.035,20.569c5.772,0,10.458,3.45,10.458,7.71s-4.686,7.71-10.458,7.71a11.558,11.558,0,0,1-1.47-.085,1.31,1.31,0,0,0-.745.149l-4.6,2.471.554-3.11a1.266,1.266,0,0,0-.575-1.3A7.063,7.063,0,0,1,2.556,28.28C2.577,24.041,7.263,20.569,13.035,20.569Z" transform="translate(0 -17.992)" fill="#fff"/>
  </g>
</svg>
