<svg xmlns="http://www.w3.org/2000/svg" width="46.139" height="46.139" viewBox="0 0 46.139 46.139">
  <g id="그룹_2051" data-name="그룹 2051" transform="translate(-461 -2902.861)">
    <circle id="타원_625" data-name="타원 625" cx="23.07" cy="23.07" r="23.07" transform="translate(461 2902.861)" fill="#1f9689"/>
    <path id="패스_2700" data-name="패스 2700" d="M348.911,446.327l-4.412-4.412V435.8a.381.381,0,0,0-.383-.383h-2.724a.381.381,0,0,0-.383.383v2.629l-4.023-4.016a1.315,1.315,0,0,0-1.851,0L323.2,446.339a1.311,1.311,0,0,0,.772,2.228l1.927.226v12.915a1.3,1.3,0,0,0,1.305,1.305h5.629v-9.369a1.136,1.136,0,0,1,1.136-1.136h4.173a1.136,1.136,0,0,1,1.136,1.136v9.369h5.629a1.3,1.3,0,0,0,1.305-1.305V448.78l1.933-.232A1.306,1.306,0,0,0,348.911,446.327Z" transform="translate(148.014 2477.41)" fill="#fff"/>
  </g>
</svg>
