<svg xmlns="http://www.w3.org/2000/svg" width="44" height="44" viewBox="0 0 44 44">
  <g id="그룹_2054" data-name="그룹 2054" transform="translate(-372 -2954.667)">
    <g id="타원_66" data-name="타원 66" transform="translate(372 2954.667)" fill="none" stroke="#1f9689" stroke-width="5">
      <circle cx="22" cy="22" r="22" stroke="none"/>
      <circle cx="22" cy="22" r="19.5" fill="none"/>
    </g>
    <g id="그룹_2046" data-name="그룹 2046" transform="translate(381.828 2963.287)">
      <path id="패스_2696" data-name="패스 2696" d="M219.673,666.739l-.6-6.533a5.836,5.836,0,0,0-5.811-5.3H202.62a5.971,5.971,0,0,0-5.946,5.421l-.593,6.409q-.014.157-.015.314v8.083a3.408,3.408,0,0,0,3.408,3.408H216.28a3.408,3.408,0,0,0,3.408-3.408v-8.083Q219.688,666.9,219.673,666.739Zm-19.607-6.444a1.593,1.593,0,0,1,1.587-1.455H214.1a1.593,1.593,0,0,1,1.587,1.455l.457,5.228H199.61Zm.2,14.186a1.548,1.548,0,1,1,1.548-1.548A1.549,1.549,0,0,1,200.27,674.48Zm15.594.241a1.548,1.548,0,1,1,1.548-1.548A1.549,1.549,0,0,1,215.864,674.721Z" transform="translate(-196.066 -654.909)" fill="#1f9689"/>
      <path id="패스_2697" data-name="패스 2697" d="M204.019,730.19a.71.71,0,0,0,.71.71h1.722a.71.71,0,0,0,.71-.71v-2.432h-3.142Z" transform="translate(-201.37 -703.496)" fill="#1f9689"/>
      <path id="패스_2698" data-name="패스 2698" d="M250.794,730.19a.71.71,0,0,0,.71.71h1.722a.71.71,0,0,0,.71-.71v-2.432h-3.142Z" transform="translate(-232.567 -703.496)" fill="#1f9689"/>
    </g>
  </g>
</svg>
