<svg xmlns="http://www.w3.org/2000/svg" width="43.829" height="43.829" viewBox="0 0 43.829 43.829">
  <g id="그룹_2058" data-name="그룹 2058" transform="translate(-367.002 -3027.171)">
    <circle id="타원_628" data-name="타원 628" cx="21.914" cy="21.914" r="21.914" transform="translate(367.002 3027.171)" fill="#1f9689"/>
    <path id="패스_2705" data-name="패스 2705" d="M455.975,419.564h7.136a.714.714,0,0,0,.7-.715h0a.711.711,0,0,0-.7-.721h-7.136a.711.711,0,0,0-.7.721h0a.714.714,0,0,0,.7.715Zm0-2.855h7.136a.71.71,0,0,0,.7-.715h0a.7.7,0,0,0-.7-.7h-7.136a.7.7,0,0,0-.7.7h0a.71.71,0,0,0,.7.715Zm0-2.843h4.292a.709.709,0,0,0,.685-.721h0a.686.686,0,0,0-.685-.7h-4.292a.7.7,0,0,0-.7.7h0a.715.715,0,0,0,.7.721Zm13.532-8.554h-2.85v-4.268a1.449,1.449,0,0,0-1.413-1.443h-11.4a1.448,1.448,0,0,0-1.407,1.443v4.268h-2.849a1.432,1.432,0,0,0-1.443,1.442v7.112a1.445,1.445,0,0,0,1.443,1.431h2.849v5.681a1.42,1.42,0,0,0,1.407,1.437h11.4a1.42,1.42,0,0,0,1.413-1.431V415.3h2.85a1.449,1.449,0,0,0,1.442-1.431v-7.112a1.436,1.436,0,0,0-1.442-1.442Zm-4.262,0h-11.4v-4.268h11.4Zm0,15.666h-11.4V411.01h11.4ZM468.1,409.6a1.422,1.422,0,1,1,0-2.844,1.422,1.422,0,0,1,0,2.844Z" transform="translate(-70.63 2638.078)" fill="#fff" fill-rule="evenodd"/>
  </g>
</svg>
