<svg xmlns="http://www.w3.org/2000/svg" width="44" height="44" viewBox="0 0 44 44">
  <g id="그룹_2055" data-name="그룹 2055" transform="translate(-372 -3155.076)">
    <g id="타원_624" data-name="타원 624" transform="translate(372 3155.076)" fill="none" stroke="#1f9689" stroke-width="5">
      <circle cx="22" cy="22" r="22" stroke="none"/>
      <circle cx="22" cy="22" r="19.5" fill="none"/>
    </g>
    <g id="그룹_2047" data-name="그룹 2047" transform="translate(382.983 3163.054)">
      <path id="패스_2699" data-name="패스 2699" d="M574.425,647.008H562.65a5.4,5.4,0,0,0-5.4,5.4v13.536a5.4,5.4,0,0,0,5.4,5.4h11.775a5.4,5.4,0,0,0,5.4-5.4V652.4A5.4,5.4,0,0,0,574.425,647.008Zm-12.758,20.443a1.573,1.573,0,1,1,1.573-1.573A1.573,1.573,0,0,1,561.667,667.451Zm5.887-9.539a1.336,1.336,0,0,1-1.336,1.336h-5.271a1.336,1.336,0,0,1-1.336-1.336v-3.348a1.315,1.315,0,0,1,1.315-1.315h5.313a1.315,1.315,0,0,1,1.315,1.315Zm-.589-8.169a1.573,1.573,0,1,1,1.573,1.573A1.573,1.573,0,0,1,566.964,649.743Zm8.443,17.708a1.573,1.573,0,1,1,1.573-1.573A1.573,1.573,0,0,1,575.408,667.451Zm2.046-9.539a1.336,1.336,0,0,1-1.336,1.336h-5.271a1.336,1.336,0,0,1-1.336-1.336v-3.348a1.315,1.315,0,0,1,1.315-1.315h5.313a1.315,1.315,0,0,1,1.315,1.315Z" transform="translate(-557.254 -647.008)" fill="#1f9689"/>
      <rect id="사각형_427" data-name="사각형 427" width="10.366" height="2.158" transform="translate(6.328 26.236)" fill="#1f9689"/>
    </g>
  </g>
</svg>
