<svg xmlns="http://www.w3.org/2000/svg" width="46.139" height="44.896" viewBox="0 0 46.139 44.896">
  <g id="그룹_2050" data-name="그룹 2050" transform="translate(-372 -2874.333)">
    <ellipse id="타원_626" data-name="타원 626" cx="23.07" cy="22.448" rx="23.07" ry="22.448" transform="translate(372 2874.333)" fill="#1f9689"/>
    <g id="그룹_2049" data-name="그룹 2049" transform="translate(380.946 2884.074)">
      <path id="패스_2701" data-name="패스 2701" d="M349.5,440.52c-.7-.333-4.117-1.958-4.751-2.177s-1.1-.339-1.569.333-1.8,2.184-2.2,2.623-.809.5-1.512.169a19.031,19.031,0,0,1-5.585-3.332,20.267,20.267,0,0,1-3.866-4.638c-.4-.672-.038-1.036.308-1.368.32-.307.69-.791,1.048-1.174l.251-.326a6.6,6.6,0,0,0,.439-.8,1.2,1.2,0,0,0-.05-1.18c-.176-.333-1.569-3.64-2.152-4.983s-1.155-1.111-1.569-1.111c-.4,0-.86-.062-1.324-.062a2.6,2.6,0,0,0-1.858.841,7.417,7.417,0,0,0-2.429,5.6,8.268,8.268,0,0,0,.358,2.284,15.07,15.07,0,0,0,2.485,4.65c.339.439,4.8,7.436,11.861,10.135,7.072,2.674,7.072,1.782,8.346,1.663,1.274-.1,4.117-1.613,4.688-3.188a5.375,5.375,0,0,0,.408-3.188C350.651,441.029,350.187,440.859,349.5,440.52Z" transform="translate(-322.675 -422.497)" fill="#fff" fill-rule="evenodd"/>
    </g>
  </g>
</svg>
