<svg xmlns="http://www.w3.org/2000/svg" width="45.334" height="45.334" viewBox="0 0 45.334 45.334">
  <g id="그룹_2057" data-name="그룹 2057" transform="translate(-372.002 -2978)">
    <circle id="타원_627" data-name="타원 627" cx="22.667" cy="22.667" r="22.667" transform="translate(372.002 2978)" fill="#1f9689"/>
    <g id="그룹_2056" data-name="그룹 2056" transform="translate(381.139 2987.135)">
      <path id="패스_2702" data-name="패스 2702" d="M449.674,391.436a10.824,10.824,0,1,1-10.827,10.828,10.842,10.842,0,0,1,10.827-10.828m0-2.707a13.531,13.531,0,1,0,13.534,13.534,13.531,13.531,0,0,0-13.534-13.534Z" transform="translate(-436.146 -388.729)" fill="#fff"/>
      <path id="패스_2703" data-name="패스 2703" d="M439.995,414c-5.71-11.937-.61-24.6-.388-25.126l2.5,1.03c-.049.117-4.853,12.1.327,22.925Z" transform="translate(-430.191 -387.98)" fill="#fff"/>
      <path id="패스_2704" data-name="패스 2704" d="M441.029,414l-2.442-1.172c5.191-10.858.376-22.808.327-22.925l2.5-1.03C441.639,389.4,446.738,402.063,441.029,414Z" transform="translate(-423.536 -387.98)" fill="#fff"/>
      <rect id="사각형_428" data-name="사각형 428" width="24.057" height="2.707" transform="translate(1.501 12.155)" fill="#fff"/>
    </g>
  </g>
</svg>
