<svg id="Layer_1" data-name="Layer 1" xmlns="http://www.w3.org/2000/svg" xmlns:xlink="http://www.w3.org/1999/xlink" viewBox="0 0 59.62 51.55"><defs><style>.cls-1{fill:#f39200;}.cls-2{fill:url(#linear-gradient);}.cls-3{fill:#00a49a;}</style><linearGradient id="linear-gradient" x1="219.63" y1="329.5" x2="279.25" y2="329.5" gradientUnits="userSpaceOnUse"><stop offset="0" stop-color="#00a49a"/><stop offset="0.18" stop-color="#3ba074"/><stop offset="0.4" stop-color="#7c9b4b"/><stop offset="0.6" stop-color="#af972b"/><stop offset="0.77" stop-color="#d49414"/><stop offset="0.91" stop-color="#eb9305"/><stop offset="1" stop-color="#f39200"/></linearGradient></defs><title>sublogo</title><path class="cls-1" d="M238.65,297.5v-2.65s-5.43,3.17-5.94,7.62h0a5.14,5.14,0,0,0-.07.88,5.85,5.85,0,1,0,6-5.85Z" transform="translate(-219.63 -294.85)"/><path class="cls-2" d="M278.09,334.3l-10.93-17.89a2.7,2.7,0,0,0-.27-.39l-.09-.15c-.11-.15-.22-.28-.34-.42s-.11-.14-.18-.21-.2-.22-.31-.33l-.26-.25-.28-.24-.35-.27-.23-.16-.33-.23h0l-.13-.06-.1-.06a7.88,7.88,0,0,0-3.55-1H260a7.88,7.88,0,0,0-3.55,1l-.11.06-.12.07h0l-.33.22c-.08.06-.16.1-.23.16s-.24.18-.35.28l-.28.23c-.09.09-.18.17-.26.26l-.32.32-.17.21-.34.42a1.3,1.3,0,0,1-.1.15c-.09.13-.18.25-.26.39l-4.16,6.82-4.16-6.82L245,316a1.3,1.3,0,0,1-.1-.15l-.33-.42-.18-.21-.32-.32a3.07,3.07,0,0,0-.26-.25,3.22,3.22,0,0,0-.28-.24c-.11-.1-.23-.19-.35-.28L243,314a3.88,3.88,0,0,0-.33-.23h0l-.12-.07-.11-.05a7.77,7.77,0,0,0-3.55-1h-.72a7.77,7.77,0,0,0-3.55,1l-.1.05-.13.07h0L234,314l-.23.15-.35.28c-.09.08-.19.15-.28.24l-.26.25-.31.32-.18.22a3.39,3.39,0,0,0-.33.42.71.71,0,0,0-.1.14c-.09.13-.19.26-.27.39l-10.92,17.9a8,8,0,0,0,2.64,10.93h0a8,8,0,0,0,10.92-2.65l4.15-6.79,4.14,6.79a7.9,7.9,0,0,0,4.74,3.52l.15.05.42.08.35.07.25,0,.51.05h.76l.52-.05.24,0,.36-.07.41-.08.16-.05a7.9,7.9,0,0,0,4.73-3.52l4.14-6.79,4.15,6.79a7.95,7.95,0,1,0,13.56-8.29Z" transform="translate(-219.63 -294.85)"/><path class="cls-3" d="M260.22,306.65v2.65s5.42-3.17,5.94-7.63h0a6.15,6.15,0,0,0,.06-.87,5.85,5.85,0,1,0-6,5.85Z" transform="translate(-219.63 -294.85)"/></svg>