<svg xmlns="http://www.w3.org/2000/svg" width="40.667" height="40.667" viewBox="0 0 40.667 40.667">
  <path id="패스_610" data-name="패스 610" d="M1799.334,348.482a20.333,20.333,0,1,0,20.333,20.333A20.333,20.333,0,0,0,1799.334,348.482Zm11.238,15.984q.016.347.015.7a15.356,15.356,0,0,1-23.639,12.937,11.028,11.028,0,0,0,1.288.075,10.834,10.834,0,0,0,6.706-2.311,5.405,5.405,0,0,1-5.044-3.75,5.392,5.392,0,0,0,2.438-.092,5.4,5.4,0,0,1-4.331-5.293c0-.024,0-.046,0-.069a5.358,5.358,0,0,0,2.445.675,5.4,5.4,0,0,1-1.671-7.208,15.329,15.329,0,0,0,11.129,5.641,5.4,5.4,0,0,1,9.2-4.924,10.83,10.83,0,0,0,3.428-1.311,5.419,5.419,0,0,1-2.374,2.987,10.776,10.776,0,0,0,3.1-.85A10.988,10.988,0,0,1,1810.572,364.466Z" transform="translate(-1779 -348.482)" fill="#0f4440"/>
</svg>
