<svg xmlns="http://www.w3.org/2000/svg" width="211" height="274" viewBox="0 0 211 274">
  <g id="그룹_2725" data-name="그룹 2725" transform="translate(-1846 3435)">
    <g id="사각형_135" data-name="사각형 135" transform="translate(1846 -3400)" fill="none" stroke="#129082" stroke-width="5">
      <rect width="211" height="239" rx="38" stroke="none"/>
      <rect x="2.5" y="2.5" width="206" height="234" rx="35.5" fill="none"/>
    </g>
    <g id="타원_62" data-name="타원 62" transform="translate(1913 -3435)" fill="#129082" stroke="#f5f5f5" stroke-width="1">
      <ellipse cx="38.5" cy="39" rx="38.5" ry="39" stroke="none"/>
      <ellipse cx="38.5" cy="39" rx="38" ry="38.5" fill="none"/>
    </g>
    <text id="_1" data-name="1" transform="translate(1940 -3378)" fill="#fff" font-size="44" font-family="SegoeUI, Segoe UI"><tspan x="0" y="0">1</tspan></text>
    <g id="telephone-call-receiver" transform="translate(1920 -3338.517)">
      <g id="그룹_16" data-name="그룹 16">
        <path id="패스_26" data-name="패스 26" d="M57.433,58.593a4.277,4.277,0,0,1-.444.363l-2.218,1.371c-.081.04-.2.121-.282.161a26.813,26.813,0,0,1-10.848,2.258A22.715,22.715,0,0,1,27.35,56.415L6.422,35.486C-.071,28.994-1.684,17.864,2.51,8.428a1.631,1.631,0,0,1,.2-.363L4.123,5.928c.081-.121.2-.242.282-.363l3.75-3.75A6.17,6.17,0,0,1,12.511,0,5.681,5.681,0,0,1,16.5,1.653L27.391,12.541a5.928,5.928,0,0,1-.121,8.388L23,25.2,37.553,39.761l4.355-4.355a5.485,5.485,0,0,1,4.153-1.774,5.9,5.9,0,0,1,4.113,1.694L61.062,46.213a6.439,6.439,0,0,1,1.815,4.194,5.828,5.828,0,0,1-1.653,4.4Zm.2-8.952L46.747,38.753a1.039,1.039,0,0,0-1.492.081l-6.049,6.049a2.459,2.459,0,0,1-3.428,0L17.834,26.937a2.49,2.49,0,0,1-.726-1.694,2.321,2.321,0,0,1,.726-1.694L23.8,17.5a1.142,1.142,0,0,0,.121-1.573L13.035,5.041A.732.732,0,0,0,12.47,4.8a1.389,1.389,0,0,0-.928.4L7.994,8.751,6.825,10.525C2.994,19.4,5.655,27.865,9.809,31.978l20.929,21.01a17.939,17.939,0,0,0,12.9,4.92,21.844,21.844,0,0,0,8.71-1.774L54.207,55,57.8,51.415a1.062,1.062,0,0,0,.242-.766A1.907,1.907,0,0,0,57.635,49.64Z" transform="translate(-0.193)" fill="#068d7e"/>
      </g>
    </g>
    <text id="상담예약" transform="translate(1915 -3239)" fill="#129082" font-size="20" font-family="NanumSquareOTFR, NanumSquareOTF"><tspan x="0" y="0">상담예약</tspan></text>
  </g>
</svg>
