<svg xmlns="http://www.w3.org/2000/svg" width="211" height="274" viewBox="0 0 211 274">
  <g id="그룹_2726" data-name="그룹 2726" transform="translate(-2071 3435)">
    <g id="사각형_135" data-name="사각형 135" transform="translate(2071 -3400)" fill="none" stroke="#129082" stroke-width="5">
      <rect width="211" height="239" rx="38" stroke="none"/>
      <rect x="2.5" y="2.5" width="206" height="234" rx="35.5" fill="none"/>
    </g>
    <circle id="타원_62" data-name="타원 62" cx="39" cy="39" r="39" transform="translate(2138 -3435)" fill="#129082"/>
    <text id="_2" data-name="2" transform="translate(2165 -3378)" fill="#fff" font-size="44" font-family="SegoeUI, Segoe UI"><tspan x="0" y="0">2</tspan></text>
    <g id="dialogue-balloon" transform="translate(2143 -3338.006)">
      <g id="그룹_100" data-name="그룹 100" transform="translate(0 0)">
        <path id="패스_177" data-name="패스 177" d="M7.715,51.2l-1.63,9.146a2.332,2.332,0,0,0,.954,2.346,2.228,2.228,0,0,0,1.392.437,2.109,2.109,0,0,0,1.113-.278l9.544-5.13c2.068,8.947,12.01,15.748,23.9,15.748q1.253,0,2.505-.119l12.288,6.6a2.31,2.31,0,0,0,1.113.278,2.506,2.506,0,0,0,1.392-.437,2.332,2.332,0,0,0,.954-2.346L59.61,68.3c4.891-3.619,7.675-8.629,7.675-14,0-8.908-7.834-16.662-18.77-18.69C47.481,25.786,37.023,17.992,24.3,17.992,10.9,17.992,0,26.582,0,37.159.04,42.568,2.823,47.618,7.715,51.2Zm54.838,3.1c0,4.176-2.466,8.152-6.8,10.9a2.431,2.431,0,0,0-1.074,2.426l1.034,5.806-8.59-4.613a2.444,2.444,0,0,0-1.392-.278c-.915.08-1.869.159-2.744.159-9.822,0-17.975-5.368-19.327-12.328H24.3c12.01,0,21.991-6.919,23.94-15.946C56.628,42.17,62.553,47.857,62.553,54.3ZM24.337,22.8c10.777,0,19.525,6.442,19.525,14.4s-8.749,14.4-19.525,14.4a21.579,21.579,0,0,1-2.744-.159,2.445,2.445,0,0,0-1.392.278l-8.59,4.613,1.034-5.806A2.363,2.363,0,0,0,11.572,48.1c-4.335-2.744-6.8-6.721-6.8-10.9C4.812,29.286,13.56,22.8,24.337,22.8Z" transform="translate(0 -17.992)" fill="#068d7e"/>
      </g>
    </g>
    <text id="초기면접_상담" data-name="초기면접 상담" transform="translate(2120 -3230)" fill="#129082" font-size="20" font-family="NanumSquareOTFR, NanumSquareOTF"><tspan x="0" y="0">초기면접 상담</tspan></text>
  </g>
</svg>
