<svg xmlns="http://www.w3.org/2000/svg" width="211" height="274" viewBox="0 0 211 274">
  <g id="그룹_2727" data-name="그룹 2727" transform="translate(-2296 3435)">
    <g id="사각형_135" data-name="사각형 135" transform="translate(2296 -3400)" fill="none" stroke="#129082" stroke-width="5">
      <rect width="211" height="239" rx="38" stroke="none"/>
      <rect x="2.5" y="2.5" width="206" height="234" rx="35.5" fill="none"/>
    </g>
    <circle id="타원_62" data-name="타원 62" cx="39" cy="39" r="39" transform="translate(2362 -3435)" fill="#129082"/>
    <text id="_3" data-name="3" transform="translate(2390 -3378)" fill="#fff" font-size="44" font-family="SegoeUI, Segoe UI"><tspan x="0" y="0">3</tspan></text>
    <g id="그룹_1306" data-name="그룹 1306" transform="translate(1657.341 -5275.427)">
      <g id="writing-notepad" transform="translate(715.659 1938.374)">
        <g id="그룹_10" data-name="그룹 10" transform="translate(0)">
          <path id="패스_19" data-name="패스 19" d="M51,14.009V68.621a2.673,2.673,0,0,0,2.517,2.684h51.172a2.673,2.673,0,0,0,2.517-2.684V14.009a2.673,2.673,0,0,0-2.517-2.684h-7.55V7.718a2.673,2.673,0,0,0-2.517-2.684H86.149C85.059,3.356,82.794,0,79.1,0c-3.356,0-5.662,2.936-6.879,5.033H64a2.673,2.673,0,0,0-2.517,2.684v3.817c-.126-.042-.294-.21-.419-.21h-7.55A2.674,2.674,0,0,0,51,14.009Zm15.519-3.943h7.34A2.461,2.461,0,0,0,76.25,8.431c.377-1.049,1.594-3.272,2.852-3.272,1.342,0,2.684,2.265,3.1,3.356a2.469,2.469,0,0,0,2.349,1.552h7.55V21.811H66.519ZM56.033,16.358h5.033c.126,0,.294.168.419.126V24.5A2.386,2.386,0,0,0,64,26.844H94.622A2.386,2.386,0,0,0,97.139,24.5V16.358h5.033V66.272H56.033Z" transform="translate(-51)" fill="#068d7e"/>
        </g>
      </g>
      <g id="text-line-form" transform="translate(723.326 1961.082)">
        <g id="그룹_19" data-name="그룹 19" transform="translate(0)">
          <path id="패스_29" data-name="패스 29" d="M80.843,1.683A1.884,1.884,0,0,0,78.818,0H41.692a1.884,1.884,0,0,0-2.025,1.683V40.4a1.884,1.884,0,0,0,2.025,1.683H78.818A1.884,1.884,0,0,0,80.843,40.4V1.683ZM43.717,3.367H76.793V38.72H43.717Z" transform="translate(-39.667)" fill="#068d7e"/>
          <path id="패스_30" data-name="패스 30" d="M145.951,99.167H121.7c-1.482,0-2.7.556-2.7,1.235s1.213,1.235,2.7,1.235h24.256c1.482,0,2.7-.556,2.7-1.235S147.433,99.167,145.951,99.167Z" transform="translate(-113.235 -89.119)" fill="#068d7e"/>
          <path id="패스_31" data-name="패스 31" d="M145.951,189.833H121.7c-1.482,0-2.7.556-2.7,1.235s1.213,1.235,2.7,1.235h24.256c1.482,0,2.7-.556,2.7-1.235S147.433,189.833,145.951,189.833Z" transform="translate(-113.235 -170.599)" fill="#068d7e"/>
          <path id="패스_32" data-name="패스 32" d="M145.951,286.167H121.7c-1.482,0-2.7.556-2.7,1.235s1.213,1.235,2.7,1.235h24.256c1.482,0,2.7-.556,2.7-1.235S147.433,286.167,145.951,286.167Z" transform="translate(-113.235 -257.173)" fill="#068d7e"/>
        </g>
      </g>
    </g>
    <text id="심리검사_및_해석상담" data-name="심리검사 및 
해석상담" transform="translate(2402 -3239)" fill="#129082" font-size="20" font-family="NanumSquareOTFR, NanumSquareOTF"><tspan x="-50.5" y="0">심리검사 및 </tspan><tspan x="-36.4" y="23">해석상담</tspan></text>
  </g>
</svg>
