<svg xmlns="http://www.w3.org/2000/svg" width="143.09" height="140.361" viewBox="0 0 143.09 140.361">
  <g id="그룹_368" data-name="그룹 368" transform="translate(-41.442 -230.198)">
    <g id="그룹_364" data-name="그룹 364">
      <path id="패스_432" data-name="패스 432" d="M157.341,303.743a24.719,24.719,0,0,0-46.112-16.3,27.025,27.025,0,0,0-46.323,27.6,27.044,27.044,0,1,0,27.8,41.867,27.006,27.006,0,0,0,45.5-5.429,27.034,27.034,0,1,0,19.14-47.746Z" fill="#fff" stroke="#737373" stroke-linejoin="round" stroke-width="4"/>
      <g id="그룹_363" data-name="그룹 363">
        <rect id="사각형_76" data-name="사각형 76" width="7.727" height="12.364" rx="3.864" transform="translate(112.987 331.453) rotate(-180)" fill="#040506"/>
        <rect id="사각형_77" data-name="사각형 77" width="7.727" height="12.364" rx="3.864" transform="translate(89.806 331.453) rotate(-180)" fill="#040506"/>
      </g>
      <path id="패스_433" data-name="패스 433" d="M91.741,335.309l4.939,13.306,5.626-12.9" fill="none" stroke="#cd6454" stroke-linecap="round" stroke-linejoin="round" stroke-width="2"/>
    </g>
    <g id="그룹_366" data-name="그룹 366">
      <rect id="사각형_78" data-name="사각형 78" width="54" height="74.625" rx="7" transform="translate(141.548 318.995) rotate(-162.241)" fill="#a46a37" stroke="#695646" stroke-linecap="round" stroke-linejoin="round" stroke-width="2"/>
      <g id="그룹_365" data-name="그룹 365">
        <rect id="사각형_79" data-name="사각형 79" width="39" height="55.5" transform="translate(138.523 303.851) rotate(-162.241)" fill="#f4f4f4" stroke="#bababa" stroke-linecap="round" stroke-linejoin="round" stroke-width="2"/>
        <line id="선_13" data-name="선 13" x1="25.713" y1="8.236" transform="translate(122.065 249.097)" fill="none" stroke="#2e2e2d" stroke-linecap="round" stroke-linejoin="round" stroke-width="2"/>
        <line id="선_14" data-name="선 14" x1="18.571" y1="5.948" transform="translate(127.606 256.384)" fill="none" stroke="#2e2e2d" stroke-linecap="round" stroke-linejoin="round" stroke-width="2"/>
        <line id="선_15" data-name="선 15" x1="20.833" y1="6.672" transform="translate(123.743 260.66)" fill="none" stroke="#2e2e2d" stroke-linecap="round" stroke-linejoin="round" stroke-width="2"/>
        <line id="선_16" data-name="선 16" x1="23.928" y1="7.664" transform="translate(119.046 264.668)" fill="none" stroke="#2e2e2d" stroke-linecap="round" stroke-linejoin="round" stroke-width="2"/>
        <line id="선_17" data-name="선 17" x1="14.523" y1="4.652" transform="translate(126.85 272.68)" fill="none" stroke="#2e2e2d" stroke-linecap="round" stroke-linejoin="round" stroke-width="2"/>
        <line id="선_18" data-name="선 18" x1="25.713" y1="8.236" transform="translate(114.058 274.096)" fill="none" stroke="#2e2e2d" stroke-linecap="round" stroke-linejoin="round" stroke-width="2"/>
        <line id="선_19" data-name="선 19" x1="18.571" y1="5.948" transform="translate(119.599 281.383)" fill="none" stroke="#2e2e2d" stroke-linecap="round" stroke-linejoin="round" stroke-width="2"/>
      </g>
      <rect id="사각형_80" data-name="사각형 80" width="23.25" height="12.25" rx="6.125" transform="translate(146.999 251.57) rotate(-162.241)" fill="#757474" stroke="#2e2e2d" stroke-linecap="round" stroke-linejoin="round" stroke-width="2"/>
    </g>
    <g id="그룹_367" data-name="그룹 367">
      <rect id="사각형_81" data-name="사각형 81" width="11.75" height="52" rx="5.875" transform="matrix(0.758, 0.652, -0.652, 0.758, 164.846, 269.579)" fill="#fca01f" stroke="#783421" stroke-linecap="round" stroke-linejoin="round" stroke-width="2"/>
      <path id="패스_434" data-name="패스 434" d="M163.641,288.992l6.278-7.3a5.892,5.892,0,0,0-.62-8.285h0a5.892,5.892,0,0,0-8.285.62l-6.278,7.3Z" fill="#fca01f" stroke="#783421" stroke-linecap="round" stroke-linejoin="round" stroke-width="2"/>
      <path id="패스_435" data-name="패스 435" d="M167.563,284.435l2.179,1.875-12.321,14.316" fill="none" stroke="#783421" stroke-linecap="round" stroke-linejoin="round" stroke-width="2"/>
    </g>
    <path id="패스_436" data-name="패스 436" d="M87.64,282.685a11.794,11.794,0,0,1,6.89,5.858,15.193,15.193,0,0,1,26.449,8.052,11.739,11.739,0,0,1,9.963,6.519,15.083,15.083,0,1,1-5.089,15.761,11.8,11.8,0,0,1-16.224-5.525,15.157,15.157,0,0,1-18.21-10.19,11.831,11.831,0,1,1-3.779-20.475Z" fill="#fff"/>
    <path id="패스_437" data-name="패스 437" d="M72.456,290.131a11.832,11.832,0,0,1,21.786-1.767,15.193,15.193,0,0,1,26.449,8.052,11.738,11.738,0,0,1,9.963,6.52,15.078,15.078,0,0,1,23.8,16.386" fill="#fff" stroke="#737373" stroke-linecap="round" stroke-linejoin="round" stroke-width="3"/>
  </g>
</svg>
