<?xml version="1.0" encoding="utf-8"?>
<!-- Generator: Adobe Illustrator 22.1.0, SVG Export Plug-In . SVG Version: 6.00 Build 0)  -->
<svg version="1.1" id="Layer_1" xmlns="http://www.w3.org/2000/svg" xmlns:xlink="http://www.w3.org/1999/xlink" x="0px" y="0px"
	 viewBox="0 0 595.3 841.9" style="enable-background:new 0 0 595.3 841.9;" xml:space="preserve">
<style type="text/css">
	.st0{fill:#CCCCCC;stroke:#868686;stroke-width:4;stroke-linecap:round;stroke-linejoin:round;stroke-miterlimit:10;}
	.st1{fill:#B4B4B2;stroke:#868686;stroke-width:4;stroke-linecap:round;stroke-miterlimit:10;}
	.st2{fill:#E6E5E5;stroke:#868686;stroke-width:4;stroke-linejoin:round;stroke-miterlimit:10;}
	.st3{fill:#E6E5E5;}
	.st4{fill:#868686;}
	.st5{fill:url(#SVGID_1_);stroke:#868686;stroke-width:4;stroke-linecap:round;stroke-linejoin:round;stroke-miterlimit:10;}
	.st6{fill:url(#SVGID_2_);}
	.st7{fill:#FFFFFF;stroke:#868686;stroke-width:4;stroke-linecap:round;stroke-linejoin:round;stroke-miterlimit:10;}
	.st8{fill:#EDEDED;stroke:#868686;stroke-width:4;stroke-linecap:round;stroke-linejoin:round;stroke-miterlimit:10;}
	.st9{fill:url(#SVGID_3_);}
	.st10{fill:#FFFFFF;stroke:#868686;stroke-width:4;stroke-linejoin:round;stroke-miterlimit:10;}
	.st11{clip-path:url(#SVGID_5_);fill:#CDCBCB;}
	.st12{clip-path:url(#SVGID_5_);fill:#E6E5E5;}
	.st13{clip-path:url(#SVGID_5_);fill:#F7D8E7;}
	.st14{fill:none;stroke:#878787;stroke-width:4;stroke-linecap:round;stroke-miterlimit:10;}
	.st15{fill:#020203;}
	.st16{fill:#FFFFFF;}
	.st17{clip-path:url(#SVGID_7_);fill:#F8CFE1;stroke:#878787;stroke-width:4;stroke-miterlimit:10;}
	.st18{clip-path:url(#SVGID_7_);fill:#EE777D;}
	.st19{fill:none;stroke:#878787;stroke-width:4;stroke-linecap:round;stroke-linejoin:round;stroke-miterlimit:10;}
	.st20{fill:#E6E5E5;stroke:#878787;stroke-width:4;stroke-linecap:round;stroke-miterlimit:10;}
	.st21{fill:#989999;stroke:#878787;stroke-width:4;stroke-miterlimit:10;}
	.st22{fill:#BA9BA9;}
	.st23{fill:#E6E5E5;stroke:#878787;stroke-width:4;stroke-linejoin:round;stroke-miterlimit:10;}
	.st24{fill:none;stroke:#020203;stroke-width:5;stroke-miterlimit:10;}
</style>
<g>
	<g>
		<path class="st0" d="M401.4,536l41.3-38.3l-48.9-59.9l-18.1,21.6H209.6l5.3-16.7l-46.7-30l-29.3,66l44.4,21.8L172,600.5
			c0,0,52.2,15.2,107.2,16.6l23-0.2c39.6-1.3,88.6-7.6,105-16.4L401.4,536z"/>
		<path class="st1" d="M313.8,566.7c0,0,6.8,28.8,29.2,34.1c11.8,2.8,3.5,11.8-17.5,14.6c-39.6,5.3-50.2-20.5-50.2-20.5
			S297.7,555.1,313.8,566.7z"/>
		<g>
			<path class="st2" d="M429.4,541.7L429.4,541.7c12.1-9.4,14.3-26.9,5-39l-17-22c-9.4-12.1-42.5-39.2-54.6-29.8l0,0
				c-12.1,9.4,1.3,51.8,10.6,63.9l17,22C399.7,548.8,417.3,551.1,429.4,541.7z"/>
			<path class="st2" d="M127.2,423.7L127.2,423.7c7.4-13.4,24.3-18.4,37.8-11l24.4,13.4c13.4,7.4,45.4,35.9,38,49.3l0,0
				c-7.4,13.4-51.3,6.9-64.7-0.5l-24.4-13.4C124.8,454.1,119.8,437.2,127.2,423.7z"/>
			<path class="st2" d="M378.9,555.9c4.9-9.1,7.6-20,7.6-33.1v-82c0-51.4-42.1-93.5-93.5-93.5c-51.4,0-93.5,42.1-93.5,93.5v82
				c0,13,2.7,24,7.6,33.1l19,58.8c0,0,1.8,8.9,0,21.4c0,0-1.8,10.7,21.4,10.7c23.2,0,30.3-7.1,32.1-14.3c0.9-3.5,1.8-21.9,2.4-39.6
				c3.6,0.2,7.2,0.3,10.9,0.3s7.3-0.1,10.9-0.3c0.7,17.7,1.5,36.1,2.4,39.6c1.8,7.1,8.9,14.3,32.1,14.3s21.4-10.7,21.4-10.7
				c-1.8-12.5,0-21.4,0-21.4L378.9,555.9z"/>
			<g>
				<path class="st3" d="M265.3,590.2c10.4,2.2,15.1,3.2,26.9,3.2h0c12.3,0,18-1.1,28.8-3.5"/>
				<path class="st4" d="M265.3,590.2c4.8,0.1,9.4,0.7,14,0.9c4.6,0.3,9.2,0.2,13.8,0.2c4.6,0,9.2-0.1,13.8-0.4
					c4.6-0.3,9.2-0.9,14-1.1c-4.4,1.8-8.9,3.2-13.6,4.2c-4.7,0.9-9.5,1.3-14.2,1.3c-4.7,0-9.5-0.2-14.2-1.1
					C274.2,593.3,269.7,591.9,265.3,590.2z"/>
			</g>
			<path class="st2" d="M199.5,522.9c0,12,2.3,22.2,6.4,30.8"/>
			<g>
				<path class="st3" d="M361.4,575.7c8-5.8,14.4-13.1,18.7-22.2"/>
				<path class="st4" d="M361.4,575.7c3.8-3.1,7.2-6.7,10-10.5c2.9-3.9,5.2-8.1,6.9-12.5l3.6,1.7c-2.5,4.4-5.5,8.5-9,12
					C369.4,570.1,365.5,573.2,361.4,575.7z"/>
			</g>
			<g>
				<path class="st3" d="M205.9,553.7c4.2,8.7,10.2,15.7,17.7,21.3"/>
				<path class="st4" d="M207.7,552.8c1.7,4.2,3.8,8.2,6.5,12c2.7,3.7,5.9,7.2,9.4,10.2c-3.9-2.5-7.6-5.5-10.9-9
					c-3.3-3.4-6.2-7.3-8.6-11.5L207.7,552.8z"/>
			</g>
		</g>
		<g>
			<g>
				<g>
					
						<linearGradient id="SVGID_1_" gradientUnits="userSpaceOnUse" x1="483.6572" y1="576.7424" x2="483.6572" y2="406.7433" gradientTransform="matrix(1 0 0 1 -192.9846 0)">
						<stop  offset="0" style="stop-color:#05AB9E"/>
						<stop  offset="4.241008e-02" style="stop-color:#40AD99"/>
						<stop  offset="0.2263" style="stop-color:#93B382"/>
						<stop  offset="0.4058" style="stop-color:#BFB56C"/>
						<stop  offset="0.5768" style="stop-color:#DAB459"/>
						<stop  offset="0.7371" style="stop-color:#EBB24A"/>
						<stop  offset="0.8826" style="stop-color:#F6B140"/>
						<stop  offset="1" style="stop-color:#F9B03C"/>
					</linearGradient>
					<path class="st5" d="M431.4,485.5L386.2,430l-16.7,20H215.5l4.9-15.5l-43.3-27.8l-27.2,61.1L191,488l-10.3,73.3
						c0,0,53.3,15.5,106.8,15.5c38.1,0,93.9-6.2,111.1-15.5l-5.4-40.3L431.4,485.5z"/>
				</g>
				<g>
					
						<linearGradient id="SVGID_2_" gradientUnits="userSpaceOnUse" x1="583.5267" y1="527.8046" x2="583.5267" y2="482.9247" gradientTransform="matrix(1 0 0 1 -192.9846 0)">
						<stop  offset="0" style="stop-color:#05AB9E"/>
						<stop  offset="4.241008e-02" style="stop-color:#40AD99"/>
						<stop  offset="0.2263" style="stop-color:#93B382"/>
						<stop  offset="0.4058" style="stop-color:#BFB56C"/>
						<stop  offset="0.5768" style="stop-color:#DAB459"/>
						<stop  offset="0.7371" style="stop-color:#EBB24A"/>
						<stop  offset="0.8826" style="stop-color:#F6B140"/>
						<stop  offset="1" style="stop-color:#F9B03C"/>
					</linearGradient>
					<line class="st6" x1="393.8" y1="527.8" x2="387.3" y2="482.9"/>
					<path class="st4" d="M391.8,528.1l-4.6-45.2l8.5,44.6c0.2,1.1-0.5,2.1-1.6,2.3c-1.1,0.2-2.1-0.5-2.3-1.6
						C391.9,528.2,391.8,528.2,391.8,528.1z"/>
				</g>
			</g>
			<path class="st7" d="M401.5,532.7l41.3-34l-49-70l-18.1,21.6h-50.9l-5.6,66.6v100c35.6-2.3,73.8-9.2,87.9-16.8L401.5,532.7z"/>
			<g>
				<path class="st7" d="M254.3,448.5h-44.7l5.3-16.7l-46.7-30l-29.5,76.4l44.4,21.8L171.9,600c0,0,40.7,11.8,87.9,15.5l0-100.5
					L254.3,448.5z"/>
				<polygon class="st7" points="259.9,515.1 257.9,497 258,497.1 253.6,433.2 216,443.1 240.8,475 227.1,487.1 				"/>
			</g>
			<circle class="st8" cx="248.2" cy="547.4" r="5.2"/>
			<circle class="st8" cx="248.2" cy="574.2" r="5.2"/>
			<polygon class="st8" points="338.1,493.3 369.5,493.3 369.5,514.9 353.8,527.8 338.1,515.1 			"/>
			<g>
				
					<linearGradient id="SVGID_3_" gradientUnits="userSpaceOnUse" x1="591.4493" y1="536.0356" x2="591.4493" y2="491.1558" gradientTransform="matrix(1 0 0 1 -192.9846 0)">
					<stop  offset="0" style="stop-color:#05AB9E"/>
					<stop  offset="4.241008e-02" style="stop-color:#40AD99"/>
					<stop  offset="0.2263" style="stop-color:#93B382"/>
					<stop  offset="0.4058" style="stop-color:#BFB56C"/>
					<stop  offset="0.5768" style="stop-color:#DAB459"/>
					<stop  offset="0.7371" style="stop-color:#EBB24A"/>
					<stop  offset="0.8826" style="stop-color:#F6B140"/>
					<stop  offset="1" style="stop-color:#F9B03C"/>
				</linearGradient>
				<line class="st9" x1="401.7" y1="536" x2="395.2" y2="491.2"/>
				<path class="st4" d="M399.8,536.3l-4.6-45.2l8.5,44.6c0.2,1.1-0.5,2.1-1.6,2.3c-1.1,0.2-2.1-0.5-2.3-1.6
					C399.8,536.4,399.8,536.4,399.8,536.3z"/>
			</g>
			<polygon class="st7" points="319.1,515.4 321.1,497.3 321,497.4 325.4,433.6 363,443.4 338.2,475.4 351.9,487.5 			"/>
		</g>
	</g>
	<g>
		<path class="st10" d="M412.4,214.5"/>
		<g>
			<g>
				<defs>
					<path id="SVGID_4_" d="M296.5,195c0,0,58.4,0,95.3,36.9c21.5,21.5,61.5,110.6,43,159.8s-49.2,67.6-138.3,67.6h-7.6
						c-89.1,0-119.9-18.4-138.3-67.6s21.5-138.3,43-159.8c36.9-36.9,95.3-36.9,95.3-36.9H296.5z"/>
				</defs>
				<clipPath id="SVGID_5_">
					<use xlink:href="#SVGID_4_"  style="overflow:visible;"/>
				</clipPath>
				<path class="st11" d="M296.5,195c0,0,58.4,0,95.3,36.9c21.5,21.5,61.5,110.6,43,159.8s-49.2,67.6-138.3,67.6h-7.6
					c-89.1,0-119.9-18.4-138.3-67.6s21.5-138.3,43-159.8c36.9-36.9,95.3-36.9,95.3-36.9H296.5z"/>
				<path class="st12" d="M296.5,195c0,0,58.4,0,95.3,36.9c21.5,21.5,61.5,110.6,43,159.8s-49.2,67.6-138.3,67.6h-7.6
					c-89.1,0-119.9-18.4-138.3-67.6s21.5-138.3,43-159.8c36.9-36.9,95.3-36.9,95.3-36.9H296.5z"/>
				<circle class="st13" cx="147.5" cy="397.8" r="38.4"/>
				<circle class="st13" cx="436.4" cy="397.8" r="38.4"/>
			</g>
			<path class="st14" d="M296.5,195c0,0,58.4,0,95.3,36.9c21.5,21.5,61.5,110.6,43,159.8s-49.2,67.6-138.3,67.6h-7.6
				c-89.1,0-119.9-18.4-138.3-67.6s21.5-138.3,43-159.8c36.9-36.9,95.3-36.9,95.3-36.9H296.5z"/>
			<g>
				<path class="st15" d="M244.7,369.5h-0.5c-6.3,0-11.5-5.2-11.5-11.5v-12.2c0-6.3,5.2-11.5,11.5-11.5h0.5
					c6.3,0,11.5,5.2,11.5,11.5v12.2C256.2,364.4,251,369.5,244.7,369.5z"/>
				<circle class="st16" cx="241.7" cy="340.3" r="2.7"/>
			</g>
			<g>
				<path class="st15" d="M340.7,369.5h-0.5c-6.3,0-11.5-5.2-11.5-11.5v-12.2c0-6.3,5.2-11.5,11.5-11.5h0.5
					c6.3,0,11.5,5.2,11.5,11.5v12.2C352.1,364.4,347,369.5,340.7,369.5z"/>
				<circle class="st16" cx="337.7" cy="340.3" r="2.7"/>
			</g>
			<g>
				<g>
					<g>
						<defs>
							<path id="SVGID_6_" d="M302.4,395.6c0,0,8.8-6.6,28.6-2.2c0,0,11,8.8-17.6,19.8s-48.4-4.4-52.8-17.6
								C260.6,395.6,284.7,397.9,302.4,395.6z"/>
						</defs>
						<clipPath id="SVGID_7_">
							<use xlink:href="#SVGID_6_"  style="overflow:visible;"/>
						</clipPath>
						<path class="st17" d="M302.4,395.6c0,0,8.8-6.6,28.6-2.2c0,0,11,8.8-17.6,19.8s-48.4-4.4-52.8-17.6
							C260.6,395.6,284.7,397.9,302.4,395.6z"/>
						<path class="st18" d="M312.8,400c-3.1,0.4-6,1.3-8.5,2.4c-2.7-0.4-5.8-0.5-8.9-0.1c-10.8,1.5-18.9,8-18,14.6
							c0.9,6.6,10.4,10.8,21.2,9.4c3.1-0.4,6-1.3,8.5-2.4c2.7,0.4,5.8,0.5,8.9,0.1c10.8-1.5,18.9-8,18-14.6
							C333.1,402.7,323.6,398.5,312.8,400z"/>
						<use xlink:href="#SVGID_6_"  style="overflow:visible;fill:none;stroke:#878787;stroke-width:4;stroke-miterlimit:10;"/>
					</g>
					<path class="st19" d="M302.4,395.6c0,0,8.8-6.6,28.6-2.2c0,0,11,8.8-17.6,19.8s-48.4-4.4-52.8-17.6
						C260.6,395.6,284.7,397.9,302.4,395.6z"/>
				</g>
				<g>
					<path class="st20" d="M255.5,391.3c0,0-3.8,20.7,9.4,39.5c0,0,13.2,7.5,28.2,0c0,0,7.5-33.8,16.9-39.5"/>
					<path class="st14" d="M258.7,398.2c0,0,16.5-5.9,33.4-0.3"/>
					<path class="st14" d="M260.2,409.2c0,0,13.2-4.8,26.7-0.3"/>
					<path class="st14" d="M263.7,420c0,0,7.9-2.9,16-0.2"/>
				</g>
			</g>
		</g>
		<g>
			<path class="st21" d="M173,223.5c0,0-24.7-27-51.8-17.5c0,0-11.6,35.8,17.4,49.8c0,0,19.1,11.1,37.9-0.5
				C176.5,255.3,192.2,242.2,173,223.5z"/>
			<path class="st22" d="M174.5,253c-6.2,7-26.1,4.7-36.9-6.1c-18.4-18.4-9.2-36.9-9.2-36.9s21.3-2.8,32.7,7.3
				C172.5,227.5,180.7,246,174.5,253z"/>
			<path class="st23" d="M176.5,255.3c0,0,15.7-13.1-3.5-31.8c0,0-24.7-27-51.8-17.5c0,0,24.1,8.6,27.2,27S173.8,256.1,176.5,255.3z
				"/>
		</g>
		<g>
			<path class="st21" d="M412.4,223.5c0,0,24.7-27,51.8-17.5c0,0,11.6,35.8-17.4,49.8c0,0-19.1,11.1-37.9-0.5
				C408.9,255.3,393.2,242.2,412.4,223.5z"/>
			<path class="st22" d="M410.9,253c6.2,7,26.1,4.7,36.9-6.1c18.4-18.4,9.2-36.9,9.2-36.9s-21.3-2.8-32.7,7.3
				C412.8,227.5,404.7,246,410.9,253z"/>
			<path class="st23" d="M408.9,255.3c0,0-15.7-13.1,3.5-31.8c0,0,24.7-27,51.8-17.5c0,0-24.1,8.6-27.2,27
				C433.9,251.5,411.5,256.1,408.9,255.3z"/>
		</g>
	</g>
	<g>
		<ellipse class="st24" cx="244.2" cy="352" rx="38.2" ry="32"/>
		<ellipse class="st24" cx="340" cy="352" rx="38.2" ry="32"/>
		<path class="st24" d="M282.4,355c0-3.4,4.3-6.1,9.7-6.1c5.4,0,9.7,2.7,9.7,6.1"/>
	</g>
</g>
</svg>
