<svg id="그룹_411" data-name="그룹 411" xmlns="http://www.w3.org/2000/svg" width="131.876" height="109.307" viewBox="0 0 131.876 109.307">
  <g id="패스_497" data-name="패스 497" fill="#fff" stroke-linejoin="round">
    <path d="M26.51,32.932q-.107-.589-.19-1.186t-.14-1.2q-.057-.605-.086-1.219t-.03-1.234a26.3,26.3,0,0,1,1.868-9.8,24.654,24.654,0,0,1,5.076-7.9,22.709,22.709,0,0,1,7.479-5.194,21.544,21.544,0,0,1,9.08-1.715,21.862,21.862,0,0,1,6.388,1.143A22.736,22.736,0,0,1,61.62,7.476a24.362,24.362,0,0,1,4.711,4.286A25.708,25.708,0,0,1,69.86,17.2a25.757,25.757,0,0,1,3.884-4.678,23.978,23.978,0,0,1,4.788-3.53,22.5,22.5,0,0,1,5.5-2.187,22.133,22.133,0,0,1,6.01-.656A22.616,22.616,0,0,1,99.457,8.5a24.914,24.914,0,0,1,7.622,5.877,27.586,27.586,0,0,1,5.1,8.515,29.353,29.353,0,0,1,1.693,13.462,28.477,28.477,0,0,1-1.3,5.948,28.241,28.241,0,0,1-1.087,2.757,22.351,22.351,0,0,1,7.461,3.348,24.761,24.761,0,0,1,5.911,5.775,27.111,27.111,0,0,1,3.893,7.637,29.311,29.311,0,0,1-.427,19.164,27.179,27.179,0,0,1-5.014,8.41,24.294,24.294,0,0,1-7.488,5.781,21.968,21.968,0,0,1-9.254,2.272,21.6,21.6,0,0,1-5.91-.688,22.126,22.126,0,0,1-5.4-2.2,23.773,23.773,0,0,1-4.706-3.534,25.7,25.7,0,0,1-3.816-4.669,26.636,26.636,0,0,1-3.784,4.2A25.068,25.068,0,0,1,78.4,93.794a23.661,23.661,0,0,1-5.185,2.124,23.12,23.12,0,0,1-12.866-.162,23.639,23.639,0,0,1-6.408-3.082,25.469,25.469,0,0,1-5.309-4.859A27.242,27.242,0,0,1,44.744,81.5a26.241,26.241,0,0,1-3.549,2.7,25.283,25.283,0,0,1-3.968,2.054,24.6,24.6,0,0,1-19.094-.187,25.874,25.874,0,0,1-8.376-5.851A27.728,27.728,0,0,1,4.069,71.4,29.328,29.328,0,0,1,3.9,50.058a27.876,27.876,0,0,1,5.264-8.612,26.21,26.21,0,0,1,7.8-5.961A24.663,24.663,0,0,1,26.51,32.932Z" stroke="none"/>
    <path d="M 106.5680465698242 99.40425872802734 C 107.433464050293 99.38455963134766 108.2916946411133 99.31804656982422 109.1412506103516 99.20509338378906 C 109.9900360107422 99.09226989746094 110.830207824707 98.93312835693359 111.6603088378906 98.72806549072266 C 112.4896774291992 98.52320861816406 113.3090286254883 98.27251434326172 114.1169281005859 97.97643280029297 C 114.9241256713867 97.68058013916016 115.7199325561523 97.33941650390625 116.5029296875 96.95332336425781 C 117.2583694458008 96.580810546875 117.9939422607422 96.17061614990234 118.70849609375 95.72367858886719 C 119.4225158691406 95.27707672119141 120.1156005859375 94.79380798339844 120.78662109375 94.27474975585938 C 121.4571533203125 93.75606536865234 122.1056976318359 93.20164489746094 122.7311172485352 92.61238861083984 C 123.3561096191406 92.0235595703125 123.9580459594727 91.39992523193359 124.5358123779297 90.74240112304688 C 125.1131973266602 90.08528900146484 125.6592636108398 89.40252685546875 126.1732406616211 88.69542694091797 C 126.6869659423828 87.98870849609375 127.1686477661133 87.25762176513672 127.6175994873047 86.50346374511719 C 128.0663452148438 85.74966430664062 128.4824066162109 84.97278594970703 128.8650665283203 84.17407989501953 C 129.24755859375 83.37569427490234 129.5967102050781 82.55548858642578 129.9117736816406 81.71469879150391 C 130.2378997802734 80.84428405761719 130.5237731933594 79.96124267578125 130.7690887451172 79.06715393066406 C 131.0143432617188 78.17332458496094 131.2191009521484 77.26835632324219 131.3831024169922 76.35379791259766 C 131.5470733642578 75.43941497802734 131.6703338623047 74.51535034179688 131.7525787353516 73.58318328857422 C 131.8348236083984 72.65108489990234 131.8760681152344 71.71076965332031 131.8760681152344 70.76380157470703 C 131.8760681152344 69.93785095214844 131.8444366455078 69.11638641357422 131.7813720703125 68.30076599121094 C 131.7182769775391 67.48508453369141 131.623779296875 66.67520904541016 131.4980316162109 65.87245941162109 C 131.3722534179688 65.06961059570312 131.2152404785156 64.27386474609375 131.0271911621094 63.48658752441406 C 130.839111328125 62.69916152954102 130.6199340820312 61.92011642456055 130.3699340820312 61.15085601806641 C 130.1282958984375 60.40744018554688 129.859375 59.67761611938477 129.5637969970703 58.96260833740234 C 129.2681274414062 58.24737548828125 128.9457244873047 57.5468864440918 128.5971832275391 56.86234283447266 C 128.24853515625 56.17755508422852 127.8736801147461 55.50864028930664 127.4732513427734 54.85684967041016 C 127.0726318359375 54.20474243164062 126.6463775634766 53.5697135925293 126.1950531005859 52.95293045043945 C 125.7474060058594 52.3411865234375 125.2785949707031 51.75210189819336 124.7894592285156 51.18657684326172 C 124.3000869750977 50.6207389831543 123.7903823852539 50.07846450805664 123.2612152099609 49.56066513061523 C 122.7317352294922 49.04256057739258 122.1827850341797 48.54892349243164 121.6152114868164 48.08066177368164 C 121.0472946166992 47.61211776733398 120.4607467651367 47.16897583007812 119.8564376831055 46.75214004516602 C 119.3935241699219 46.43282699584961 118.9227523803711 46.13077545166016 118.4446334838867 45.84621810913086 C 117.9662475585938 45.56150817871094 117.48046875 45.2943000793457 116.9877853393555 45.04483413696289 C 116.4948501586914 44.79523468017578 115.9950103759766 44.56338119506836 115.4886856079102 44.34949493408203 C 114.9821014404297 44.13551330566406 114.4690399169922 43.93952178955078 113.9500122070312 43.76175308227539 C 114.2570953369141 42.9217414855957 114.5261306762695 42.07083892822266 114.7569580078125 41.21001052856445 C 114.9877243041992 40.34940338134766 115.1803207397461 39.47880935668945 115.3345260620117 38.59919357299805 C 115.4887161254883 37.7197380065918 115.6045455932617 36.83117294311523 115.6818466186523 35.93447113037109 C 115.7591323852539 35.0378532409668 115.7978820800781 34.13302612304688 115.7978820800781 33.220947265625 C 115.7978820800781 32.26560974121094 115.7558975219727 31.31675910949707 115.6721878051758 30.37594223022461 C 115.5884704589844 29.43503189086914 115.4630279541016 28.50208282470703 115.2961273193359 27.57863235473633 C 115.1292114257812 26.65501976013184 114.9208068847656 25.74081611633301 114.6711807250977 24.83760261535645 C 114.4214935302734 23.93414306640625 114.1305313110352 23.04158782958984 113.7985610961914 22.1614990234375 C 113.477912902832 21.31139755249023 113.1225433349609 20.48183059692383 112.7332382202148 19.67409706115723 C 112.3437652587891 18.86602592468262 111.920280456543 18.07975959777832 111.4635391235352 17.31658935546875 C 111.0065765380859 16.55304527282715 110.5163040161133 15.81256484985352 109.9934463500977 15.0964822769165 C 109.4702987670898 14.37999629974365 108.9145126342773 13.68786334991455 108.3268051147461 13.02143001556396 C 107.7387542724609 12.35457420349121 107.1260833740234 11.72175598144531 106.4899444580078 11.12389945983887 C 105.8533706665039 10.52563762664795 105.1932601928711 9.962362289428711 104.5107498168945 9.43501091003418 C 103.8277435302734 8.907261848449707 103.1222991943359 8.41546630859375 102.3955307006836 7.960570335388184 C 101.6681976318359 7.505315780639648 100.9194869995117 7.08699893951416 100.1505584716797 6.706567287445068 C 99.35355377197266 6.312263965606689 98.54352569580078 5.963197708129883 97.72187805175781 5.659804344177246 C 96.89952087402344 5.356150150299072 96.06550598144531 5.098221302032471 95.22130584716797 4.886469841003418 C 94.37635040283203 4.674533367156982 93.52114105224609 4.508838176727295 92.65715789794922 4.389826774597168 C 91.79237365722656 4.270697593688965 90.91877746582031 4.198335647583008 90.037841796875 4.173174381256104 C 89.49333190917969 4.157625198364258 88.94931793212891 4.160597324371338 88.40671539306641 4.181998252868652 C 87.86380767822266 4.203412055969238 87.32233428955078 4.243292331695557 86.78322601318359 4.301538467407227 C 86.24381256103516 4.359818458557129 85.70677947998047 4.436493396759033 85.17307281494141 4.53147029876709 C 84.63907623291016 4.626494884490967 84.1083984375 4.739856719970703 83.58202362060547 4.871447563171387 C 83.07067108154297 4.999287128448486 82.56299591064453 5.144410610198975 82.05982208251953 5.306487560272217 C 81.55638122558594 5.468652248382568 81.05747222900391 5.647788047790527 80.56398010253906 5.843577861785889 C 80.07022094726562 6.039463520050049 79.58187103271484 6.25200366973877 79.09982299804688 6.480879783630371 C 78.61750793457031 6.709873676300049 78.14151000976562 6.955202579498291 77.67267608642578 7.216538906097412 C 76.9541015625 7.617084980010986 76.25290679931641 8.055419921875 75.57173919677734 8.529116630554199 C 74.89008331298828 9.003164291381836 74.22850799560547 9.512611389160156 73.58965301513672 10.05501461029053 C 72.95036315917969 10.59779453277588 72.33384704589844 11.17354869842529 71.74278259277344 11.77984523773193 C 71.15133666992188 12.38651275634766 70.58538055419922 13.02372646331787 70.04758453369141 13.68902111053467 C 69.5606689453125 12.90456962585449 69.03702545166016 12.14791965484619 68.47914886474609 11.42204856872559 C 67.92095184326172 10.69573974609375 67.32841491699219 10.00020694732666 66.70404052734375 9.338440895080566 C 66.07926177978516 8.676236152648926 65.42255401611328 8.047788619995117 64.73641204833984 7.456134796142578 C 64.04976654052734 6.864043235778809 63.33359909057617 6.308746814727783 62.59039688110352 5.793299198150635 C 61.61915588378906 5.119681835174561 60.60997009277344 4.520659446716309 59.57027435302734 3.998814582824707 C 58.52945709228516 3.476403951644897 57.45801162719727 3.031322956085205 56.36343765258789 2.666212320327759 C 55.26762008666992 2.300688028335571 54.1485595703125 2.015309572219849 53.01382446289062 1.812747359275818 C 51.87772750854492 1.60995090007782 50.72589492797852 1.49015486240387 49.56591415405273 1.456082820892334 C 48.7188606262207 1.431192755699158 47.87731170654297 1.451127886772156 47.04276275634766 1.515691876411438 C 46.20745086669922 1.580297112464905 45.3791618347168 1.689608216285706 44.55929946899414 1.843387365341187 C 43.73873138427734 1.997298717498779 42.92665100097656 2.195759296417236 42.12452697753906 2.438574314117432 C 41.32172393798828 2.681585550308228 40.52889251708984 2.96900463104248 39.74749755859375 3.300608396530151 C 38.99240493774414 3.621058702468872 38.25598526000977 3.979158401489258 37.53948593139648 4.374131202697754 C 36.82244491577148 4.769399642944336 36.1253776550293 5.201588153839111 35.44950485229492 5.669872760772705 C 34.77315139770508 6.138502597808838 34.11807632446289 6.643282890319824 33.48548126220703 7.183396816253662 C 32.85246658325195 7.72388219833374 32.24200439453125 8.29973030090332 31.65532112121582 8.910140037536621 C 31.06827163696289 9.520920753479004 30.51241874694824 10.15860366821289 29.98863220214844 10.82195854187012 C 29.46452903747559 11.48567485809326 28.9725513458252 12.17503261566162 28.51353073120117 12.88876438140869 C 28.05432319641113 13.6028356552124 27.62811470031738 14.34126949310303 27.23580741882324 15.10277843475342 C 26.84335517883301 15.86459636688232 26.48481750488281 16.64947319030762 26.16105461120605 17.45612144470215 C 25.82565307617188 18.29178619384766 25.5314884185791 19.14162063598633 25.27890014648438 20.00399971008301 C 25.0262451171875 20.86661911010742 24.81519889831543 21.74171829223633 24.64608764648438 22.62772178649902 C 24.4769401550293 23.51385879516602 24.34976768493652 24.41082000732422 24.2648811340332 25.31698417663574 C 24.17998504638672 26.22323036193848 24.13738632202148 27.13860893249512 24.13738632202148 28.0615062713623 C 24.13738632202148 28.31129837036133 24.14082717895508 28.56205368041992 24.14767646789551 28.8136100769043 C 24.15453720092773 29.06517791748047 24.16482353210449 29.31753540039062 24.17852210998535 29.57054328918457 C 24.19221305847168 29.82354164123535 24.20931625366211 30.07719039916992 24.22979736328125 30.33133506774902 C 24.25029182434082 30.58546829223633 24.27417945861816 30.84009552001953 24.30144119262695 31.09504699707031 C 22.732421875 31.31196784973145 21.19235992431641 31.66866302490234 19.69529724121094 32.15865707397461 C 18.19591522216797 32.64941787719727 16.73981857299805 33.27384567260742 15.34113883972168 34.02537536621094 C 13.9404239654541 34.77799224853516 12.59750747680664 35.65798950195312 11.32659244537354 36.65869140625 C 10.05401229858398 37.66071319580078 8.853845596313477 38.78360366821289 7.740416526794434 40.02057266235352 C 6.496694564819336 41.40227890014648 5.391335487365723 42.89377975463867 4.432730674743652 44.4740104675293 C 3.473165988922119 46.0557861328125 2.660919904708862 47.72598266601562 2.00429892539978 49.46335220336914 C 1.347219705581665 51.201904296875 0.8462013602256775 53.00714492797852 0.5093859434127808 54.85768127441406 C 0.1724701523780823 56.70887756347656 -1.581129254191183e-05 58.60479354858398 -1.581129254191183e-05 60.52390289306641 C -1.581129254191183e-05 61.53946304321289 0.04744853079319 62.54736328125 0.1420066803693771 63.54584121704102 C 0.236587330698967 64.54420471191406 0.3782435059547424 65.53304290771484 0.566670298576355 66.51055908203125 C 0.7550607919692993 67.48789215087891 0.9901699423789978 68.45382690429688 1.271616816520691 69.40660858154297 C 1.552998185157776 70.35908508300781 1.880663752555847 71.29833984375 2.25425124168396 72.22255706787109 C 2.614859819412231 73.11465454101562 3.014190673828125 73.98326873779297 3.451329231262207 74.82698059082031 C 3.888256072998047 75.67031860351562 4.362891674041748 76.48868560791016 4.8742995262146 77.28070068359375 C 5.385439395904541 78.07230377197266 5.933257579803467 78.83749389648438 6.516814231872559 79.57490539550781 C 7.100020885467529 80.31184387207031 7.718894958496094 81.02096557617188 8.372459411621094 81.70091247558594 C 9.025569915771484 82.38037872314453 9.705104827880859 83.02210235595703 10.40967845916748 83.62521362304688 C 11.11375713348389 84.22787475585938 11.84281826019287 84.79194641113281 12.59547805786133 85.31651306152344 C 13.3475399017334 85.84067535400391 14.12314033508301 86.32536315917969 14.92090225219727 86.76971435546875 C 15.7180233001709 87.21368408203125 16.5372314453125 87.61737060546875 17.37716293334961 87.9798583984375 C 18.24622344970703 88.35491943359375 19.12794303894043 88.68152618408203 20.02069473266602 88.95946502685547 C 20.91260719299316 89.23709869384766 21.81552314758301 89.46612548828125 22.72779083251953 89.64630126953125 C 23.6391773223877 89.82627105712891 24.55989837646484 89.95748138427734 25.48833465576172 90.03965759277344 C 26.41587448120117 90.12174224853516 27.35108375549316 90.15489196777344 28.29232978820801 90.13887023925781 C 29.12038040161133 90.12478637695312 29.9433479309082 90.07245635986328 30.75983619689941 89.98222351074219 C 31.57563209533691 89.89204406738281 32.38497161865234 89.76404571533203 33.18648147583008 89.59856414794922 C 33.98731994628906 89.43319702148438 34.78036880493164 89.23039245605469 35.564208984375 88.990478515625 C 36.34742736816406 88.75076293945312 37.1214714050293 88.47397613525391 37.88499069213867 88.16049194335938 C 38.43966293334961 87.93275451660156 38.98612594604492 87.68680572509766 39.52390670776367 87.4229736328125 C 40.06141662597656 87.15924835205078 40.59025192260742 86.87767791748047 41.10994720458984 86.57855224609375 C 41.62937545776367 86.27958679199219 42.13966751098633 85.96309661865234 42.64034652709961 85.62936401367188 C 43.14076614379883 85.29581451416016 43.63161849975586 84.94507598876953 44.11240005493164 84.57743072509766 C 44.65485000610352 85.57402801513672 45.25033950805664 86.53177642822266 45.89524841308594 87.44635772705078 C 46.53973007202148 88.36029815673828 47.23349380493164 89.23105621337891 47.97289276123047 90.05429840087891 C 48.71170806884766 90.87691497802734 49.49602890014648 91.65202331542969 50.32219696044922 92.37533569335938 C 51.14764404296875 93.0980224609375 52.01482391357422 93.76897430419922 52.92007827758789 94.3839111328125 C 54.01576614379883 95.12821960449219 55.15423583984375 95.78057861328125 56.32675170898438 96.33859252929688 C 57.49783325195312 96.89588928222656 58.70279312133789 97.35904693603516 59.93296813964844 97.72560119628906 C 61.16154098510742 98.09169006347656 62.41520690917969 98.36144256591797 63.68533706665039 98.53248596191406 C 64.95376586914062 98.70331573486328 66.23857879638672 98.77571105957031 67.53124237060547 98.74734497070312 C 68.55986785888672 98.72477722167969 69.57694244384766 98.64057159423828 70.58080291748047 98.49530792236328 C 71.58360290527344 98.35019683837891 72.57323455810547 98.14413452148438 73.54804992675781 97.877685546875 C 74.52185821533203 97.61154174804688 75.48089599609375 97.28511047363281 76.42352294921875 96.89898681640625 C 77.36520385742188 96.51323699951172 78.29052734375 96.06788635253906 79.19788360595703 95.56346130371094 C 79.88962554931641 95.17887878417969 80.56696319580078 94.76013946533203 81.22721862792969 94.30964660644531 C 81.88701629638672 93.8594970703125 82.52976989746094 93.37763214111328 83.15282440185547 92.86646270751953 C 83.77546691894531 92.35566711425781 84.37847900390625 91.81560516357422 84.95919799804688 91.24871063232422 C 85.53954315185547 90.68215942382812 86.09766387939453 90.08875274658203 86.63089752197266 89.47095489501953 C 87.17246246337891 90.17527008056641 87.74488830566406 90.84984588623047 88.34517669677734 91.49182891845703 C 88.94508361816406 92.13339996337891 89.57278442382812 92.74240112304688 90.22530364990234 93.31601715087891 C 90.87737274169922 93.88922882080078 91.55419158935547 94.42710876464844 92.25279235839844 94.92683410644531 C 92.95087432861328 95.42619323730469 93.67066955566406 95.88743591308594 94.40923309326172 96.30778503417969 C 94.87014770507812 96.57012939453125 95.33811950683594 96.81661224365234 95.81232452392578 97.04691314697266 C 96.28626251220703 97.27708435058594 96.76641082763672 97.49110412597656 97.25189971923828 97.68859100341797 C 97.73712921142578 97.885986328125 98.22769165039062 98.06687164306641 98.72272491455078 98.23094940185547 C 99.21749877929688 98.39495086669922 99.71672058105469 98.54210662841797 100.2195587158203 98.67213439941406 C 100.7371673583984 98.80597686767578 101.2590179443359 98.9217529296875 101.7841186523438 99.01930236816406 C 102.3089447021484 99.11682891845703 102.8370513916016 99.19619750976562 103.3675003051758 99.25730133056641 C 103.8976364135742 99.31838989257812 104.4301223754883 99.36122894287109 104.963996887207 99.38574981689453 C 105.4975814819336 99.41025543212891 106.0325622558594 99.41645050048828 106.5680465698242 99.40425872802734 Z M 90.037841796875 8.12691593170166 C 93.13760375976562 8.2088623046875 96.08330535888672 8.978551864624023 98.75577545166016 10.29672718048096 C 101.4205780029297 11.61111545562744 103.8152847290039 13.47160720825195 105.8223037719727 15.74155139923096 C 107.8249740600586 18.0065746307373 109.4433059692383 20.68115997314453 110.5603103637695 23.63144493103027 C 111.6759414672852 26.57815551757812 112.2926635742188 29.80308532714844 112.2926635742188 33.17485809326172 C 112.2926635742188 34.13480377197266 112.2427444458008 35.08563995361328 112.1432571411133 36.02581787109375 C 112.0437393188477 36.96611022949219 111.8946151733398 37.89585494995117 111.6962356567383 38.81352233886719 C 111.4978103637695 39.73139190673828 111.2500534057617 40.63727951049805 110.9532852172852 41.52965927124023 C 110.6564254760742 42.42231750488281 110.3104858398438 43.30155181884766 109.915771484375 44.16579437255859 C 109.8540267944336 44.30095672607422 109.8073654174805 44.44230651855469 109.7757797241211 44.58685684204102 C 109.7442016601562 44.73141860961914 109.7277145385742 44.87919616699219 109.7263565063477 45.0272331237793 C 109.7250061035156 45.17527770996094 109.73876953125 45.32360076904297 109.767692565918 45.46923446655273 C 109.7966156005859 45.61488342285156 109.8406753540039 45.75785064697266 109.89990234375 45.89522171020508 C 109.9591369628906 46.03255462646484 110.0318603515625 46.16038513183594 110.115966796875 46.27685928344727 C 110.200080871582 46.39330673217773 110.2956008911133 46.49843597412109 110.4004364013672 46.59037017822266 C 110.505241394043 46.68230056762695 110.6193771362305 46.76105880737305 110.7407302856445 46.82482528686523 C 110.8620681762695 46.88858413696289 110.9906234741211 46.93735885620117 111.1243438720703 46.96932220458984 C 113.6518325805664 47.57335662841797 115.9998474121094 48.65541839599609 118.0988159179688 50.11612701416016 C 120.1929931640625 51.57351684570312 122.040397644043 53.40861892700195 123.5720062255859 55.52371215820312 C 125.1010894775391 57.63527679443359 126.3164596557617 60.02730560302734 127.1492309570312 62.60366821289062 C 127.9812316894531 65.17765808105469 128.4319915771484 67.93776702880859 128.4319915771484 70.78911590576172 C 128.4319915771484 74.13132476806641 127.8260345458984 77.32437133789062 126.7299041748047 80.23871612548828 C 125.6324462890625 83.15657806396484 124.0424041748047 85.79815673828125 122.0748062133789 88.03147125244141 C 120.1029586791992 90.26959991455078 117.7502822875977 92.09955596923828 115.13232421875 93.38660430908203 C 112.5068740844727 94.67731475830078 109.6130981445312 95.42276000976562 106.5680465698242 95.48560333251953 C 104.7571411132812 95.52299499511719 102.970458984375 95.3126220703125 101.2428359985352 94.87319946289062 C 99.51199340820312 94.43294525146484 97.84065246582031 93.76283264160156 96.26404571533203 92.88180541992188 C 94.68475341796875 91.99929046630859 93.20083618164062 90.90529632568359 91.84781646728516 89.619140625 C 90.49282836914062 88.33110809326172 89.26950836181641 86.85071563720703 88.21356201171875 85.19760131835938 C 88.13259124755859 85.07083892822266 88.03903961181641 84.95658111572266 87.93539428710938 84.85628509521484 C 87.83175659179688 84.7559814453125 87.718017578125 84.66961669921875 87.59664916992188 84.59867858886719 C 87.47527313232422 84.52774810791016 87.34626007080078 84.47220611572266 87.21208190917969 84.43354034423828 C 87.07789611816406 84.39487457275391 86.93855285644531 84.37306976318359 86.79649353027344 84.36957550048828 C 86.79112243652344 84.36945343017578 86.78575134277344 84.36934661865234 86.7803955078125 84.36927795410156 C 86.77503967285156 84.36917877197266 86.76967620849609 84.36911773681641 86.76432800292969 84.36911010742188 C 86.75897216796875 84.36907958984375 86.75361633300781 84.36907958984375 86.74826049804688 84.36911773681641 C 86.74290466308594 84.36912536621094 86.73754119873047 84.36917114257812 86.73219299316406 84.36923980712891 C 86.59597778320312 84.37122344970703 86.46145629882812 84.39005279541016 86.33094024658203 84.42459869384766 C 86.20040893554688 84.45913696289062 86.07386016845703 84.50939178466797 85.95361328125 84.57417297363281 C 85.83335113525391 84.63895416259766 85.71937561035156 84.71827697753906 85.61398315429688 84.81094360351562 C 85.50857543945312 84.90363311767578 85.41173553466797 85.00965118408203 85.32576751708984 85.12786865234375 C 84.24304962158203 86.61685180664062 83.02774810791016 87.95259094238281 81.70517730712891 89.12107849121094 C 80.3807373046875 90.29119110107422 78.94843292236328 91.29385375976562 77.4337158203125 92.11476135253906 C 75.91655731201172 92.93699645996094 74.31646728515625 93.57701873779297 72.65912628173828 94.02032470703125 C 70.99884796142578 94.46442413330078 69.28091430664062 94.71115112304688 67.53124237060547 94.74583435058594 C 65.31221771240234 94.78983306884766 63.13078689575195 94.47937774658203 61.04546356201172 93.85220336914062 C 58.95553207397461 93.22365570068359 56.96258163452148 92.27711486816406 55.12585067749023 91.05086517333984 C 53.28555679321289 89.82222747802734 51.60270690917969 88.31321716308594 50.13706970214844 86.56283569335938 C 48.66916275024414 84.80972290039062 47.41981887817383 82.81531524658203 46.44902420043945 80.61944580078125 C 46.38682174682617 80.47874450683594 46.31024932861328 80.34791564941406 46.22148132324219 80.22880554199219 C 46.13270950317383 80.10969543457031 46.0317268371582 80.00231170654297 45.92073822021484 79.90850067138672 C 45.80972290039062 79.81465148925781 45.68868637084961 79.73439025878906 45.55981826782227 79.6695556640625 C 45.43092727661133 79.60469055175781 45.29416656494141 79.55525207519531 45.15174102783203 79.52308654785156 C 45.11797714233398 79.51544952392578 45.08407974243164 79.50883483886719 45.05014419555664 79.50325775146484 C 45.01620483398438 79.49765777587891 44.98220825195312 79.49307250976562 44.94817352294922 79.48949432373047 C 44.91415405273438 79.48588562011719 44.88010787963867 79.48332214355469 44.84609985351562 79.48174285888672 C 44.81208419799805 79.48016357421875 44.77807235717773 79.47956848144531 44.74411010742188 79.47994995117188 C 44.6348876953125 79.48121643066406 44.52621841430664 79.49265289306641 44.41928482055664 79.51393890380859 C 44.31233978271484 79.53521728515625 44.20712280273438 79.56636047363281 44.10486221313477 79.60701751708984 C 44.00257873535156 79.64767456054688 43.90324783325195 79.69786071777344 43.80805587768555 79.75724029541016 C 43.71287536621094 79.81663513183594 43.62186050415039 79.88523864746094 43.53617858886719 79.96267700195312 C 42.47607040405273 80.92116546630859 41.34383010864258 81.77529907226562 40.15471649169922 82.518798828125 C 38.9641227722168 83.26322937011719 37.71636962890625 83.89682006835938 36.42679595947266 84.4132080078125 C 35.13550567626953 84.93029022216797 33.80217361450195 85.32988739013672 32.44229888916016 85.60549926757812 C 31.08047676086426 85.88151550292969 29.69195938110352 86.03323364257812 28.29232978820801 86.05408477783203 C 24.97232818603516 86.10356903076172 21.79638290405273 85.431396484375 18.89715385437012 84.17122650146484 C 15.98922061920166 82.90725708007812 13.36137294769287 81.05247497558594 11.14816284179688 78.74330902099609 C 8.929926872253418 76.42884826660156 7.130157947540283 73.65990447998047 5.884114742279053 70.575927734375 C 4.636505603790283 67.48800659179688 3.945484161376953 64.08776092529297 3.945484161376953 60.51752853393555 C 3.945484161376953 57.12962341308594 4.575682640075684 53.88128662109375 5.721029281616211 50.90321731567383 C 6.865062713623047 47.92863845825195 8.521841049194336 45.22682189941406 10.57552814483643 42.9260139465332 C 12.62489891052246 40.63007736206055 15.06781578063965 38.73536682128906 17.78889846801758 37.36758804321289 C 20.50238418579102 36.00365447998047 23.49090766906738 35.16448974609375 26.64055061340332 34.97338485717773 C 26.7780647277832 34.96503829956055 26.91289710998535 34.94111251831055 27.04303741455078 34.9027099609375 C 27.17317199707031 34.86431884765625 27.29862022399902 34.81145095825195 27.41738128662109 34.7452507019043 C 27.53610992431641 34.67905044555664 27.64814186096191 34.59952163696289 27.75148963928223 34.50777053833008 C 27.85481452941895 34.41604232788086 27.94946479797363 34.31209945678711 28.03338623046875 34.19706344604492 C 28.11729621887207 34.08203125 28.18849754333496 33.95867538452148 28.2464427947998 33.82935333251953 C 28.30440139770508 33.70002746582031 28.34911918640137 33.56472778320312 28.38007354736328 33.42580795288086 C 28.41101264953613 33.28688430786133 28.42820930480957 33.14433670043945 28.43111419677734 33.00051498413086 C 28.43403053283691 32.85668182373047 28.42265129089355 32.71157836914062 28.39644241333008 32.56754684448242 C 28.32838821411133 32.19314575195312 28.26871109008789 31.81881523132324 28.21746635437012 31.44521713256836 C 28.16624641418457 31.07158851623535 28.12345504760742 30.69869232177734 28.08917427062988 30.32718276977539 C 28.05488967895508 29.95565795898438 28.02911567687988 29.58552551269531 28.01189422607422 29.21743965148926 C 27.99468994140625 28.8493595123291 27.9860725402832 28.48332595825195 27.9860725402832 28.11999893188477 C 27.9860725402832 24.92014694213867 28.59776878356934 21.88072776794434 29.70231056213379 19.1274299621582 C 30.80560493469238 16.3773021697998 32.39946746826172 13.91545677185059 34.36434173583984 11.86529350280762 C 36.32518005371094 9.819304466247559 38.65402603149414 8.184906005859375 41.23184204101562 7.083024024963379 C 43.80272674560547 5.984106540679932 46.61991119384766 5.415420532226562 49.56591415405273 5.495720863342285 C 51.54192352294922 5.549574851989746 53.47102355957031 5.894186496734619 55.30970764160156 6.499056816101074 C 57.14483642578125 7.102757930755615 58.89022445678711 7.96581506729126 60.5028190612793 9.058147430419922 C 62.1126823425293 10.14862155914307 63.59063720703125 11.4678840637207 64.89396667480469 12.98633098602295 C 66.19549560546875 14.50268459320068 67.3233642578125 16.2182445526123 68.23500823974609 18.10393524169922 C 68.31018829345703 18.25943374633789 68.40245056152344 18.40186882019043 68.50855255126953 18.5289192199707 C 68.61465454101562 18.65595054626465 68.73458099365234 18.76758766174316 68.86509704589844 18.86149978637695 C 68.99561309814453 18.95540046691895 69.13669586181641 19.03158760070801 69.28514862060547 19.08772850036621 C 69.43357849121094 19.14385223388672 69.58934020996094 19.1799373626709 69.74922943115234 19.19366264343262 C 69.75849151611328 19.19445037841797 69.76776123046875 19.1951732635498 69.77703094482422 19.1958179473877 C 69.78628540039062 19.19646263122559 69.79554748535156 19.19703102111816 69.80480194091797 19.19751739501953 C 69.81404876708984 19.1980037689209 69.82328796386719 19.19841766357422 69.83251953125 19.19875907897949 C 69.84177398681641 19.19909858703613 69.85099792480469 19.19936370849609 69.86020660400391 19.19954299926758 C 70.00989532470703 19.20259094238281 70.15739440917969 19.18571472167969 70.29981994628906 19.1504020690918 C 70.44224548339844 19.11507987976074 70.57958984375 19.06133651733398 70.70899963378906 18.99061393737793 C 70.83837127685547 18.91990661621094 70.95980834960938 18.83222579956055 71.07042694091797 18.72904014587402 C 71.18102264404297 18.62586402893066 71.28079986572266 18.5071907043457 71.36687469482422 18.37446784973145 C 72.44235992431641 16.71627807617188 73.68778228759766 15.2330322265625 75.06683349609375 13.94430923461914 C 76.44386291503906 12.65747547149658 77.95371246337891 11.56496047973633 79.56024932861328 10.68594264984131 C 81.16404724121094 9.808430671691895 82.86387634277344 9.143876075744629 84.6239013671875 8.711124420166016 C 86.380615234375 8.279194831848145 88.19708251953125 8.078255653381348 90.037841796875 8.12691593170166 Z" stroke="none" fill="#737373"/>
  </g>
  <path id="사각형_118" data-name="사각형 118" d="M3.55,12.356h0a3.287,3.287,0,0,0,1.378-.306,3.55,3.55,0,0,0,1.124-.827A3.9,3.9,0,0,0,6.809,10a4.14,4.14,0,0,0,.277-1.5V3.881a4.145,4.145,0,0,0-.277-1.5,3.912,3.912,0,0,0-.757-1.227A3.563,3.563,0,0,0,4.928.325,3.292,3.292,0,0,0,3.55.016h0a3.28,3.28,0,0,0-1.38.3,3.535,3.535,0,0,0-1.129.823A3.884,3.884,0,0,0,.279,2.361,4.134,4.134,0,0,0,0,3.864V8.5A4.139,4.139,0,0,0,.279,10a3.9,3.9,0,0,0,.762,1.227,3.548,3.548,0,0,0,1.129.825A3.286,3.286,0,0,0,3.55,12.356Z" transform="translate(68.242 48.808)" fill="#040506"/>
  <path id="사각형_119" data-name="사각형 119" d="M6.413,22.617h0A5.858,5.858,0,0,0,8.9,22.059a6.392,6.392,0,0,0,2.024-1.509,7.122,7.122,0,0,0,1.362-2.234,7.644,7.644,0,0,0,.5-2.733V7.156a7.679,7.679,0,0,0-.5-2.738,7.2,7.2,0,0,0-1.362-2.246A6.472,6.472,0,0,0,8.9.646,5.891,5.891,0,0,0,6.413.067h0A5.837,5.837,0,0,0,3.922.6,6.341,6.341,0,0,0,1.883,2.089,7.072,7.072,0,0,0,.506,4.323,7.624,7.624,0,0,0,0,7.071v8.485a7.659,7.659,0,0,0,.506,2.753,7.154,7.154,0,0,0,1.377,2.246,6.42,6.42,0,0,0,2.039,1.511A5.868,5.868,0,0,0,6.413,22.617Z" transform="translate(89.677 37.915)" fill="#040506"/>
  <path id="타원_62" data-name="타원 62" d="M3.453.014A2.141,2.141,0,0,0,2.111.535a4.476,4.476,0,0,0-1.1,1.413A8.5,8.5,0,0,0,.272,4.041,11.859,11.859,0,0,0,0,6.6,11.8,11.8,0,0,0,.272,9.158a8.384,8.384,0,0,0,.741,2.082,4.38,4.38,0,0,0,1.1,1.4,2.11,2.11,0,0,0,1.343.5,2.151,2.151,0,0,0,1.341-.53,4.5,4.5,0,0,0,1.093-1.416A8.526,8.526,0,0,0,6.624,9.1a11.864,11.864,0,0,0,.27-2.552A11.807,11.807,0,0,0,6.624,4a8.406,8.406,0,0,0-.737-2.078A4.406,4.406,0,0,0,4.794.524,2.12,2.12,0,0,0,3.453.014Z" transform="translate(78.892 64.864)" fill="#cd6454"/>
  <g id="그룹_410" data-name="그룹 410" transform="translate(76.799 27.323)">
    <path id="사각형_120" data-name="사각형 120" d="M5.173,3.083h0A6.089,6.089,0,0,0,3.379,4.736,6.841,6.841,0,0,0,2.325,6.944a7.2,7.2,0,0,0-.233,2.479,6.936,6.936,0,0,0,.666,2.463l10.589,21.9a6.107,6.107,0,0,0,1.46,1.942,5.427,5.427,0,0,0,1.956,1.108,5.157,5.157,0,0,0,2.2.2,5.423,5.423,0,0,0,2.188-.789h0a6.15,6.15,0,0,0,1.76-1.667,6.918,6.918,0,0,0,1.03-2.2,7.219,7.219,0,0,0,.228-2.453,6.869,6.869,0,0,0-.65-2.428L13.044,5.682a6.258,6.258,0,0,0-1.463-1.967A5.59,5.59,0,0,0,9.614,2.568a5.263,5.263,0,0,0-2.22-.24A5.439,5.439,0,0,0,5.173,3.083Z" transform="translate(25.977 42.57)" fill="#0f4440"/>
    <path id="사각형_121" data-name="사각형 121" d="M2.495,1.477h0a2.918,2.918,0,0,0-.866.793,3.274,3.274,0,0,0-.508,1.061,3.456,3.456,0,0,0-.113,1.193,3.353,3.353,0,0,0,.321,1.188L4.45,12.182a3.021,3.021,0,0,0,.71.95,2.7,2.7,0,0,0,.952.551,2.541,2.541,0,0,0,1.071.113,2.621,2.621,0,0,0,1.068-.365h0a2.927,2.927,0,0,0,.86-.795,3.285,3.285,0,0,0,.5-1.059,3.459,3.459,0,0,0,.111-1.188,3.343,3.343,0,0,0-.318-1.182L6.3,2.749A3.043,3.043,0,0,0,5.6,1.8a2.725,2.725,0,0,0-.953-.557,2.557,2.557,0,0,0-1.074-.12A2.623,2.623,0,0,0,2.495,1.477Z" transform="translate(24.87 36.315)" fill="#bababa"/>
    <path id="사각형_122" data-name="사각형 122" d="M3.916,1.853l-.782.464a3.666,3.666,0,0,0-1.088,1,4.112,4.112,0,0,0-.639,1.333,4.339,4.339,0,0,0-.141,1.5,4.207,4.207,0,0,0,.4,1.492h0a3.815,3.815,0,0,0,.9,1.2,3.416,3.416,0,0,0,1.2.7,3.209,3.209,0,0,0,1.35.145,3.3,3.3,0,0,0,1.345-.456l.779-.466a3.665,3.665,0,0,0,1.082-1,4.112,4.112,0,0,0,.634-1.329,4.339,4.339,0,0,0,.14-1.492,4.209,4.209,0,0,0-.4-1.487h0a3.818,3.818,0,0,0-.889-1.2,3.417,3.417,0,0,0-1.195-.7A3.206,3.206,0,0,0,5.262,1.4,3.29,3.29,0,0,0,3.916,1.853Z" transform="translate(23.839 35.708)" fill="#009289"/>
    <path id="타원_63" data-name="타원 63" d="M17.809.266A16.122,16.122,0,0,0,10.918,1.7,17.535,17.535,0,0,0,5.252,5.815a19.563,19.563,0,0,0-3.84,6.193,21.374,21.374,0,0,0,0,15.279,19.8,19.8,0,0,0,3.84,6.227,17.758,17.758,0,0,0,5.666,4.168,16.185,16.185,0,0,0,13.733-.071,17.611,17.611,0,0,0,5.549-4.17A19.619,19.619,0,0,0,33.922,27.3a21.379,21.379,0,0,0,0-15.014A19.852,19.852,0,0,0,30.2,6.112a17.837,17.837,0,0,0-5.549-4.22A16.25,16.25,0,0,0,17.809.266Z" transform="translate(1.823 2.018)" fill="#d9eafa" opacity="0.31"/>
    <g id="타원_64" data-name="타원 64" transform="translate(0 0)" fill="none" stroke-miterlimit="10">
      <path d="M19.632,2.285A16.122,16.122,0,0,0,12.74,3.716,17.535,17.535,0,0,0,7.074,7.833a19.563,19.563,0,0,0-3.84,6.193,21.374,21.374,0,0,0,0,15.279,19.8,19.8,0,0,0,3.84,6.227A17.757,17.757,0,0,0,12.74,39.7a16.185,16.185,0,0,0,13.733-.071,17.611,17.611,0,0,0,5.549-4.17,19.619,19.619,0,0,0,3.723-6.141,21.379,21.379,0,0,0,0-15.014A19.851,19.851,0,0,0,32.022,8.13a17.837,17.837,0,0,0-5.549-4.22A16.25,16.25,0,0,0,19.632,2.285Z" stroke="none"/>
      <path d="M 19.6320629119873 43.16386795043945 C 20.28727531433105 43.15924453735352 20.93719482421875 43.11925506591797 21.58072090148926 43.0442008972168 C 22.22380447387695 42.96919250488281 22.86051177978516 42.85916900634766 23.48976135253906 42.71441268920898 C 24.11858558654785 42.56975936889648 24.73997116088867 42.39041137695312 25.35283279418945 42.17666244506836 C 25.96528816223145 41.96305084228516 26.56924438476562 41.71508407592773 27.16362190246582 41.43303680419922 C 27.73714256286621 41.160888671875 28.29568099975586 40.86004257202148 28.83837890625 40.53119659423828 C 29.38075828552246 40.20254516601562 29.90733528137207 39.84591674804688 30.41723442077637 39.46198654174805 C 30.92685127258301 39.07826995849609 31.41983795166016 38.66727447509766 31.89533233642578 38.22968673706055 C 32.37057113647461 37.79231262207031 32.82835388183594 37.32835388183594 33.26781845092773 36.83848571777344 C 33.70706939697266 36.34885406494141 34.12254333496094 35.83943176269531 34.51367568969727 35.31120300292969 C 34.90464019775391 34.783203125 35.27130508422852 34.23637771606445 35.61309432983398 33.67171478271484 C 35.95476150512695 33.10726165771484 36.27159118652344 32.52495193481445 36.56302261352539 31.92574691772461 C 36.85435485839844 31.32673835754395 37.12031936645508 30.71081733703613 37.36033248901367 30.07895278930664 C 37.60885620117188 29.42469596862793 37.82669448852539 28.76047897338867 38.01365280151367 28.08748245239258 C 38.2005729675293 27.41462516784668 38.35664367675781 26.73294448852539 38.48165130615234 26.04361724853516 C 38.60664367675781 25.35437965393066 38.70059204101562 24.65744972229004 38.76329803466797 23.95399856567383 C 38.82599258422852 23.25059127807617 38.85744857788086 22.54061698913574 38.85744857788086 21.82524299621582 C 38.85744857788086 21.10986709594727 38.82599258422852 20.39961051940918 38.76329803466797 19.69564247131348 C 38.70059204101562 18.99162864685059 38.60664367675781 18.29385757446289 38.48165130615234 17.60350227355957 C 38.35664367675781 16.91305351257324 38.2005729675293 16.22997665405273 38.01365280151367 15.55544281005859 C 37.82669448852539 14.88077545166016 37.60885620117188 14.21461009979248 37.36033248901367 13.55812644958496 C 37.12031936645508 12.92411327362061 36.85435485839844 12.30581188201904 36.56302261352539 11.70419216156006 C 36.27159118652344 11.10238170623779 35.95476150512695 10.51723194122314 35.61309432983398 9.949718475341797 C 35.27130508422852 9.38199520111084 34.90464019775391 8.831891059875488 34.51367568969727 8.300387382507324 C 34.12254333496094 7.76865816116333 33.70706939697266 7.255517959594727 33.26781845092773 6.761951923370361 C 32.82835388183594 6.268149852752686 32.37057113647461 5.80009651184082 31.89533233642578 5.358474731445312 C 31.41983795166016 4.916623115539551 30.92685127258301 4.501214027404785 30.41723442077637 4.112935066223145 C 29.90733528137207 3.724441528320312 29.38075828552246 3.363093137741089 28.83837890625 3.029585123062134 C 28.29568099975586 2.695880651473999 27.73714256286621 2.390037536621094 27.16362190246582 2.112753868103027 C 26.56924438476562 1.825385212898254 25.96528816223145 1.572009682655334 25.35283279418945 1.352918982505798 C 24.73997116088867 1.133683323860168 24.11858558654785 0.9487736821174622 23.48976135253906 0.7984853982925415 C 22.86051177978516 0.6480950713157654 22.22380447387695 0.5323706865310669 21.58072090148926 0.4516101479530334 C 20.93719482421875 0.3707933127880096 20.28727531433105 0.3249877095222473 19.6320629119873 0.3144934475421906 C 18.97638702392578 0.3039915859699249 18.32509422302246 0.3290058374404907 17.6793041229248 0.389344722032547 C 17.03306579589844 0.4497258067131042 16.39234352111816 0.5454798936843872 15.75826549530029 0.6764140725135803 C 15.12375164031982 0.8074373602867126 14.49589347839355 0.9736866354942322 13.87582015991211 1.174965977668762 C 13.25533294677734 1.376379489898682 12.64264678955078 1.612866640090942 12.038893699646 1.884228348731995 C 11.45559120178223 2.146399259567261 10.88682174682617 2.438175916671753 10.33352661132812 2.758918285369873 C 9.779899597167969 3.079851388931274 9.241781234741211 3.429773569107056 8.720109939575195 3.808039426803589 C 8.198146820068359 4.186517715454102 7.69266939163208 4.593357086181641 7.204613208770752 5.027908802032471 C 6.716305255889893 5.462687969207764 6.245456695556641 5.925190925598145 5.793013572692871 6.4147629737854 C 5.340349197387695 6.904571533203125 4.911786079406738 7.415327072143555 4.507976531982422 7.946026802062988 C 4.103995800018311 8.476955413818359 3.724812746047974 9.027820587158203 3.371073007583618 9.597612380981445 C 3.017203092575073 10.16762065887451 2.688816070556641 10.75654220581055 2.386555194854736 11.36336231231689 C 2.084197044372559 11.97038078308105 1.807998895645142 12.59527587890625 1.558613777160645 13.23703193664551 C 1.300250768661499 13.90188980102539 1.073667168617249 14.57750701904297 0.8791175484657288 15.26262760162354 C 0.6845275163650513 15.94789028167725 0.5219941735267639 16.64261054992676 0.3917695581912994 17.34552764892578 C 0.2615269422531128 18.04854393005371 0.1636033654212952 18.75971031188965 0.0982368141412735 19.47775840759277 C 0.0328657291829586 20.19586181640625 6.835279782535508e-05 20.92079734802246 6.835279782535508e-05 21.65130233764648 C 6.835279782535508e-05 22.38180732727051 0.0328657291829586 23.10704040527344 0.0982368141412735 23.82572555541992 C 0.1636033654212952 24.54436302185059 0.2615269422531128 25.25640487670898 0.3917695581912994 25.9605827331543 C 0.5219941735267639 26.66466522216797 0.6845275163650513 27.36084365844727 0.8791175484657288 28.04784774780273 C 1.073667168617249 28.73470878601074 1.300250768661499 29.41235542297363 1.558613777160645 30.07952690124512 C 1.807998895645142 30.72351837158203 2.084197044372559 31.35088539123535 2.386555194854736 31.96060752868652 C 2.688816070556641 32.57013320922852 3.017203092575073 33.16199111938477 3.371073007583618 33.73517227172852 C 3.724812746047974 34.30812835693359 4.103995800018311 34.86238861083984 4.507976531982422 35.39693832397461 C 4.911786079406738 35.93125152587891 5.340349197387695 36.44584274291992 5.793013572692871 36.93970489501953 C 6.245456695556641 37.43332672119141 6.716305255889893 37.90005111694336 7.204613208770752 38.33919906616211 C 7.69266939163208 38.77812194824219 8.198146820068359 39.18948745727539 8.720109939575195 39.5726318359375 C 9.241781234741211 39.95556640625 9.779899597167969 40.31031036376953 10.33352661132812 40.63619613647461 C 10.88682174682617 40.96189117431641 11.45559120178223 41.25876235961914 12.038893699646 41.52615737915039 C 12.64264678955078 41.80292129516602 13.25533294677734 42.04489517211914 13.87582015991211 42.25186538696289 C 14.49589347839355 42.45869064331055 15.12375164031982 42.63056564331055 15.75826549530029 42.76727294921875 C 16.39234352111816 42.90387344360352 17.03306579589844 43.00536727905273 17.6793041229248 43.07153701782227 C 18.32509422302246 43.13766098022461 18.97638702392578 43.16850662231445 19.6320629119873 43.16386795043945 Z M 19.6320629119873 4.254666328430176 C 21.81495475769043 4.284995555877686 23.89132499694824 4.80294132232666 25.77678871154785 5.711678981781006 C 27.65841484069824 6.618568897247314 29.35067558288574 7.915031433105469 30.76996231079102 9.505548477172852 C 32.18706512451172 11.09362030029297 33.3328742980957 12.9757776260376 34.12406158447266 15.05788040161133 C 34.91457366943359 17.1381950378418 35.35168075561523 19.41970634460449 35.35168075561523 21.80954742431641 C 35.35168075561523 24.19938850402832 34.91457366943359 26.47698974609375 34.12406158447266 28.55022811889648 C 33.3328742980957 30.62524795532227 32.18706512451172 32.49714279174805 30.76996231079102 34.07253646850586 C 29.35067558288574 35.65034103393555 27.65841484069824 36.9316520690918 25.77678871154785 37.82169723510742 C 23.89132499694824 38.71355056762695 21.81495475769043 39.21290969848633 19.6320629119873 39.22369766235352 C 17.44402313232422 39.2345085144043 15.35316371917725 38.75349426269531 13.44638729095459 37.87348937988281 C 11.53569889068604 36.99168014526367 9.810619354248047 35.70959854125977 8.35889720916748 34.12139129638672 C 6.904916763305664 32.53070449829102 5.725997447967529 30.63387489318848 4.910222053527832 28.52645301818848 C 4.09373140335083 26.41719055175781 3.641647100448608 24.09861373901367 3.641647100448608 21.66760444641113 C 3.641647100448608 19.23659515380859 4.09373140335083 16.92206764221191 4.910222053527832 14.82011604309082 C 5.725997447967529 12.71999740600586 6.904916763305664 10.83371829986572 8.35889720916748 9.256051063537598 C 9.810619354248047 7.680834770202637 11.53569889068604 6.414199829101562 13.44638729095459 5.549496650695801 C 15.35316371917725 4.686563491821289 17.44402313232422 4.224264621734619 19.6320629119873 4.254666328430176 Z" stroke="none" fill="#4fa59e"/>
    </g>
    <g id="패스_498" data-name="패스 498" transform="translate(19.502 5.934)" fill="none" stroke-linecap="round" stroke-miterlimit="10" opacity="0.5">
      <path d="M.489.546A10.526,10.526,0,0,1,1.756.814,16.433,16.433,0,0,1,4.807,1.968,15.568,15.568,0,0,1,8.522,4.527,14.834,14.834,0,0,1,11.793,9.01" stroke="none"/>
      <path d="M 11.79311370849609 9.499191284179688 C 11.81058979034424 9.499341011047363 11.82813167572021 9.498324394226074 11.84564018249512 9.496113777160645 C 11.86314868927002 9.493918418884277 11.88062953948975 9.490527153015137 11.89798831939697 9.485912322998047 C 11.91534614562988 9.481297492980957 11.93258190155029 9.475459098815918 11.94960594177246 9.468366622924805 C 11.96662616729736 9.46129035949707 11.98342990875244 9.452960014343262 11.99993419647217 9.443332672119141 C 12.05366516113281 9.412010192871094 12.09906196594238 9.370038986206055 12.13513469696045 9.320962905883789 C 12.1712064743042 9.271889686584473 12.19796657562256 9.215712547302246 12.21442985534668 9.15594482421875 C 12.23089408874512 9.09619140625 12.23706912994385 9.032861709594727 12.23197746276855 8.969512939453125 C 12.22688674926758 8.906179428100586 12.21053123474121 8.842793464660645 12.18192958831787 8.782915115356445 C 11.9711742401123 8.341657638549805 11.74215984344482 7.913439273834229 11.4953727722168 7.498914241790771 C 11.24851226806641 7.08427095413208 10.98385906219482 6.683306694030762 10.70189571380615 6.296699523925781 C 10.41983985900879 5.909975051879883 10.12045001983643 5.53758716583252 9.804193496704102 5.180219650268555 C 9.487829208374023 4.822737693786621 9.154582977294922 4.480258464813232 8.804927825927734 4.153482913970947 C 8.525932312011719 3.892728090286255 8.236416816711426 3.641807079315186 7.93694543838501 3.401116132736206 C 7.637383460998535 3.160339117050171 7.32783031463623 2.929786205291748 7.008855819702148 2.709838628768921 C 6.68977165222168 2.489822864532471 6.361240386962891 2.280416250228882 6.023818016052246 2.08200216293335 C 5.686272621154785 1.883515596389771 5.339823246002197 1.696033596992493 4.98501443862915 1.519934058189392 C 4.381065845489502 1.220191836357117 3.806214332580566 0.9795150756835938 3.282294034957886 0.7869247198104858 C 2.758069753646851 0.594217836856842 2.284884452819824 0.449688047170639 1.884628534317017 0.3423280119895935 C 1.48419976234436 0.2349291443824768 1.156818866729736 0.1647490859031677 0.9243976473808289 0.1207790449261665 C 0.6919256448745728 0.07680549472570419 0.5544936656951904 0.05906414613127708 0.5340025424957275 0.05651015415787697 C 0.5301941633224487 0.05604441836476326 0.5263859033584595 0.05561625957489014 0.5225849747657776 0.0552482008934021 C 0.5187841653823853 0.05488014593720436 0.5149907469749451 0.05456467717885971 0.5112049579620361 0.05430932715535164 C 0.5074190497398376 0.05404645204544067 0.5036330819129944 0.05384368821978569 0.4998697340488434 0.05369352549314499 C 0.4960987865924835 0.05354335531592369 0.4923353791236877 0.05343826860189438 0.4885869324207306 0.05339329317212105 C 0.4319984614849091 0.05265854671597481 0.377412348985672 0.06376620382070541 0.3270229697227478 0.08481601625680923 C 0.2766232788562775 0.1058744788169861 0.2304136604070663 0.1368609517812729 0.1905513405799866 0.1758594363927841 C 0.1506948173046112 0.2148596048355103 0.1171791180968285 0.2618794143199921 0.09217683970928192 0.3149945437908173 C 0.06717389076948166 0.3681111037731171 0.05067772790789604 0.4273222982883453 0.04486830532550812 0.490710437297821 C 0.03867555409669876 0.5582552552223206 0.04519147053360939 0.6241503953933716 0.06228894740343094 0.6854790449142456 C 0.07938611507415771 0.7467991709709167 0.1070490404963493 0.8035516738891602 0.1431576311588287 0.8528058528900146 C 0.1792723536491394 0.9020732641220093 0.2238013744354248 0.943849503993988 0.2746396958827972 0.9752200841903687 C 0.3254752457141876 1.006581425666809 0.3826036751270294 1.027537822723389 0.4438903331756592 1.035190582275391 L 0.4438903331756592 1.035190582275391 C 0.448615550994873 1.035781621932983 0.5709058046340942 1.051777243614197 0.7876157760620117 1.093334436416626 C 1.00427520275116 1.13487446308136 1.315266370773315 1.20197069644928 1.697448134422302 1.304753184318542 C 2.079465389251709 1.407493591308594 2.532547950744629 1.545882344245911 3.033557415008545 1.730036616325378 C 3.534296035766602 1.914098620414734 4.082857131958008 2.143872499465942 4.65617561340332 2.429458141326904 C 5.180328845977783 2.690542697906494 5.752878189086914 3.013230085372925 6.34472131729126 3.408861398696899 C 6.936193466186523 3.804239749908447 7.546923637390137 4.272459030151367 8.147908210754395 4.824889659881592 C 8.748509407043457 5.376960754394531 9.33940601348877 6.013152599334717 9.891719818115234 6.744854927062988 C 10.44369506835938 7.476119518280029 10.95718097686768 8.302848815917969 11.4033784866333 9.236504554748535 C 11.42321014404297 9.278010368347168 11.44762706756592 9.315086364746094 11.47555637359619 9.347391128540039 C 11.50348949432373 9.379711151123047 11.53493595123291 9.407231330871582 11.56884288787842 9.42961597442627 C 11.60274410247803 9.451997756958008 11.63908767700195 9.469244956970215 11.6768217086792 9.480969429016113 C 11.71455669403076 9.492680549621582 11.75367259979248 9.498871803283691 11.79311370849609 9.499191284179688 Z" stroke="none" fill="#9fb5e0"/>
    </g>
    <g id="패스_499" data-name="패스 499" transform="translate(31.883 16.717)" fill="none" stroke-linecap="round" stroke-miterlimit="10" opacity="0.5">
      <path d="M.555.621S.592.746.644.945s.12.471.182.763A8.923,8.923,0,0,1,.974,2.6a2.077,2.077,0,0,1-.013.7" stroke="none"/>
      <path d="M 0.9614375829696655 3.780578851699829 C 1.008603930473328 3.780825614929199 1.054876804351807 3.772567987442017 1.098664164543152 3.756765127182007 C 1.142449259757996 3.740992307662964 1.183742165565491 3.717645645141602 1.22094738483429 3.687697649002075 C 1.2581547498703 3.657750606536865 1.291275262832642 3.621188640594482 1.31869912147522 3.57896900177002 C 1.346125602722168 3.536750316619873 1.367867350578308 3.488859176635742 1.38232159614563 3.436238050460815 C 1.433748841285706 3.249033451080322 1.443181872367859 3.001827239990234 1.426100969314575 2.728434562683105 C 1.409019589424133 2.455036163330078 1.365422129631042 2.155434608459473 1.310781836509705 1.863379836082458 C 1.256138205528259 1.571322560310364 1.190437793731689 1.286821007728577 1.129165649414062 1.043705940246582 C 1.06788182258606 0.8005747199058533 1.011020183563232 0.5988080501556396 0.9740675091743469 0.47226881980896 C 0.9589540958404541 0.4205175936222076 0.9368261694908142 0.3734082281589508 0.9092494249343872 0.3318504095077515 C 0.8816680312156677 0.290276437997818 0.8486298322677612 0.2542538940906525 0.8116744160652161 0.224663108587265 C 0.7747212052345276 0.1950562000274658 0.733853816986084 0.1719111651182175 0.6906347870826721 0.1560490876436234 C 0.6474061608314514 0.1402011811733246 0.6018142700195312 0.1316666901111603 0.5554105639457703 0.1313266903162003 C 0.5441329479217529 0.1312528699636459 0.5328066349029541 0.1316567063331604 0.5214577913284302 0.1325531452894211 C 0.5101125836372375 0.1334346681833267 0.4987336397171021 0.134838655591011 0.4873545169830322 0.136735275387764 C 0.4759753346443176 0.1386617720127106 0.4645959436893463 0.1410659700632095 0.4532313346862793 0.144022524356842 C 0.4418628513813019 0.1469492614269257 0.4305166900157928 0.150428369641304 0.419203907251358 0.1544150710105896 C 0.3613618612289429 0.174856960773468 0.3100651204586029 0.2073918282985687 0.2668261826038361 0.2487058341503143 C 0.2235851883888245 0.2900217473506927 0.1883998066186905 0.340116947889328 0.1628048270940781 0.3957212269306183 C 0.1372091472148895 0.4513270258903503 0.1211862936615944 0.5124111771583557 0.1162558421492577 0.5756877660751343 C 0.1113328263163567 0.6389646530151367 0.1175061762332916 0.7044323682785034 0.1362947374582291 0.7688046097755432 C 0.2020479142665863 0.9941117167472839 0.2654267549514771 1.236244678497314 0.322185218334198 1.477485299110413 C 0.378940224647522 1.71872615814209 0.4290802180767059 1.959048509597778 0.4683716595172882 2.180800914764404 C 0.5076651573181152 2.402543783187866 0.5361082553863525 2.605693578720093 0.5494677424430847 2.772542715072632 C 0.5628232955932617 2.939404726028442 0.5610960125923157 3.069972276687622 0.5400553345680237 3.146568059921265 C 0.5223307609558105 3.211053371429443 0.5172308683395386 3.276562929153442 0.5231925845146179 3.33979868888855 C 0.5291467905044556 3.403003931045532 0.5461623668670654 3.463964223861694 0.5726681351661682 3.51933741569519 C 0.5991731882095337 3.574694156646729 0.6351673007011414 3.624507904052734 0.6790677905082703 3.665467739105225 C 0.7229700088500977 3.706425666809082 0.7747883200645447 3.738544940948486 0.8329475522041321 3.758545160293579 C 0.8436360955238342 3.762224435806274 0.8543508052825928 3.765411853790283 0.865087628364563 3.768150806427002 C 0.8758168816566467 3.770889759063721 0.8865609169006348 3.773166179656982 0.8972899317741394 3.774994850158691 C 0.9080187678337097 3.776823282241821 0.9187475442886353 3.778189182281494 0.9294500350952148 3.779107332229614 C 0.940144956111908 3.780040502548218 0.9508100748062134 3.780526399612427 0.9614375829696655 3.780578851699829 Z" stroke="none" fill="#9fb5e0"/>
    </g>
  </g>
</svg>
