<svg xmlns="http://www.w3.org/2000/svg" width="307" height="206.557" viewBox="0 0 307 206.557">
  <path id="합치기_26" data-name="합치기 26" d="M86.355,180.353a52.135,52.135,0,0,1-15.625,9.376,51.744,51.744,0,0,1-9,2.528,52.215,52.215,0,0,1-30.51-99.145q-.348-1.516-.613-3.063t-.444-3.12q-.179-1.574-.27-3.173t-.091-3.221A55.849,55.849,0,0,1,85.692,24.608a56.39,56.39,0,0,1,7.085.445A55.488,55.488,0,0,1,112.219,31.3,59.685,59.685,0,0,1,179.646,1.9a59.476,59.476,0,0,1,25.27,13.745,59.957,59.957,0,0,1,9.351,10.9,45.506,45.506,0,0,1,16.542-7.487,46.2,46.2,0,0,1,6.251-.98A45.807,45.807,0,0,1,286.707,59.76a46.349,46.349,0,0,1,.151,5.59A45.585,45.585,0,0,1,283.489,81.1a66.231,66.231,0,0,1,17.146,22.2,65.542,65.542,0,0,1,4.713,13.578,66.01,66.01,0,0,1-77.868,79.337,65.578,65.578,0,0,1-23.991-10.347,66.307,66.307,0,0,1-9.85-8.381A66.286,66.286,0,0,1,170.392,198.6a65.836,65.836,0,0,1-73.759-7.434A66.369,66.369,0,0,1,86.355,180.353Z" fill="#81bbb5" opacity="0.3"/>
</svg>
