<?xml version="1.0" encoding="utf-8"?>
<!-- Generator: Adobe Illustrator 22.1.0, SVG Export Plug-In . SVG Version: 6.00 Build 0)  -->
<svg version="1.1" id="Layer_1" xmlns="http://www.w3.org/2000/svg" xmlns:xlink="http://www.w3.org/1999/xlink" x="0px" y="0px"
	 viewBox="0 0 261 273" style="enable-background:new 0 0 261 273;" xml:space="preserve">
<style type="text/css">
	.st0{fill:#426E6C;}
	.st1{fill:#5DB3AE;}
	.st2{fill:#BAD9D7;}
	.st3{fill:#F39200;}
	.st4{fill:url(#SVGID_1_);}
	.st5{fill:#00A49A;}
	.st6{fill:#FFFFFF;stroke:#F39200;stroke-width:4.0343;stroke-miterlimit:10;}
	.st7{fill:#0A5552;}
</style>
<g>
	<g>
		<polygon class="st0" points="139.3,205.7 192.7,177.9 192.7,102.4 139.3,120.2 		"/>
		<polygon class="st1" points="139.3,205.7 85.9,177.9 85.9,102.4 139.3,120.2 		"/>
		<polygon class="st2" points="139.2,120.2 85.9,102.4 139.3,88.3 192.7,102.4 		"/>
	</g>
	<g>
		<path class="st3" d="M131.7,69l0-1.8c0,0-3.6,2.1-4,5.1h0c0,0.2,0,0.4,0,0.6c0,2.2,1.8,3.9,3.9,3.9c2.2,0,3.9-1.8,3.9-3.9
			C135.5,70.8,133.8,69.1,131.7,69z"/>
		<linearGradient id="SVGID_1_" gradientUnits="userSpaceOnUse" x1="118.9358" y1="90.4485" x2="158.8365" y2="90.4485">
			<stop  offset="0" style="stop-color:#00A49A"/>
			<stop  offset="5.639684e-02" style="stop-color:#41A592"/>
			<stop  offset="0.3091" style="stop-color:#9CA66A"/>
			<stop  offset="0.5388" style="stop-color:#C8A145"/>
			<stop  offset="0.7378" style="stop-color:#E19A27"/>
			<stop  offset="0.8982" style="stop-color:#EF9505"/>
			<stop  offset="1" style="stop-color:#F39200"/>
		</linearGradient>
		<path class="st4" d="M158.1,93.7l-7.3-12c-0.1-0.1-0.1-0.2-0.2-0.3c0,0,0-0.1-0.1-0.1c-0.1-0.1-0.1-0.2-0.2-0.3
			c0,0-0.1-0.1-0.1-0.1c-0.1-0.1-0.1-0.1-0.2-0.2c-0.1-0.1-0.1-0.1-0.2-0.2c-0.1-0.1-0.1-0.1-0.2-0.2c-0.1-0.1-0.2-0.1-0.2-0.2
			c0,0-0.1-0.1-0.2-0.1c-0.1-0.1-0.1-0.1-0.2-0.2h0c0,0-0.1,0-0.1,0c0,0,0,0-0.1,0c-0.7-0.4-1.6-0.7-2.4-0.7c-0.1,0-0.2,0-0.2,0
			c-0.1,0-0.2,0-0.2,0c-0.8,0-1.6,0.3-2.4,0.7c0,0,0,0-0.1,0c0,0-0.1,0-0.1,0l0,0c-0.1,0-0.1,0.1-0.2,0.2c-0.1,0-0.1,0.1-0.2,0.1
			c-0.1,0.1-0.2,0.1-0.2,0.2c-0.1,0.1-0.1,0.1-0.2,0.2c-0.1,0.1-0.1,0.1-0.2,0.2c-0.1,0.1-0.1,0.1-0.2,0.2c0,0-0.1,0.1-0.1,0.1
			c-0.1,0.1-0.2,0.2-0.2,0.3c0,0,0,0.1-0.1,0.1c-0.1,0.1-0.1,0.2-0.2,0.3l-2.8,4.6l-2.8-4.6c-0.1-0.1-0.1-0.2-0.2-0.3
			c0,0,0-0.1-0.1-0.1c-0.1-0.1-0.1-0.2-0.2-0.3c0,0-0.1-0.1-0.1-0.1c-0.1-0.1-0.1-0.1-0.2-0.2c-0.1-0.1-0.1-0.1-0.2-0.2
			c-0.1-0.1-0.1-0.1-0.2-0.2c-0.1-0.1-0.2-0.1-0.2-0.2c0,0-0.1-0.1-0.2-0.1c-0.1-0.1-0.1-0.1-0.2-0.2h0c0,0-0.1,0-0.1,0
			c0,0,0,0-0.1,0c-0.7-0.4-1.6-0.7-2.4-0.7c-0.1,0-0.2,0-0.2,0c-0.1,0-0.2,0-0.2,0c-0.8,0-1.6,0.3-2.4,0.7c0,0,0,0-0.1,0
			c0,0-0.1,0-0.1,0l0,0c-0.1,0-0.1,0.1-0.2,0.2c-0.1,0-0.1,0.1-0.2,0.1c-0.1,0.1-0.2,0.1-0.2,0.2c-0.1,0.1-0.1,0.1-0.2,0.2
			c-0.1,0.1-0.1,0.1-0.2,0.2c-0.1,0.1-0.1,0.1-0.2,0.2c0,0-0.1,0.1-0.1,0.1c-0.1,0.1-0.2,0.2-0.2,0.3c0,0,0,0.1-0.1,0.1
			c-0.1,0.1-0.1,0.2-0.2,0.3l-7.3,12c-1.5,2.5-0.7,5.8,1.8,7.3l0,0c2.5,1.5,5.8,0.7,7.3-1.8l2.8-4.5l2.8,4.5c0.7,1.2,1.9,2,3.2,2.4
			c0,0,0.1,0,0.1,0c0.1,0,0.2,0,0.3,0.1c0.1,0,0.2,0,0.2,0c0.1,0,0.1,0,0.2,0c0.1,0,0.2,0,0.3,0c0.1,0,0.2,0,0.3,0
			c0.1,0,0.2,0,0.3,0c0.1,0,0.2,0,0.3,0c0.1,0,0.1,0,0.2,0c0.1,0,0.2,0,0.2,0c0.1,0,0.2,0,0.3-0.1c0,0,0.1,0,0.1,0
			c1.3-0.3,2.4-1.1,3.2-2.4l2.8-4.5l2.8,4.5c1.5,2.5,4.8,3.3,7.3,1.8C158.8,99.4,159.6,96.2,158.1,93.7z"/>
		<path class="st5" d="M146.1,75.2l0,1.8c0,0,3.6-2.1,4-5.1h0c0-0.2,0-0.4,0-0.6c0-2.2-1.8-3.9-3.9-3.9c-2.2,0-3.9,1.8-3.9,3.9
			C142.3,73.4,144,75.1,146.1,75.2z"/>
	</g>
	<g>
		<path class="st6" d="M176.1,145.3h-69.7c-4.9,0-8.9-4-8.9-8.9v-6.1c0-4.9,4-8.9,8.9-8.9h69.7c4.9,0,8.9,4,8.9,8.9v6.1
			C185,141.3,181,145.3,176.1,145.3z"/>
		<g>
			<path class="st7" d="M110.2,128.8v-1.9h7.6v1.1c0,1-0.1,1.9-0.4,2.7c-0.3,0.8-0.7,1.4-1.3,2c-0.6,0.5-1.4,1-2.4,1.3
				s-2.2,0.4-3.6,0.4v-1.9c0.9,0,1.8-0.1,2.4-0.3c0.7-0.2,1.3-0.4,1.7-0.7c0.5-0.3,0.8-0.7,1-1.1s0.3-0.9,0.4-1.5H110.2z
				 M117.7,133.3c0.5,0,1,0.1,1.4,0.2c0.4,0.1,0.9,0.3,1.2,0.5v-7.2h2.2v2.7h2.3v1.9h-2.3v2.8h-1.8c0.5,0.4,0.8,0.8,1.1,1.4
				c0.3,0.5,0.4,1.1,0.4,1.8c0,0.6-0.1,1.2-0.3,1.7s-0.5,0.9-0.9,1.3c-0.4,0.4-0.9,0.7-1.4,0.9c-0.5,0.2-1.1,0.3-1.8,0.3
				s-1.2-0.1-1.8-0.3s-1-0.5-1.4-0.9c-0.4-0.4-0.7-0.8-0.9-1.3s-0.3-1-0.3-1.7c0-0.6,0.1-1.1,0.3-1.6s0.5-0.9,0.9-1.3
				c0.4-0.4,0.9-0.7,1.4-0.9S117.1,133.3,117.7,133.3z M117.7,135.2c-0.3,0-0.7,0.1-0.9,0.2s-0.5,0.3-0.7,0.5
				c-0.2,0.2-0.4,0.4-0.5,0.7c-0.1,0.3-0.2,0.6-0.2,0.9c0,0.3,0.1,0.6,0.2,0.9c0.1,0.3,0.3,0.5,0.5,0.7c0.2,0.2,0.4,0.4,0.7,0.5
				c0.3,0.1,0.6,0.2,0.9,0.2c0.3,0,0.6-0.1,0.9-0.2c0.3-0.1,0.5-0.3,0.7-0.5c0.2-0.2,0.4-0.4,0.5-0.7c0.1-0.3,0.2-0.6,0.2-0.9
				c0-0.3-0.1-0.6-0.2-0.9c-0.1-0.3-0.3-0.5-0.5-0.7c-0.2-0.2-0.4-0.4-0.7-0.5S118.1,135.2,117.7,135.2z"/>
			<path class="st7" d="M130.1,133.6c-0.2,0.5-0.5,0.9-0.8,1.3s-0.7,0.7-1.1,1c-0.5,0.3-0.9,0.5-1.4,0.7c-0.5,0.2-0.9,0.3-1.4,0.4
				v-2c0.5-0.1,1-0.3,1.4-0.6c0.4-0.3,0.8-0.7,1.1-1.2c0.3-0.5,0.6-1,0.7-1.7c0.2-0.6,0.3-1.4,0.3-2.3v-2.3h2.2v2.3
				c0,0.9,0.1,1.7,0.3,2.3c0.2,0.6,0.4,1.2,0.8,1.7c0.7,1,1.5,1.5,2.6,1.8v2c-0.5-0.1-1-0.3-1.4-0.4c-0.5-0.2-0.9-0.4-1.3-0.7
				c-0.4-0.3-0.8-0.6-1.1-1S130.3,134.1,130.1,133.6z M133.9,130.4h3.2v-3.5h2.2v14h-2.2v-8.5h-3.2V130.4z"/>
			<path class="st7" d="M145.9,131.9c-0.1,0.2-0.2,0.5-0.4,0.8c-0.2,0.3-0.5,0.6-0.8,0.9c-0.3,0.3-0.7,0.5-1.1,0.7s-0.9,0.3-1.4,0.4
				v-2c0.8-0.2,1.4-0.6,2-1.3c0.5-0.7,0.8-1.7,0.8-2.9v-1.7h2.2v1.7c0,1.2,0.3,2.2,0.8,2.9c0.5,0.7,1.2,1.1,2,1.3v2
				c-0.5-0.1-1-0.2-1.4-0.4c-0.4-0.2-0.8-0.5-1.1-0.7c-0.4-0.3-0.6-0.6-0.9-0.9C146.1,132.4,146,132.1,145.9,131.9z M145.6,135.7
				v3.2h10.2v1.9h-10.7c-0.5,0-1-0.2-1.3-0.5c-0.3-0.3-0.4-0.7-0.4-1.2v-3.4H145.6z M150.5,136.3V131h-1.9v-1.9h1.9v-2.2h2.2v9.5
				H150.5z M153.5,136.3v-9.5h2.2v9.5H153.5z"/>
			<path class="st7" d="M158.5,128.7c0-0.2,0-0.5,0.1-0.7c0.1-0.2,0.2-0.4,0.3-0.6c0.1-0.2,0.3-0.3,0.5-0.4s0.4-0.1,0.6-0.1h6.6v1.9
				h-6v2.5h5.9v1.9h-5.9v2.8h6.4v1.9h-7c-0.2,0-0.4,0-0.6-0.1s-0.4-0.2-0.5-0.4s-0.3-0.4-0.3-0.6c-0.1-0.2-0.1-0.5-0.1-0.7V128.7z
				 M171.5,140.9h-2.2v-7.6h-2.2v-1.9h2.2v-4.5h2.2V140.9z"/>
		</g>
	</g>
</g>
</svg>
