<?xml version="1.0" encoding="utf-8"?>
<!-- Generator: Adobe Illustrator 22.1.0, SVG Export Plug-In . SVG Version: 6.00 Build 0)  -->
<svg version="1.1" id="Layer_1" xmlns="http://www.w3.org/2000/svg" xmlns:xlink="http://www.w3.org/1999/xlink" x="0px" y="0px"
	 viewBox="0 0 261 273" style="enable-background:new 0 0 261 273;" xml:space="preserve">
<style type="text/css">
	.st0{fill:#CBA25B;}
	.st1{fill:#FBC263;}
	.st2{fill:#FEE1B5;}
	.st3{fill:#F39200;}
	.st4{fill:url(#SVGID_1_);}
	.st5{fill:#00A49A;}
	.st6{fill:#FFFFFF;stroke:#00A19A;stroke-width:2.9852;stroke-miterlimit:10;}
	.st7{fill:#0A5552;}
</style>
<polygon class="st0" points="138.9,213.8 192.3,186 192.3,110.5 138.9,128.3 "/>
<polygon class="st1" points="138.9,213.8 85.6,186 85.6,110.5 138.9,128.3 "/>
<polygon class="st2" points="138.9,128.3 85.6,110.5 139,96.4 192.3,110.5 "/>
<g>
	<path class="st3" d="M131.3,77.1l0-1.8c0,0-3.6,2.1-4,5.1h0c0,0.2,0,0.4,0,0.6c0,2.2,1.8,3.9,3.9,3.9c2.2,0,3.9-1.8,3.9-3.9
		C135.1,78.9,133.4,77.2,131.3,77.1z"/>
	<linearGradient id="SVGID_1_" gradientUnits="userSpaceOnUse" x1="118.6023" y1="98.5394" x2="158.503" y2="98.5394">
		<stop  offset="0" style="stop-color:#00A49A"/>
		<stop  offset="5.639684e-02" style="stop-color:#41A592"/>
		<stop  offset="0.3091" style="stop-color:#9CA66A"/>
		<stop  offset="0.5388" style="stop-color:#C8A145"/>
		<stop  offset="0.7378" style="stop-color:#E19A27"/>
		<stop  offset="0.8982" style="stop-color:#EF9505"/>
		<stop  offset="1" style="stop-color:#F39200"/>
	</linearGradient>
	<path class="st4" d="M157.7,101.8l-7.3-12c-0.1-0.1-0.1-0.2-0.2-0.3c0,0,0-0.1-0.1-0.1c-0.1-0.1-0.1-0.2-0.2-0.3
		c0,0-0.1-0.1-0.1-0.1c-0.1-0.1-0.1-0.1-0.2-0.2c-0.1-0.1-0.1-0.1-0.2-0.2c-0.1-0.1-0.1-0.1-0.2-0.2c-0.1-0.1-0.2-0.1-0.2-0.2
		c0,0-0.1-0.1-0.2-0.1c-0.1-0.1-0.1-0.1-0.2-0.2h0c0,0-0.1,0-0.1,0c0,0,0,0-0.1,0c-0.7-0.4-1.6-0.7-2.4-0.7c-0.1,0-0.2,0-0.2,0
		c-0.1,0-0.2,0-0.2,0c-0.8,0-1.6,0.3-2.4,0.7c0,0,0,0-0.1,0c0,0-0.1,0-0.1,0l0,0c-0.1,0-0.1,0.1-0.2,0.2c-0.1,0-0.1,0.1-0.2,0.1
		c-0.1,0.1-0.2,0.1-0.2,0.2c-0.1,0.1-0.1,0.1-0.2,0.2c-0.1,0.1-0.1,0.1-0.2,0.2c-0.1,0.1-0.1,0.1-0.2,0.2c0,0-0.1,0.1-0.1,0.1
		c-0.1,0.1-0.2,0.2-0.2,0.3c0,0,0,0.1-0.1,0.1c-0.1,0.1-0.1,0.2-0.2,0.3l-2.8,4.6l-2.8-4.6c-0.1-0.1-0.1-0.2-0.2-0.3
		c0,0,0-0.1-0.1-0.1c-0.1-0.1-0.1-0.2-0.2-0.3c0,0-0.1-0.1-0.1-0.1c-0.1-0.1-0.1-0.1-0.2-0.2c-0.1-0.1-0.1-0.1-0.2-0.2
		c-0.1-0.1-0.1-0.1-0.2-0.2c-0.1-0.1-0.2-0.1-0.2-0.2c0,0-0.1-0.1-0.2-0.1c-0.1-0.1-0.1-0.1-0.2-0.2h0c0,0-0.1,0-0.1,0
		c0,0,0,0-0.1,0c-0.7-0.4-1.6-0.7-2.4-0.7c-0.1,0-0.2,0-0.2,0c-0.1,0-0.2,0-0.2,0c-0.8,0-1.6,0.3-2.4,0.7c0,0,0,0-0.1,0
		c0,0-0.1,0-0.1,0l0,0c-0.1,0-0.1,0.1-0.2,0.2c-0.1,0-0.1,0.1-0.2,0.1c-0.1,0.1-0.2,0.1-0.2,0.2c-0.1,0.1-0.1,0.1-0.2,0.2
		c-0.1,0.1-0.1,0.1-0.2,0.2c-0.1,0.1-0.1,0.1-0.2,0.2c0,0-0.1,0.1-0.1,0.1c-0.1,0.1-0.2,0.2-0.2,0.3c0,0,0,0.1-0.1,0.1
		c-0.1,0.1-0.1,0.2-0.2,0.3l-7.3,12c-1.5,2.5-0.7,5.8,1.8,7.3l0,0c2.5,1.5,5.8,0.7,7.3-1.8l2.8-4.5l2.8,4.5c0.7,1.2,1.9,2,3.2,2.4
		c0,0,0.1,0,0.1,0c0.1,0,0.2,0,0.3,0.1c0.1,0,0.2,0,0.2,0c0.1,0,0.1,0,0.2,0c0.1,0,0.2,0,0.3,0c0.1,0,0.2,0,0.3,0c0.1,0,0.2,0,0.3,0
		c0.1,0,0.2,0,0.3,0c0.1,0,0.1,0,0.2,0c0.1,0,0.2,0,0.2,0c0.1,0,0.2,0,0.3-0.1c0,0,0.1,0,0.1,0c1.3-0.3,2.4-1.1,3.2-2.4l2.8-4.5
		l2.8,4.5c1.5,2.5,4.8,3.3,7.3,1.8C158.5,107.5,159.3,104.2,157.7,101.8z"/>
	<path class="st5" d="M145.8,83.2l0,1.8c0,0,3.6-2.1,4-5.1h0c0-0.2,0-0.4,0-0.6c0-2.2-1.8-3.9-3.9-3.9c-2.2,0-3.9,1.8-3.9,3.9
		C142,81.5,143.7,83.2,145.8,83.2z"/>
</g>
<g>
	<path class="st6" d="M175.8,153.4h-69.7c-4.9,0-8.9-4-8.9-8.9v-6.1c0-4.9,4-8.9,8.9-8.9h69.7c4.9,0,8.9,4,8.9,8.9v6.1
		C184.7,149.4,180.7,153.4,175.8,153.4z"/>
	<g>
		<path class="st7" d="M109.8,136.9V135h7.6v1.1c0,1-0.1,1.9-0.4,2.7c-0.3,0.8-0.7,1.4-1.3,2c-0.6,0.5-1.4,1-2.4,1.3
			s-2.2,0.4-3.6,0.4v-1.9c0.9,0,1.8-0.1,2.4-0.3c0.7-0.2,1.3-0.4,1.7-0.7c0.5-0.3,0.8-0.7,1-1.1s0.3-0.9,0.4-1.5H109.8z
			 M117.4,141.4c0.5,0,1,0.1,1.4,0.2c0.4,0.1,0.9,0.3,1.2,0.5V135h2.2v2.7h2.3v1.9h-2.3v2.8h-1.8c0.5,0.4,0.8,0.8,1.1,1.4
			c0.3,0.5,0.4,1.1,0.4,1.8c0,0.6-0.1,1.2-0.3,1.7s-0.5,0.9-0.9,1.3c-0.4,0.4-0.9,0.7-1.4,0.9c-0.5,0.2-1.1,0.3-1.8,0.3
			s-1.2-0.1-1.8-0.3s-1-0.5-1.4-0.9c-0.4-0.4-0.7-0.8-0.9-1.3s-0.3-1-0.3-1.7c0-0.6,0.1-1.1,0.3-1.6s0.5-0.9,0.9-1.3
			c0.4-0.4,0.9-0.7,1.4-0.9S116.7,141.4,117.4,141.4z M117.4,143.3c-0.3,0-0.7,0.1-0.9,0.2s-0.5,0.3-0.7,0.5
			c-0.2,0.2-0.4,0.4-0.5,0.7c-0.1,0.3-0.2,0.6-0.2,0.9c0,0.3,0.1,0.6,0.2,0.9c0.1,0.3,0.3,0.5,0.5,0.7c0.2,0.2,0.4,0.4,0.7,0.5
			c0.3,0.1,0.6,0.2,0.9,0.2c0.3,0,0.6-0.1,0.9-0.2c0.3-0.1,0.5-0.3,0.7-0.5c0.2-0.2,0.4-0.4,0.5-0.7c0.1-0.3,0.2-0.6,0.2-0.9
			c0-0.3-0.1-0.6-0.2-0.9c-0.1-0.3-0.3-0.5-0.5-0.7c-0.2-0.2-0.4-0.4-0.7-0.5S117.7,143.3,117.4,143.3z"/>
		<path class="st7" d="M129.7,141.7c-0.2,0.5-0.5,0.9-0.8,1.3s-0.7,0.7-1.1,1c-0.5,0.3-0.9,0.5-1.4,0.7c-0.5,0.2-0.9,0.3-1.4,0.4v-2
			c0.5-0.1,1-0.3,1.4-0.6c0.4-0.3,0.8-0.7,1.1-1.2c0.3-0.5,0.6-1,0.8-1.7c0.2-0.6,0.3-1.4,0.3-2.3V135h2.2v2.3
			c0,0.9,0.1,1.7,0.3,2.3c0.2,0.6,0.4,1.2,0.8,1.7c0.7,1,1.5,1.5,2.6,1.8v2c-0.5-0.1-1-0.3-1.4-0.4c-0.5-0.2-0.9-0.4-1.3-0.7
			c-0.4-0.3-0.8-0.6-1.1-1S130,142.2,129.7,141.7z M133.6,138.5h3.2V135h2.2v14h-2.2v-8.5h-3.2V138.5z"/>
		<path class="st7" d="M145.6,140c-0.1,0.2-0.2,0.5-0.4,0.8c-0.2,0.3-0.5,0.6-0.8,0.9c-0.3,0.3-0.7,0.5-1.1,0.7
			c-0.4,0.2-0.9,0.3-1.4,0.4v-2c0.8-0.2,1.4-0.6,2-1.3c0.5-0.7,0.8-1.7,0.8-2.9V135h2.2v1.7c0,1.2,0.3,2.2,0.8,2.9
			c0.5,0.7,1.2,1.1,2,1.3v2c-0.5-0.1-1-0.2-1.4-0.4s-0.8-0.5-1.1-0.7c-0.4-0.3-0.6-0.6-0.9-0.9C145.8,140.5,145.6,140.2,145.6,140z
			 M145.3,143.8v3.2h10.2v1.9h-10.7c-0.5,0-1-0.2-1.3-0.5s-0.4-0.7-0.4-1.2v-3.4H145.3z M150.2,144.4v-5.3h-1.9v-1.9h1.9V135h2.2
			v9.5H150.2z M153.2,144.4V135h2.2v9.5H153.2z"/>
		<path class="st7" d="M158.2,136.8c0-0.2,0-0.5,0.1-0.7c0.1-0.2,0.2-0.4,0.3-0.6c0.1-0.2,0.3-0.3,0.5-0.4c0.2-0.1,0.4-0.1,0.6-0.1
			h6.6v1.9h-6v2.5h5.9v1.9h-5.9v2.8h6.4v1.9h-7c-0.2,0-0.4,0-0.6-0.1c-0.2-0.1-0.4-0.2-0.5-0.4c-0.1-0.2-0.3-0.4-0.3-0.6
			c-0.1-0.2-0.1-0.5-0.1-0.7V136.8z M171.2,148.9H169v-7.6h-2.2v-1.9h2.2V135h2.2V148.9z"/>
	</g>
</g>
</svg>
