<?xml version="1.0" encoding="utf-8"?>
<!-- Generator: Adobe Illustrator 22.1.0, SVG Export Plug-In . SVG Version: 6.00 Build 0)  -->
<svg version="1.1" id="Layer_1" xmlns="http://www.w3.org/2000/svg" xmlns:xlink="http://www.w3.org/1999/xlink" x="0px" y="0px"
	 viewBox="0 0 261 273" style="enable-background:new 0 0 261 273;" xml:space="preserve">
<style type="text/css">
	.st0{fill:#CBA25B;}
	.st1{fill:#FBC263;}
	.st2{fill:#FEE1B5;}
	.st3{fill:#F39200;}
	.st4{fill:url(#SVGID_1_);}
	.st5{fill:#00A49A;}
	.st6{fill:#FFFFFF;stroke:#00A19A;stroke-width:2.9852;stroke-miterlimit:10;}
	.st7{fill:#0A5552;}
</style>
<polygon class="st0" points="130.5,235.4 183.9,207.6 183.9,132.1 130.5,149.9 "/>
<polygon class="st1" points="130.5,235.4 77.1,207.6 77.1,132.1 130.5,149.9 "/>
<polygon class="st2" points="130.4,149.8 77.1,132 130.5,117.9 183.9,132 "/>
<g>
	<path class="st3" d="M122.9,98.7l0-1.8c0,0-3.6,2.1-4,5.1h0c0,0.2,0,0.4,0,0.6c0,2.2,1.8,3.9,3.9,3.9c2.2,0,3.9-1.8,3.9-3.9
		C126.7,100.4,125,98.7,122.9,98.7z"/>
	<linearGradient id="SVGID_1_" gradientUnits="userSpaceOnUse" x1="110.1656" y1="120.0714" x2="150.0663" y2="120.0714">
		<stop  offset="0" style="stop-color:#00A49A"/>
		<stop  offset="5.639684e-02" style="stop-color:#41A592"/>
		<stop  offset="0.3091" style="stop-color:#9CA66A"/>
		<stop  offset="0.5388" style="stop-color:#C8A145"/>
		<stop  offset="0.7378" style="stop-color:#E19A27"/>
		<stop  offset="0.8982" style="stop-color:#EF9505"/>
		<stop  offset="1" style="stop-color:#F39200"/>
	</linearGradient>
	<path class="st4" d="M149.3,123.3l-7.3-12c-0.1-0.1-0.1-0.2-0.2-0.3c0,0,0-0.1-0.1-0.1c-0.1-0.1-0.1-0.2-0.2-0.3
		c0,0-0.1-0.1-0.1-0.1c-0.1-0.1-0.1-0.1-0.2-0.2c-0.1-0.1-0.1-0.1-0.2-0.2c-0.1-0.1-0.1-0.1-0.2-0.2c-0.1-0.1-0.2-0.1-0.2-0.2
		c0,0-0.1-0.1-0.2-0.1c-0.1-0.1-0.1-0.1-0.2-0.2h0c0,0-0.1,0-0.1,0c0,0,0,0-0.1,0c-0.7-0.4-1.6-0.7-2.4-0.7c-0.1,0-0.2,0-0.2,0
		c-0.1,0-0.2,0-0.2,0c-0.8,0-1.6,0.3-2.4,0.7c0,0,0,0-0.1,0c0,0-0.1,0-0.1,0l0,0c-0.1,0-0.1,0.1-0.2,0.2c-0.1,0-0.1,0.1-0.2,0.1
		c-0.1,0.1-0.2,0.1-0.2,0.2c-0.1,0.1-0.1,0.1-0.2,0.2c-0.1,0.1-0.1,0.1-0.2,0.2c-0.1,0.1-0.1,0.1-0.2,0.2c0,0-0.1,0.1-0.1,0.1
		c-0.1,0.1-0.2,0.2-0.2,0.3c0,0,0,0.1-0.1,0.1c-0.1,0.1-0.1,0.2-0.2,0.3l-2.8,4.6l-2.8-4.6c-0.1-0.1-0.1-0.2-0.2-0.3
		c0,0,0-0.1-0.1-0.1c-0.1-0.1-0.1-0.2-0.2-0.3c0,0-0.1-0.1-0.1-0.1c-0.1-0.1-0.1-0.1-0.2-0.2c-0.1-0.1-0.1-0.1-0.2-0.2
		c-0.1-0.1-0.1-0.1-0.2-0.2c-0.1-0.1-0.2-0.1-0.2-0.2c0,0-0.1-0.1-0.2-0.1c-0.1-0.1-0.1-0.1-0.2-0.2h0c0,0-0.1,0-0.1,0
		c0,0,0,0-0.1,0c-0.7-0.4-1.6-0.7-2.4-0.7c-0.1,0-0.2,0-0.2,0c-0.1,0-0.2,0-0.2,0c-0.8,0-1.6,0.3-2.4,0.7c0,0,0,0-0.1,0
		c0,0-0.1,0-0.1,0l0,0c-0.1,0-0.1,0.1-0.2,0.2c-0.1,0-0.1,0.1-0.2,0.1c-0.1,0.1-0.2,0.1-0.2,0.2c-0.1,0.1-0.1,0.1-0.2,0.2
		c-0.1,0.1-0.1,0.1-0.2,0.2c-0.1,0.1-0.1,0.1-0.2,0.2c0,0-0.1,0.1-0.1,0.1c-0.1,0.1-0.2,0.2-0.2,0.3c0,0,0,0.1-0.1,0.1
		c-0.1,0.1-0.1,0.2-0.2,0.3l-7.3,12c-1.5,2.5-0.7,5.8,1.8,7.3l0,0c2.5,1.5,5.8,0.7,7.3-1.8l2.8-4.5l2.8,4.5c0.7,1.2,1.9,2,3.2,2.4
		c0,0,0.1,0,0.1,0c0.1,0,0.2,0,0.3,0.1c0.1,0,0.2,0,0.2,0c0.1,0,0.1,0,0.2,0c0.1,0,0.2,0,0.3,0c0.1,0,0.2,0,0.3,0c0.1,0,0.2,0,0.3,0
		c0.1,0,0.2,0,0.3,0c0.1,0,0.1,0,0.2,0c0.1,0,0.2,0,0.2,0c0.1,0,0.2,0,0.3-0.1c0,0,0.1,0,0.1,0c1.3-0.3,2.4-1.1,3.2-2.4l2.8-4.5
		l2.8,4.5c1.5,2.5,4.8,3.3,7.3,1.8C150,129.1,150.8,125.8,149.3,123.3z"/>
	<path class="st5" d="M137.3,104.8l0,1.8c0,0,3.6-2.1,4-5.1h0c0-0.2,0-0.4,0-0.6c0-2.2-1.8-3.9-3.9-3.9c-2.2,0-3.9,1.8-3.9,3.9
		C133.5,103,135.2,104.7,137.3,104.8z"/>
</g>
<g>
	<path class="st6" d="M167.3,174.9H97.7c-4.9,0-8.9-4-8.9-8.9v-6.1c0-4.9,4-8.9,8.9-8.9h69.7c4.9,0,8.9,4,8.9,8.9v6.1
		C176.2,170.9,172.2,174.9,167.3,174.9z"/>
	<g>
		<path class="st7" d="M101.5,158.4v-1.9h7.8v2c0,2.8-0.8,5-2.3,6.5c-0.7,0.7-1.6,1.2-2.5,1.5c-1,0.3-2,0.5-3.2,0.5v-1.9
			c0.9,0,1.8-0.1,2.5-0.4c0.7-0.3,1.4-0.7,1.9-1.3c0.3-0.3,0.5-0.6,0.7-1c0.2-0.3,0.3-0.7,0.4-1s0.2-0.7,0.2-1c0-0.3,0.1-0.7,0.1-1
			v-0.7H101.5z M112.1,170.5v-14h2.2v14H112.1z"/>
		<path class="st7" d="M127.7,163.5v-7h2.2v2.7h2.3v1.9h-2.3v2.6h-1.7c0.5,0.4,0.9,0.8,1.1,1.3s0.4,1.1,0.4,1.8
			c0,0.6-0.1,1.2-0.3,1.7c-0.2,0.5-0.6,1-1,1.4c-0.4,0.4-0.9,0.7-1.5,0.9s-1.2,0.3-1.8,0.3c-1.4,0-2.5-0.4-3.4-1.2
			c-0.4-0.4-0.7-0.8-1-1.4c-0.2-0.5-0.3-1.1-0.3-1.7c0-0.9,0.3-1.8,0.8-2.4c0.5-0.7,1.2-1.1,2-1.4c-0.4-0.2-0.7-0.5-1-0.8
			c-0.3-0.3-0.5-0.6-0.6-1c-0.3,0.7-0.9,1.3-1.6,1.8c-0.7,0.5-1.6,0.7-2.7,0.8v-1.9c0.9-0.1,1.7-0.5,2.2-1.1c0.6-0.6,0.9-1.4,1-2.5
			h-3v-1.9h8.2v1.9h-3c0.1,1,0.4,1.9,1,2.5c0.6,0.6,1.3,0.9,2.2,1.1v0.9c0.3,0.1,0.7,0.1,1,0.3C127.1,163.2,127.4,163.3,127.7,163.5
			z M125,164.5c-0.8,0-1.3,0.2-1.8,0.7c-0.4,0.4-0.6,1-0.6,1.7c0,0.7,0.2,1.3,0.6,1.8c0.4,0.4,1,0.6,1.8,0.6c0.4,0,0.7-0.1,1-0.2
			c0.3-0.1,0.6-0.3,0.8-0.5s0.4-0.5,0.5-0.8c0.1-0.3,0.2-0.6,0.2-1c0-0.4-0.1-0.7-0.2-1c-0.1-0.3-0.3-0.5-0.5-0.8
			c-0.2-0.2-0.5-0.4-0.8-0.5C125.7,164.6,125.4,164.5,125,164.5z"/>
		<path class="st7" d="M137.1,161.5c-0.1,0.2-0.2,0.5-0.4,0.8c-0.2,0.3-0.5,0.6-0.8,0.9c-0.3,0.3-0.7,0.5-1.1,0.7
			c-0.4,0.2-0.9,0.3-1.4,0.4v-2c0.8-0.2,1.4-0.6,2-1.3c0.5-0.7,0.8-1.7,0.8-2.9v-1.7h2.2v1.7c0,1.2,0.3,2.2,0.8,2.9
			c0.5,0.7,1.2,1.1,2,1.3v2c-0.5-0.1-1-0.2-1.4-0.4s-0.8-0.5-1.1-0.7c-0.4-0.3-0.6-0.6-0.9-0.9C137.3,162,137.2,161.7,137.1,161.5z
			 M136.8,165.3v3.2H147v1.9h-10.7c-0.5,0-1-0.2-1.3-0.5s-0.4-0.7-0.4-1.2v-3.4H136.8z M141.7,166v-5.3h-1.9v-1.9h1.9v-2.2h2.2v9.5
			H141.7z M144.8,166v-9.5h2.2v9.5H144.8z"/>
		<path class="st7" d="M149.8,158.3c0-0.2,0-0.5,0.1-0.7c0.1-0.2,0.2-0.4,0.3-0.6c0.1-0.2,0.3-0.3,0.5-0.4c0.2-0.1,0.4-0.1,0.6-0.1
			h6.6v1.9h-6v2.5h5.9v1.9h-5.9v2.8h6.4v1.9h-7c-0.2,0-0.4,0-0.6-0.1c-0.2-0.1-0.4-0.2-0.5-0.4c-0.1-0.2-0.3-0.4-0.3-0.6
			c-0.1-0.2-0.1-0.5-0.1-0.7V158.3z M162.7,170.5h-2.2v-7.6h-2.2V161h2.2v-4.5h2.2V170.5z"/>
	</g>
</g>
</svg>
