<?xml version="1.0" encoding="utf-8"?>
<!-- Generator: Adobe Illustrator 22.1.0, SVG Export Plug-In . SVG Version: 6.00 Build 0)  -->
<svg version="1.1" id="Layer_1" xmlns="http://www.w3.org/2000/svg" xmlns:xlink="http://www.w3.org/1999/xlink" x="0px" y="0px"
	 viewBox="0 0 261 273" style="enable-background:new 0 0 261 273;" xml:space="preserve">
<style type="text/css">
	.st0{fill:#426E6C;}
	.st1{fill:#5DB3AE;}
	.st2{fill:#BAD9D7;}
	.st3{fill:#F39200;}
	.st4{fill:url(#SVGID_1_);}
	.st5{fill:#00A49A;}
	.st6{fill:#FFFFFF;stroke:#F39200;stroke-width:4.0343;stroke-miterlimit:10;}
	.st7{fill:#0A5552;}
</style>
<g>
	<g>
		<polygon class="st0" points="130.5,213.8 183.9,186 183.9,110.5 130.5,128.3 		"/>
		<polygon class="st1" points="130.5,213.8 77.1,186 77.1,110.5 130.5,128.3 		"/>
		<polygon class="st2" points="130.4,128.3 77.1,110.5 130.5,96.4 183.9,110.5 		"/>
	</g>
	<g>
		<path class="st3" d="M122.9,77.1l0-1.8c0,0-3.6,2.1-4,5.1h0c0,0.2,0,0.4,0,0.6c0,2.2,1.8,3.9,3.9,3.9c2.2,0,3.9-1.8,3.9-3.9
			C126.7,78.9,125,77.2,122.9,77.1z"/>
		<linearGradient id="SVGID_1_" gradientUnits="userSpaceOnUse" x1="110.1656" y1="98.5394" x2="150.0663" y2="98.5394">
			<stop  offset="0" style="stop-color:#00A49A"/>
			<stop  offset="5.639684e-02" style="stop-color:#41A592"/>
			<stop  offset="0.3091" style="stop-color:#9CA66A"/>
			<stop  offset="0.5388" style="stop-color:#C8A145"/>
			<stop  offset="0.7378" style="stop-color:#E19A27"/>
			<stop  offset="0.8982" style="stop-color:#EF9505"/>
			<stop  offset="1" style="stop-color:#F39200"/>
		</linearGradient>
		<path class="st4" d="M149.3,101.8l-7.3-12c-0.1-0.1-0.1-0.2-0.2-0.3c0,0,0-0.1-0.1-0.1c-0.1-0.1-0.1-0.2-0.2-0.3
			c0,0-0.1-0.1-0.1-0.1c-0.1-0.1-0.1-0.1-0.2-0.2c-0.1-0.1-0.1-0.1-0.2-0.2c-0.1-0.1-0.1-0.1-0.2-0.2c-0.1-0.1-0.2-0.1-0.2-0.2
			c0,0-0.1-0.1-0.2-0.1c-0.1-0.1-0.1-0.1-0.2-0.2h0c0,0-0.1,0-0.1,0c0,0,0,0-0.1,0c-0.7-0.4-1.6-0.7-2.4-0.7c-0.1,0-0.2,0-0.2,0
			c-0.1,0-0.2,0-0.2,0c-0.8,0-1.6,0.3-2.4,0.7c0,0,0,0-0.1,0c0,0-0.1,0-0.1,0l0,0c-0.1,0-0.1,0.1-0.2,0.2c-0.1,0-0.1,0.1-0.2,0.1
			c-0.1,0.1-0.2,0.1-0.2,0.2c-0.1,0.1-0.1,0.1-0.2,0.2c-0.1,0.1-0.1,0.1-0.2,0.2c-0.1,0.1-0.1,0.1-0.2,0.2c0,0-0.1,0.1-0.1,0.1
			c-0.1,0.1-0.2,0.2-0.2,0.3c0,0,0,0.1-0.1,0.1c-0.1,0.1-0.1,0.2-0.2,0.3l-2.8,4.6l-2.8-4.6c-0.1-0.1-0.1-0.2-0.2-0.3
			c0,0,0-0.1-0.1-0.1c-0.1-0.1-0.1-0.2-0.2-0.3c0,0-0.1-0.1-0.1-0.1c-0.1-0.1-0.1-0.1-0.2-0.2c-0.1-0.1-0.1-0.1-0.2-0.2
			c-0.1-0.1-0.1-0.1-0.2-0.2c-0.1-0.1-0.2-0.1-0.2-0.2c0,0-0.1-0.1-0.2-0.1c-0.1-0.1-0.1-0.1-0.2-0.2h0c0,0-0.1,0-0.1,0
			c0,0,0,0-0.1,0c-0.7-0.4-1.6-0.7-2.4-0.7c-0.1,0-0.2,0-0.2,0c-0.1,0-0.2,0-0.2,0c-0.8,0-1.6,0.3-2.4,0.7c0,0,0,0-0.1,0
			c0,0-0.1,0-0.1,0l0,0c-0.1,0-0.1,0.1-0.2,0.2c-0.1,0-0.1,0.1-0.2,0.1c-0.1,0.1-0.2,0.1-0.2,0.2c-0.1,0.1-0.1,0.1-0.2,0.2
			c-0.1,0.1-0.1,0.1-0.2,0.2c-0.1,0.1-0.1,0.1-0.2,0.2c0,0-0.1,0.1-0.1,0.1c-0.1,0.1-0.2,0.2-0.2,0.3c0,0,0,0.1-0.1,0.1
			c-0.1,0.1-0.1,0.2-0.2,0.3l-7.3,12c-1.5,2.5-0.7,5.8,1.8,7.3l0,0c2.5,1.5,5.8,0.7,7.3-1.8l2.8-4.5l2.8,4.5c0.7,1.2,1.9,2,3.2,2.4
			c0,0,0.1,0,0.1,0c0.1,0,0.2,0,0.3,0.1c0.1,0,0.2,0,0.2,0c0.1,0,0.1,0,0.2,0c0.1,0,0.2,0,0.3,0c0.1,0,0.2,0,0.3,0
			c0.1,0,0.2,0,0.3,0c0.1,0,0.2,0,0.3,0c0.1,0,0.1,0,0.2,0c0.1,0,0.2,0,0.2,0c0.1,0,0.2,0,0.3-0.1c0,0,0.1,0,0.1,0
			c1.3-0.3,2.4-1.1,3.2-2.4l2.8-4.5l2.8,4.5c1.5,2.5,4.8,3.3,7.3,1.8C150,107.5,150.8,104.2,149.3,101.8z"/>
		<path class="st5" d="M137.3,83.2l0,1.8c0,0,3.6-2.1,4-5.1h0c0-0.2,0-0.4,0-0.6c0-2.2-1.8-3.9-3.9-3.9c-2.2,0-3.9,1.8-3.9,3.9
			C133.5,81.5,135.2,83.2,137.3,83.2z"/>
	</g>
	<g>
		<path class="st6" d="M167.3,153.4H97.7c-4.9,0-8.9-4-8.9-8.9v-6.1c0-4.9,4-8.9,8.9-8.9h69.7c4.9,0,8.9,4,8.9,8.9v6.1
			C176.2,149.4,172.2,153.4,167.3,153.4z"/>
		<g>
			<path class="st7" d="M101.4,140V135h2.2v5h6.6v1.9h-7.2c-0.2,0-0.4,0-0.6-0.1c-0.2-0.1-0.4-0.2-0.5-0.4c-0.1-0.2-0.3-0.4-0.3-0.6
				C101.4,140.5,101.4,140.3,101.4,140z M102.1,147.2V143h10.5c0.4,0,0.6,0.1,0.8,0.3s0.3,0.5,0.3,0.8v4.8h-9.9
				c-0.5,0-0.9-0.2-1.2-0.5C102.3,148.1,102.1,147.7,102.1,147.2z M111.6,145h-7.3v2h7.3V145z M111.6,142.1V135h2.2v2.6h2.3v1.9
				h-2.3v2.6H111.6z"/>
			<path class="st7" d="M117.3,148.4v-1.9h6.1v-3.3h-5.1v-1.9h2.1v-4.3h-2.1V135h12.4v1.9h-2.1v4.3h2.1v1.9h-5.1v3.3h6.1v1.9H117.3z
				 M122.5,141.2h3.9v-4.3h-3.9V141.2z"/>
			<path class="st7" d="M137.1,140c-0.1,0.2-0.2,0.5-0.4,0.8c-0.2,0.3-0.5,0.6-0.8,0.9c-0.3,0.3-0.7,0.5-1.1,0.7
				c-0.4,0.2-0.9,0.3-1.4,0.4v-2c0.8-0.2,1.4-0.6,2-1.3c0.5-0.7,0.8-1.7,0.8-2.9V135h2.2v1.7c0,1.2,0.3,2.2,0.8,2.9
				c0.5,0.7,1.2,1.1,2,1.3v2c-0.5-0.1-1-0.2-1.4-0.4c-0.4-0.2-0.8-0.5-1.1-0.7c-0.4-0.3-0.6-0.6-0.9-0.9
				C137.3,140.5,137.2,140.2,137.1,140z M136.8,143.8v3.2H147v1.9h-10.7c-0.5,0-1-0.2-1.3-0.5c-0.3-0.3-0.4-0.7-0.4-1.2v-3.4H136.8z
				 M141.7,144.4v-5.3h-1.9v-1.9h1.9V135h2.2v9.5H141.7z M144.8,144.4V135h2.2v9.5H144.8z"/>
			<path class="st7" d="M149.8,136.8c0-0.2,0-0.5,0.1-0.7s0.2-0.4,0.3-0.6c0.1-0.2,0.3-0.3,0.5-0.4c0.2-0.1,0.4-0.1,0.6-0.1h6.6v1.9
				h-6v2.5h5.9v1.9h-5.9v2.8h6.4v1.9h-7c-0.2,0-0.4,0-0.6-0.1c-0.2-0.1-0.4-0.2-0.5-0.4c-0.1-0.2-0.3-0.4-0.3-0.6s-0.1-0.5-0.1-0.7
				V136.8z M162.7,148.9h-2.2v-7.6h-2.2v-1.9h2.2V135h2.2V148.9z"/>
		</g>
	</g>
</g>
</svg>
