<svg xmlns="http://www.w3.org/2000/svg" width="43" height="43" viewBox="0 0 43 43">
  <g id="그룹_609" data-name="그룹 609" transform="translate(319 2152) rotate(180)">
    <path id="패스_611" data-name="패스 611" d="M21.5,0A21.5,21.5,0,1,1,0,21.5,21.5,21.5,0,0,1,21.5,0Z" transform="translate(276 2109)" fill="#11a28f"/>
    <g id="left-chevron" transform="translate(289.054 2118.982)">
      <g id="그룹_75" data-name="그룹 75" transform="translate(0)">
        <path id="패스_145" data-name="패스 145" d="M72.736.434A1.067,1.067,0,0,0,71.228.219L56.714,11.032a1.078,1.078,0,0,0,0,1.724L71.228,23.587a1.078,1.078,0,0,0,1.293-1.724L59.157,11.894,72.521,1.925A1.062,1.062,0,0,0,72.736.434Z" transform="translate(-56.283 0.001)" fill="#fff"/>
      </g>
    </g>
  </g>
</svg>
