<svg xmlns="http://www.w3.org/2000/svg" width="189.482" height="127.427" viewBox="0 0 189.482 127.427">
  <path id="합치기_69" data-name="합치기 69" d="M53.3,111.261a32.181,32.181,0,0,1-9.644,5.784A31.949,31.949,0,0,1,38.1,118.6,32.212,32.212,0,0,1,19.272,57.442q-.215-.935-.379-1.889t-.274-1.925q-.11-.971-.167-1.958T18.4,49.682a34.467,34.467,0,0,1,34.493-34.5,34.821,34.821,0,0,1,4.373.275,34.258,34.258,0,0,1,12,3.852,36.8,36.8,0,0,1,62.985-2.936,28.094,28.094,0,0,1,10.21-4.619,28.529,28.529,0,0,1,3.858-.6,28.265,28.265,0,0,1,30.642,25.718,28.582,28.582,0,0,1,.093,3.448,28.111,28.111,0,0,1-2.079,9.715,40.862,40.862,0,0,1,10.583,13.693,40.422,40.422,0,0,1,2.909,8.376A40.739,40.739,0,0,1,140.4,121.042a40.485,40.485,0,0,1-14.807-6.383,40.919,40.919,0,0,1-6.079-5.17,40.905,40.905,0,0,1-14.348,13.027,40.648,40.648,0,0,1-45.524-4.586A40.951,40.951,0,0,1,53.3,111.261Z" fill="#81bbb5" opacity="0.3"/>
</svg>
