<svg xmlns="http://www.w3.org/2000/svg" width="342.203" height="264.346" viewBox="0 0 342.203 264.346">
  <path id="합치기_71" data-name="합치기 71" d="M244.542,207.744a57.438,57.438,0,0,0,18.1,7.466,56.741,56.741,0,0,0,20.321.8,55.7,55.7,0,0,0,21.051-7.451,54.951,54.951,0,0,0,25.728-56.773,56.44,56.44,0,0,0-15.062-29.5,57.715,57.715,0,0,0-28-16q.09-1.681.085-3.38t-.108-3.41q-.1-1.712-.305-3.434t-.507-3.451a59.161,59.161,0,0,0-24.911-38.731,58.412,58.412,0,0,0-70.32,3.354A60.7,60.7,0,0,0,178.93,45.924a59.077,59.077,0,0,0-14.074-7.667,57.13,57.13,0,0,0-32.121-2.485,57.985,57.985,0,0,0-14.213,4.978A58.76,58.76,0,0,0,106.408,48.9a60.9,60.9,0,0,0-9.693,10.727,62.6,62.6,0,0,0-6.952,12.725,42.327,42.327,0,0,0-5.378-2.224,41.386,41.386,0,0,0-5.652-1.46,41.235,41.235,0,0,0-28.285,4.989A43.585,43.585,0,0,0,37.831,84.9a46.643,46.643,0,0,0-7.7,15.394,48.657,48.657,0,0,0-1.646,17.99,49.643,49.643,0,0,0,.827,5.492,48.73,48.73,0,0,0,1.4,5.242,48.086,48.086,0,0,0,1.937,4.959,47.584,47.584,0,0,0,2.434,4.644,64.27,64.27,0,0,0-7.071,11.5A66.4,66.4,0,0,0,23.41,163.03,68.141,68.141,0,0,0,21.5,176.961a70.971,70.971,0,0,0,10.11,38.813,68.3,68.3,0,0,0,16.42,18.536,64,64,0,0,0,21.685,11.1,59.86,59.86,0,0,0,24.835,1.761,58.749,58.749,0,0,0,23.882-8.885,60.344,60.344,0,0,0,9.794-7.913,62.7,62.7,0,0,0,8.026-9.816,70.39,70.39,0,0,0,12.184,10.605,68.88,68.88,0,0,0,14.293,7.514,66.739,66.739,0,0,0,15.858,3.944,65.929,65.929,0,0,0,16.865-.132,65.132,65.132,0,0,0,15.44-4.069A64.362,64.362,0,0,0,224.5,230.95a65.42,65.42,0,0,0,11.356-10.393A66.763,66.763,0,0,0,244.542,207.744Z" fill="#d7e8e7" opacity="0.5"/>
</svg>
