<svg id="dialogue-balloon" xmlns="http://www.w3.org/2000/svg" width="25.948" height="24" viewBox="0 0 25.948 24">
  <g id="그룹_100" data-name="그룹 100" transform="translate(0 0)">
    <path id="패스_177" data-name="패스 177" d="M2.975,30.8l-.629,3.527a.9.9,0,0,0,.368.9.859.859,0,0,0,.537.169.813.813,0,0,0,.429-.107l3.681-1.978c.8,3.45,4.631,6.073,9.217,6.073q.483,0,.966-.046l4.739,2.546a.891.891,0,0,0,.429.107.966.966,0,0,0,.537-.169.9.9,0,0,0,.368-.9l-.629-3.527a6.748,6.748,0,0,0,2.96-5.4c0-3.435-3.021-6.426-7.238-7.208-.4-3.788-4.432-6.794-9.339-6.794C4.2,17.992,0,21.3,0,25.384A6.79,6.79,0,0,0,2.975,30.8Zm21.148,1.2A5.085,5.085,0,0,1,21.5,36.2a.938.938,0,0,0-.414.935l.4,2.239-3.312-1.779a.942.942,0,0,0-.537-.107c-.353.031-.721.061-1.058.061-3.788,0-6.932-2.07-7.453-4.754H9.37c4.631,0,8.48-2.668,9.232-6.15C21.838,27.316,24.123,29.509,24.123,31.993ZM9.385,19.848c4.156,0,7.53,2.484,7.53,5.551s-3.374,5.551-7.53,5.551a8.322,8.322,0,0,1-1.058-.061A.943.943,0,0,0,7.79,31L4.478,32.775l.4-2.239a.911.911,0,0,0-.414-.935A5.085,5.085,0,0,1,1.84,25.4C1.856,22.347,5.229,19.848,9.385,19.848Z" transform="translate(0 -17.992)" fill="#707070"/>
  </g>
</svg>
