<svg xmlns="http://www.w3.org/2000/svg" width="41" height="41" viewBox="0 0 41 41">
  <g id="그룹_541" data-name="그룹 541" transform="translate(-1446.66 -305.982)">
    <circle id="타원_348" data-name="타원 348" cx="4.302" cy="4.302" r="4.302" transform="translate(1461.238 327.88) rotate(-58.283)" fill="#0f4440"/>
    <path id="패스_606" data-name="패스 606" d="M1499.962,341.608a4.277,4.277,0,0,0-2.45-2.449,7.133,7.133,0,0,0-2.4-.445c-1.361-.062-1.769-.075-5.216-.075s-3.855.013-5.215.075a7.135,7.135,0,0,0-2.4.445,4.275,4.275,0,0,0-2.45,2.449,7.14,7.14,0,0,0-.444,2.4c-.062,1.361-.075,1.769-.075,5.216s.013,3.855.075,5.215a7.14,7.14,0,0,0,.444,2.4,4.275,4.275,0,0,0,2.45,2.45,7.146,7.146,0,0,0,2.4.444c1.361.062,1.769.075,5.215.075s3.855-.013,5.216-.075a7.144,7.144,0,0,0,2.4-.444,4.276,4.276,0,0,0,2.45-2.45,7.149,7.149,0,0,0,.444-2.4c.062-1.361.075-1.769.075-5.215s-.013-3.855-.075-5.216A7.149,7.149,0,0,0,1499.962,341.608ZM1489.9,355.849a6.628,6.628,0,1,1,6.628-6.628A6.628,6.628,0,0,1,1489.9,355.849Zm6.89-11.969a1.549,1.549,0,1,1,1.549-1.549A1.549,1.549,0,0,1,1496.79,343.88Z" transform="translate(-22.74 -22.739)" fill="#0f4440"/>
    <path id="패스_607" data-name="패스 607" d="M1467.16,305.982a20.5,20.5,0,1,0,20.5,20.5A20.5,20.5,0,0,0,1467.16,305.982Zm12.83,25.822a9.476,9.476,0,0,1-.6,3.133,6.6,6.6,0,0,1-3.775,3.775,9.47,9.47,0,0,1-3.133.6c-1.377.063-1.816.078-5.322.078s-3.945-.015-5.322-.078a9.47,9.47,0,0,1-3.133-.6,6.6,6.6,0,0,1-3.775-3.775,9.474,9.474,0,0,1-.6-3.133c-.063-1.377-.078-1.816-.078-5.322s.015-3.945.078-5.322a9.47,9.47,0,0,1,.6-3.133,6.6,6.6,0,0,1,3.775-3.775,9.477,9.477,0,0,1,3.133-.6c1.377-.063,1.816-.077,5.322-.077s3.945.015,5.322.077a9.477,9.477,0,0,1,3.133.6,6.6,6.6,0,0,1,3.775,3.775,9.473,9.473,0,0,1,.6,3.133c.063,1.377.078,1.816.078,5.322S1480.052,330.427,1479.99,331.8Z" fill="#0f4440"/>
  </g>
</svg>
