<svg xmlns="http://www.w3.org/2000/svg" width="40.667" height="40.667" viewBox="0 0 40.667 40.667">
  <g id="그룹_540" data-name="그룹 540" transform="translate(-1345.731 -994.155)">
    <path id="패스_601" data-name="패스 601" d="M1366.064,994.155a20.333,20.333,0,1,0,20.333,20.333A20.334,20.334,0,0,0,1366.064,994.155Zm12.971,24.345a12.221,12.221,0,0,1-4.431,4.17,16.285,16.285,0,0,1-5.532,1.954,17.839,17.839,0,0,1-2.815.246,17.176,17.176,0,0,1-2.571-.155.443.443,0,0,0-.342.084c-1.692,1.188-3.383,2.378-5.131,3.484-.212.134-.434.254-.653.378a.7.7,0,0,1-.25.086c-.279.037-.443-.127-.384-.4.1-.487.249-.964.386-1.443q.517-1.813,1.038-3.624c.031-.106.02-.157-.09-.212a13.3,13.3,0,0,1-4.288-3.348,9.793,9.793,0,0,1-2.246-4.821,9.125,9.125,0,0,1,1.049-5.894,11.966,11.966,0,0,1,4.112-4.322,16.052,16.052,0,0,1,5.972-2.313,17.88,17.88,0,0,1,4.811-.211,16.136,16.136,0,0,1,8.3,3.029,11.066,11.066,0,0,1,3.757,4.585A9.09,9.09,0,0,1,1379.035,1018.5Z" transform="translate(0 0)" fill="#0f4440"/>
    <path id="패스_602" data-name="패스 602" d="M1433.731,1050.407c-.066-.086-.07-.133.012-.213.587-.579,1.169-1.165,1.753-1.748a.749.749,0,0,0,.208-.318.81.81,0,0,0-.384-.9.7.7,0,0,0-.916.116q-1.07,1.068-2.138,2.139a1,1,0,0,0-.1.132l-.05-.034v-.114c0-.544,0-1.087,0-1.63a.832.832,0,1,0-1.663.006q0,2.838,0,5.677a.854.854,0,0,0,.076.359.829.829,0,0,0,.9.476.817.817,0,0,0,.688-.793c.007-.573,0-1.146,0-1.719,0-.1.19-.392.272-.387.106.006.124.135.192.2a.483.483,0,0,1,.045.059c.577.764,1.152,1.531,1.733,2.292a.833.833,0,1,0,1.314-1.022Q1434.708,1051.693,1433.731,1050.407Z" transform="translate(-59.202 -36.923)" fill="#0f4440"/>
    <path id="패스_603" data-name="패스 603" d="M1382.2,1048.6a.816.816,0,0,0-.229-1.607q-2.111-.006-4.222,0a.816.816,0,1,0,.008,1.63c.371,0,.741.008,1.111,0,.138,0,.16.042.159.166-.005.79,0,1.581,0,2.371s0,1.59,0,2.385a.828.828,0,0,0,1.1.793.814.814,0,0,0,.573-.838q0-2.364,0-4.726c0-.113.024-.153.145-.15.37.008.74,0,1.111,0A.936.936,0,0,0,1382.2,1048.6Z" transform="translate(-21.789 -36.916)" fill="#0f4440"/>
    <path id="패스_604" data-name="패스 604" d="M1418.686,1052.732q-.815-.01-1.63,0c-.13,0-.164-.031-.164-.163.005-1.546,0-3.092,0-4.638a1.154,1.154,0,0,0-.025-.308.854.854,0,0,0-.907-.627.836.836,0,0,0-.766.834c0,.938,0,1.877,0,2.816s0,1.886,0,2.83a.756.756,0,0,0,.726.769q1.407.017,2.815,0a.76.76,0,0,0,.728-.8A.773.773,0,0,0,1418.686,1052.732Z" transform="translate(-48.54 -36.92)" fill="#0f4440"/>
    <path id="패스_605" data-name="패스 605" d="M1397.643,1050.259c-.31-.815-.616-1.631-.931-2.445a1.183,1.183,0,0,0-1.286-.778,1.223,1.223,0,0,0-.935.822q-.85,2.23-1.694,4.463a7.163,7.163,0,0,0-.374,1.074c-.124.6.077.894.661.981a.746.746,0,0,0,.9-.52c.1-.271.212-.541.31-.815a.141.141,0,0,1,.16-.109c.385.005.771,0,1.156,0s.761,0,1.141,0a.155.155,0,0,1,.176.126c.1.278.224.548.312.83a.682.682,0,0,0,.691.5,1.276,1.276,0,0,0,.521-.087.531.531,0,0,0,.366-.491,1.778,1.778,0,0,0-.133-.8Q1398.168,1051.633,1397.643,1050.259Zm-2.25,1.2c-.163,0-.326-.006-.489,0-.106,0-.121-.022-.086-.121.215-.6.425-1.2.636-1.8l.157-.447.832,2.363Z" transform="translate(-32.604 -36.938)" fill="#0f4440"/>
  </g>
</svg>
