<svg xmlns="http://www.w3.org/2000/svg" width="267.191" height="179.685" viewBox="0 0 267.191 179.685">
  <path id="합치기_64" data-name="합치기 64" d="M75.157,156.891a45.38,45.38,0,0,1-13.6,8.156,45.049,45.049,0,0,1-7.829,2.2A45.422,45.422,0,0,1,27.175,81q-.3-1.319-.534-2.664t-.387-2.714q-.156-1.369-.235-2.76t-.079-2.8A48.6,48.6,0,0,1,74.58,21.407a49.1,49.1,0,0,1,6.166.387,48.308,48.308,0,0,1,16.921,5.432,51.9,51.9,0,0,1,88.816-4.14,39.616,39.616,0,0,1,14.4-6.513,40.23,40.23,0,0,1,5.441-.853,39.856,39.856,0,0,1,43.208,36.265,40.3,40.3,0,0,1,.132,4.863,39.64,39.64,0,0,1-2.932,13.7,57.618,57.618,0,0,1,14.923,19.309,57,57,0,0,1,4.1,11.811,57.447,57.447,0,0,1-67.771,69.016,57.089,57.089,0,0,1-20.88-9,57.7,57.7,0,0,1-8.572-7.29,57.681,57.681,0,0,1-20.232,18.37A57.318,57.318,0,0,1,84.1,166.294,57.747,57.747,0,0,1,75.157,156.891Z" fill="#81bbb5" opacity="0.3"/>
</svg>
