<svg xmlns="http://www.w3.org/2000/svg" width="143.706" height="96.642" viewBox="0 0 143.706 96.642">
  <path id="합치기_68" data-name="합치기 68" d="M40.423,84.382a24.407,24.407,0,0,1-7.314,4.387A24.231,24.231,0,0,1,28.9,89.952,24.43,24.43,0,0,1,14.616,43.565q-.163-.709-.287-1.433t-.208-1.46q-.084-.736-.126-1.485t-.043-1.507a26.14,26.14,0,0,1,26.16-26.167,26.409,26.409,0,0,1,3.316.208,25.982,25.982,0,0,1,9.1,2.922A27.913,27.913,0,0,1,100.3,12.417a21.307,21.307,0,0,1,7.743-3.5,21.637,21.637,0,0,1,2.926-.459A21.436,21.436,0,0,1,134.207,27.96a21.672,21.672,0,0,1,.071,2.615,21.319,21.319,0,0,1-1.577,7.368,30.99,30.99,0,0,1,8.026,10.385,30.656,30.656,0,0,1,2.206,6.353,30.9,30.9,0,0,1-36.45,37.12,30.7,30.7,0,0,1-11.23-4.841,31.034,31.034,0,0,1-4.611-3.921,31.023,31.023,0,0,1-10.882,9.88A30.828,30.828,0,0,1,45.234,89.44,31.058,31.058,0,0,1,40.423,84.382Z" fill="#81bbb5" opacity="0.3"/>
</svg>
