<svg xmlns="http://www.w3.org/2000/svg" width="385.341" height="300.858" viewBox="0 0 385.341 300.858">
  <path id="합치기_37" data-name="합치기 37" d="M274.3,236.993a64.969,64.969,0,0,0,20.51,8.469,64.274,64.274,0,0,0,23.063.894,62.793,62.793,0,0,0,53.257-73.269A64.089,64.089,0,0,0,353.954,139.5a65.288,65.288,0,0,0-31.88-18.087q.1-1.917.1-3.852t-.124-3.886q-.118-1.95-.348-3.912t-.578-3.93A67.463,67.463,0,0,0,311.1,80.467a66.549,66.549,0,0,0-18.3-18.58A65.327,65.327,0,0,0,242.483,52,66.383,66.383,0,0,0,213.23,66.3a67.978,67.978,0,0,0-13.189-12.739,65.8,65.8,0,0,0-15.862-8.573,63.6,63.6,0,0,0-36.112-2.516,65.055,65.055,0,0,0-15.936,5.772,66.4,66.4,0,0,0-13.56,9.339A69.26,69.26,0,0,0,107.74,69.8a71.51,71.51,0,0,0-7.751,14.444,46.769,46.769,0,0,0-6.015-2.473,45.649,45.649,0,0,0-6.318-1.606,45.275,45.275,0,0,0-13.26-.4,45.693,45.693,0,0,0-18.284,6.248A49.067,49.067,0,0,0,42.089,98.784a53.094,53.094,0,0,0-8.524,17.405A55.579,55.579,0,0,0,31.78,136.47a56.562,56.562,0,0,0,.933,6.183,55.378,55.378,0,0,0,1.571,5.9,54.5,54.5,0,0,0,2.165,5.578,53.708,53.708,0,0,0,2.718,5.221,72.7,72.7,0,0,0-7.833,12.982,75.461,75.461,0,0,0-5.087,14.552,77.656,77.656,0,0,0-2.082,15.684,80.742,80.742,0,0,0,11.327,43.656,76.8,76.8,0,0,0,18.3,20.858A71.2,71.2,0,0,0,77.966,279.6a66.19,66.19,0,0,0,27.714,2.009A65.186,65.186,0,0,0,132.37,271.6a67.5,67.5,0,0,0,10.956-8.932,70.581,70.581,0,0,0,8.981-11.092,79.3,79.3,0,0,0,13.685,11.987,77.332,77.332,0,0,0,16.063,8.5,74.766,74.766,0,0,0,17.838,4.474,73.843,73.843,0,0,0,18.992-.136,72.593,72.593,0,0,0,32.767-13.066,73.987,73.987,0,0,0,12.831-11.794A75.813,75.813,0,0,0,274.3,236.993Z" fill="#d7e8e7" opacity="0.5"/>
</svg>
