<?xml version="1.0" encoding="utf-8"?>
<!-- Generator: Adobe Illustrator 22.1.0, SVG Export Plug-In . SVG Version: 6.00 Build 0)  -->
<svg version="1.1" id="Layer_1" xmlns="http://www.w3.org/2000/svg" xmlns:xlink="http://www.w3.org/1999/xlink" x="0px" y="0px"
	 viewBox="0 0 261 273" style="enable-background:new 0 0 261 273;" xml:space="preserve">
<style type="text/css">
	.st0{fill:#426E6C;}
	.st1{fill:#5DB3AE;}
	.st2{fill:#BAD9D7;}
	.st3{fill:#F39200;}
	.st4{fill:url(#SVGID_1_);}
	.st5{fill:#00A49A;}
	.st6{fill:#FFFFFF;stroke:#F39200;stroke-width:4.0343;stroke-miterlimit:10;}
	.st7{fill:#0A5552;}
</style>
<g>
	<g>
		<polygon class="st0" points="127.2,218.6 180.6,190.8 180.6,115.3 127.2,133.1 		"/>
		<polygon class="st1" points="127.2,218.6 73.8,190.8 73.8,115.3 127.2,133.1 		"/>
		<polygon class="st2" points="127.2,133 73.8,115.2 127.3,101.1 180.6,115.2 		"/>
	</g>
	<g>
		<path class="st3" d="M119.6,81.9l0-1.8c0,0-3.6,2.1-4,5.1h0c0,0.2,0,0.4,0,0.6c0,2.2,1.8,3.9,3.9,3.9c2.2,0,3.9-1.8,3.9-3.9
			C123.4,83.6,121.7,81.9,119.6,81.9z"/>
		<linearGradient id="SVGID_1_" gradientUnits="userSpaceOnUse" x1="106.8948" y1="103.2757" x2="146.7955" y2="103.2757">
			<stop  offset="0" style="stop-color:#00A49A"/>
			<stop  offset="5.639684e-02" style="stop-color:#41A592"/>
			<stop  offset="0.3091" style="stop-color:#9CA66A"/>
			<stop  offset="0.5388" style="stop-color:#C8A145"/>
			<stop  offset="0.7378" style="stop-color:#E19A27"/>
			<stop  offset="0.8982" style="stop-color:#EF9505"/>
			<stop  offset="1" style="stop-color:#F39200"/>
		</linearGradient>
		<path class="st4" d="M146,106.5l-7.3-12c-0.1-0.1-0.1-0.2-0.2-0.3c0,0,0-0.1-0.1-0.1c-0.1-0.1-0.1-0.2-0.2-0.3
			c0,0-0.1-0.1-0.1-0.1c-0.1-0.1-0.1-0.1-0.2-0.2c-0.1-0.1-0.1-0.1-0.2-0.2c-0.1-0.1-0.1-0.1-0.2-0.2c-0.1-0.1-0.2-0.1-0.2-0.2
			c0,0-0.1-0.1-0.2-0.1c-0.1-0.1-0.1-0.1-0.2-0.2h0c0,0-0.1,0-0.1,0c0,0,0,0-0.1,0c-0.7-0.4-1.6-0.7-2.4-0.7c-0.1,0-0.2,0-0.2,0
			c-0.1,0-0.2,0-0.2,0c-0.8,0-1.6,0.3-2.4,0.7c0,0,0,0-0.1,0c0,0-0.1,0-0.1,0l0,0c-0.1,0-0.1,0.1-0.2,0.2c-0.1,0-0.1,0.1-0.2,0.1
			c-0.1,0.1-0.2,0.1-0.2,0.2c-0.1,0.1-0.1,0.1-0.2,0.2c-0.1,0.1-0.1,0.1-0.2,0.2c-0.1,0.1-0.1,0.1-0.2,0.2c0,0-0.1,0.1-0.1,0.1
			c-0.1,0.1-0.2,0.2-0.2,0.3c0,0,0,0.1-0.1,0.1c-0.1,0.1-0.1,0.2-0.2,0.3l-2.8,4.6l-2.8-4.6c-0.1-0.1-0.1-0.2-0.2-0.3
			c0,0,0-0.1-0.1-0.1c-0.1-0.1-0.1-0.2-0.2-0.3c0,0-0.1-0.1-0.1-0.1c-0.1-0.1-0.1-0.1-0.2-0.2c-0.1-0.1-0.1-0.1-0.2-0.2
			c-0.1-0.1-0.1-0.1-0.2-0.2c-0.1-0.1-0.2-0.1-0.2-0.2c0,0-0.1-0.1-0.2-0.1c-0.1-0.1-0.1-0.1-0.2-0.2h0c0,0-0.1,0-0.1,0
			c0,0,0,0-0.1,0c-0.7-0.4-1.6-0.7-2.4-0.7c-0.1,0-0.2,0-0.2,0c-0.1,0-0.2,0-0.2,0c-0.8,0-1.6,0.3-2.4,0.7c0,0,0,0-0.1,0
			c0,0-0.1,0-0.1,0l0,0c-0.1,0-0.1,0.1-0.2,0.2c-0.1,0-0.1,0.1-0.2,0.1c-0.1,0.1-0.2,0.1-0.2,0.2c-0.1,0.1-0.1,0.1-0.2,0.2
			c-0.1,0.1-0.1,0.1-0.2,0.2c-0.1,0.1-0.1,0.1-0.2,0.2c0,0-0.1,0.1-0.1,0.1c-0.1,0.1-0.2,0.2-0.2,0.3c0,0,0,0.1-0.1,0.1
			c-0.1,0.1-0.1,0.2-0.2,0.3l-7.3,12c-1.5,2.5-0.7,5.8,1.8,7.3l0,0c2.5,1.5,5.8,0.7,7.3-1.8l2.8-4.5l2.8,4.5c0.7,1.2,1.9,2,3.2,2.4
			c0,0,0.1,0,0.1,0c0.1,0,0.2,0,0.3,0.1c0.1,0,0.2,0,0.2,0c0.1,0,0.1,0,0.2,0c0.1,0,0.2,0,0.3,0c0.1,0,0.2,0,0.3,0
			c0.1,0,0.2,0,0.3,0c0.1,0,0.2,0,0.3,0c0.1,0,0.1,0,0.2,0c0.1,0,0.2,0,0.2,0c0.1,0,0.2,0,0.3-0.1c0,0,0.1,0,0.1,0
			c1.3-0.3,2.4-1.1,3.2-2.4l2.8-4.5l2.8,4.5c1.5,2.5,4.8,3.3,7.3,1.8C146.7,112.3,147.5,109,146,106.5z"/>
		<path class="st5" d="M134.1,88l0,1.8c0,0,3.6-2.1,4-5.1h0c0-0.2,0-0.4,0-0.6c0-2.2-1.8-3.9-3.9-3.9c-2.2,0-3.9,1.8-3.9,3.9
			C130.3,86.2,131.9,87.9,134.1,88z"/>
	</g>
	<g>
		<path class="st6" d="M164.1,158.1H94.4c-4.9,0-8.9-4-8.9-8.9v-6.1c0-4.9,4-8.9,8.9-8.9h69.7c4.9,0,8.9,4,8.9,8.9v6.1
			C172.9,154.1,169,158.1,164.1,158.1z"/>
		<g>
			<path class="st7" d="M109.1,144.8v-3.2H98.6v-1.9h10.9c0.2,0,0.5,0,0.7,0.1c0.2,0.1,0.4,0.2,0.5,0.4s0.3,0.3,0.4,0.5
				c0.1,0.2,0.1,0.4,0.1,0.6v3.5h0.7v1.9H98.1v-1.9H109.1z M98.8,152v-3.8h11.2c0.4,0,0.7,0.1,0.9,0.3c0.2,0.2,0.3,0.5,0.3,0.8v4.4
				h-10.7c-0.5,0-0.9-0.2-1.2-0.5C99,152.9,98.8,152.5,98.8,152z M109.1,150.1H101v1.7h8.1V150.1z"/>
			<path class="st7" d="M122.4,144.4v-1.9h2.6v-2.8h2.2v7.3h-1.8c0.5,0.4,0.9,0.8,1.1,1.3s0.4,1.1,0.4,1.8c0,0.6-0.1,1.2-0.3,1.7
				c-0.2,0.5-0.6,1-1,1.4c-0.4,0.4-0.9,0.7-1.5,0.9s-1.2,0.3-1.8,0.3c-1.4,0-2.5-0.4-3.4-1.2c-0.4-0.4-0.7-0.8-1-1.4
				c-0.2-0.5-0.3-1.1-0.3-1.7c0-0.9,0.2-1.6,0.7-2.3c0.4-0.6,1-1.1,1.8-1.4c-0.9-0.5-1.4-1.1-1.8-1.9c-0.3,0.7-0.8,1.3-1.6,1.8
				c-0.7,0.5-1.6,0.7-2.7,0.8v-1.9c0.9-0.1,1.6-0.5,2.2-1.1s0.9-1.4,1-2.5h-2.9v-1.9h8v1.9h-2.9c0.1,1,0.4,1.9,1,2.5
				s1.3,0.9,2.2,1.1v0.9c1,0,1.8,0.3,2.5,0.7v-2.4H122.4z M122.2,147.7c-0.8,0-1.3,0.2-1.8,0.7c-0.4,0.4-0.6,1-0.6,1.7
				c0,0.7,0.2,1.3,0.6,1.8c0.4,0.4,1,0.6,1.8,0.6c0.4,0,0.7-0.1,1-0.2c0.3-0.1,0.6-0.3,0.8-0.5s0.4-0.5,0.5-0.8
				c0.1-0.3,0.2-0.6,0.2-1c0-0.4-0.1-0.7-0.2-1c-0.1-0.3-0.3-0.5-0.5-0.8c-0.2-0.2-0.5-0.4-0.8-0.5S122.6,147.7,122.2,147.7z"/>
			<path class="st7" d="M133.9,144.7c-0.1,0.2-0.2,0.5-0.4,0.8c-0.2,0.3-0.5,0.6-0.8,0.9c-0.3,0.3-0.7,0.5-1.1,0.7
				c-0.4,0.2-0.9,0.3-1.4,0.4v-2c0.8-0.2,1.4-0.6,2-1.3c0.5-0.7,0.8-1.7,0.8-2.9v-1.7h2.2v1.7c0,1.2,0.3,2.2,0.8,2.9
				c0.5,0.7,1.2,1.1,2,1.3v2c-0.5-0.1-1-0.2-1.4-0.4c-0.4-0.2-0.8-0.5-1.1-0.7c-0.4-0.3-0.6-0.6-0.9-0.9
				C134.1,145.2,133.9,145,133.9,144.7z M133.5,148.5v3.2h10.2v1.9h-10.7c-0.5,0-1-0.2-1.3-0.5c-0.3-0.3-0.4-0.7-0.4-1.2v-3.4H133.5
				z M138.5,149.2v-5.3h-1.9v-1.9h1.9v-2.2h2.2v9.5H138.5z M141.5,149.2v-9.5h2.2v9.5H141.5z"/>
			<path class="st7" d="M146.5,141.5c0-0.2,0-0.5,0.1-0.7s0.2-0.4,0.3-0.6c0.1-0.2,0.3-0.3,0.5-0.4c0.2-0.1,0.4-0.1,0.6-0.1h6.6v1.9
				h-6v2.5h5.9v1.9h-5.9v2.8h6.4v1.9h-7c-0.2,0-0.4,0-0.6-0.1c-0.2-0.1-0.4-0.2-0.5-0.4c-0.1-0.2-0.3-0.4-0.3-0.6s-0.1-0.5-0.1-0.7
				V141.5z M159.4,153.7h-2.2v-7.6H155v-1.9h2.2v-4.5h2.2V153.7z"/>
		</g>
	</g>
</g>
</svg>
