<?xml version="1.0" encoding="utf-8"?>
<!-- Generator: Adobe Illustrator 22.1.0, SVG Export Plug-In . SVG Version: 6.00 Build 0)  -->
<svg version="1.1" id="Layer_1" xmlns="http://www.w3.org/2000/svg" xmlns:xlink="http://www.w3.org/1999/xlink" x="0px" y="0px"
	 viewBox="0 0 261 273" style="enable-background:new 0 0 261 273;" xml:space="preserve">
<style type="text/css">
	.st0{fill:#CBA25B;}
	.st1{fill:#FBC263;}
	.st2{fill:#FEE1B5;}
	.st3{fill:#F39200;}
	.st4{fill:url(#SVGID_1_);}
	.st5{fill:#00A49A;}
	.st6{fill:#FFFFFF;stroke:#00A19A;stroke-width:2.9852;stroke-miterlimit:10;}
	.st7{fill:#0A5552;}
</style>
<polygon class="st0" points="130.5,205.7 183.9,177.9 183.9,102.4 130.5,120.2 "/>
<polygon class="st1" points="130.5,205.7 77.1,177.9 77.1,102.4 130.5,120.2 "/>
<polygon class="st2" points="130.4,120.2 77.1,102.4 130.5,88.3 183.9,102.4 "/>
<g>
	<path class="st3" d="M122.9,69l0-1.8c0,0-3.6,2.1-4,5.1h0c0,0.2,0,0.4,0,0.6c0,2.2,1.8,3.9,3.9,3.9c2.2,0,3.9-1.8,3.9-3.9
		C126.7,70.8,125,69.1,122.9,69z"/>
	<linearGradient id="SVGID_1_" gradientUnits="userSpaceOnUse" x1="110.1656" y1="90.4485" x2="150.0663" y2="90.4485">
		<stop  offset="0" style="stop-color:#00A49A"/>
		<stop  offset="5.639684e-02" style="stop-color:#41A592"/>
		<stop  offset="0.3091" style="stop-color:#9CA66A"/>
		<stop  offset="0.5388" style="stop-color:#C8A145"/>
		<stop  offset="0.7378" style="stop-color:#E19A27"/>
		<stop  offset="0.8982" style="stop-color:#EF9505"/>
		<stop  offset="1" style="stop-color:#F39200"/>
	</linearGradient>
	<path class="st4" d="M149.3,93.7l-7.3-12c-0.1-0.1-0.1-0.2-0.2-0.3c0,0,0-0.1-0.1-0.1c-0.1-0.1-0.1-0.2-0.2-0.3
		c0,0-0.1-0.1-0.1-0.1c-0.1-0.1-0.1-0.1-0.2-0.2c-0.1-0.1-0.1-0.1-0.2-0.2c-0.1-0.1-0.1-0.1-0.2-0.2c-0.1-0.1-0.2-0.1-0.2-0.2
		c0,0-0.1-0.1-0.2-0.1c-0.1-0.1-0.1-0.1-0.2-0.2h0c0,0-0.1,0-0.1,0c0,0,0,0-0.1,0c-0.7-0.4-1.6-0.7-2.4-0.7c-0.1,0-0.2,0-0.2,0
		c-0.1,0-0.2,0-0.2,0c-0.8,0-1.6,0.3-2.4,0.7c0,0,0,0-0.1,0c0,0-0.1,0-0.1,0l0,0c-0.1,0-0.1,0.1-0.2,0.2c-0.1,0-0.1,0.1-0.2,0.1
		c-0.1,0.1-0.2,0.1-0.2,0.2c-0.1,0.1-0.1,0.1-0.2,0.2c-0.1,0.1-0.1,0.1-0.2,0.2c-0.1,0.1-0.1,0.1-0.2,0.2c0,0-0.1,0.1-0.1,0.1
		c-0.1,0.1-0.2,0.2-0.2,0.3c0,0,0,0.1-0.1,0.1c-0.1,0.1-0.1,0.2-0.2,0.3l-2.8,4.6l-2.8-4.6c-0.1-0.1-0.1-0.2-0.2-0.3
		c0,0,0-0.1-0.1-0.1c-0.1-0.1-0.1-0.2-0.2-0.3c0,0-0.1-0.1-0.1-0.1c-0.1-0.1-0.1-0.1-0.2-0.2c-0.1-0.1-0.1-0.1-0.2-0.2
		c-0.1-0.1-0.1-0.1-0.2-0.2c-0.1-0.1-0.2-0.1-0.2-0.2c0,0-0.1-0.1-0.2-0.1c-0.1-0.1-0.1-0.1-0.2-0.2h0c0,0-0.1,0-0.1,0
		c0,0,0,0-0.1,0c-0.7-0.4-1.6-0.7-2.4-0.7c-0.1,0-0.2,0-0.2,0c-0.1,0-0.2,0-0.2,0c-0.8,0-1.6,0.3-2.4,0.7c0,0,0,0-0.1,0
		c0,0-0.1,0-0.1,0l0,0c-0.1,0-0.1,0.1-0.2,0.2c-0.1,0-0.1,0.1-0.2,0.1c-0.1,0.1-0.2,0.1-0.2,0.2c-0.1,0.1-0.1,0.1-0.2,0.2
		c-0.1,0.1-0.1,0.1-0.2,0.2c-0.1,0.1-0.1,0.1-0.2,0.2c0,0-0.1,0.1-0.1,0.1c-0.1,0.1-0.2,0.2-0.2,0.3c0,0,0,0.1-0.1,0.1
		c-0.1,0.1-0.1,0.2-0.2,0.3l-7.3,12c-1.5,2.5-0.7,5.8,1.8,7.3l0,0c2.5,1.5,5.8,0.7,7.3-1.8l2.8-4.5l2.8,4.5c0.7,1.2,1.9,2,3.2,2.4
		c0,0,0.1,0,0.1,0c0.1,0,0.2,0,0.3,0.1c0.1,0,0.2,0,0.2,0c0.1,0,0.1,0,0.2,0c0.1,0,0.2,0,0.3,0c0.1,0,0.2,0,0.3,0c0.1,0,0.2,0,0.3,0
		c0.1,0,0.2,0,0.3,0c0.1,0,0.1,0,0.2,0c0.1,0,0.2,0,0.2,0c0.1,0,0.2,0,0.3-0.1c0,0,0.1,0,0.1,0c1.3-0.3,2.4-1.1,3.2-2.4l2.8-4.5
		l2.8,4.5c1.5,2.5,4.8,3.3,7.3,1.8C150,99.4,150.8,96.2,149.3,93.7z"/>
	<path class="st5" d="M137.3,75.2l0,1.8c0,0,3.6-2.1,4-5.1h0c0-0.2,0-0.4,0-0.6c0-2.2-1.8-3.9-3.9-3.9c-2.2,0-3.9,1.8-3.9,3.9
		C133.5,73.4,135.2,75.1,137.3,75.2z"/>
</g>
<g>
	<path class="st6" d="M167.3,145.3H97.7c-4.9,0-8.9-4-8.9-8.9v-6.1c0-4.9,4-8.9,8.9-8.9h69.7c4.9,0,8.9,4,8.9,8.9v6.1
		C176.2,141.3,172.2,145.3,167.3,145.3z"/>
	<g>
		<path class="st7" d="M112.3,132v-3.2h-10.4v-1.9h10.9c0.2,0,0.5,0,0.7,0.1c0.2,0.1,0.4,0.2,0.5,0.4c0.2,0.2,0.3,0.3,0.4,0.5
			c0.1,0.2,0.1,0.4,0.1,0.6v3.5h0.7v1.9h-13.9V132H112.3z M102.1,139.1v-3.8h11.2c0.4,0,0.7,0.1,0.9,0.3c0.2,0.2,0.3,0.5,0.3,0.8
			v4.4h-10.7c-0.5,0-0.9-0.2-1.2-0.5S102.1,139.6,102.1,139.1z M112.3,137.3h-8.1v1.7h8.1V137.3z"/>
		<path class="st7" d="M125.6,131.6v-1.9h2.6v-2.8h2.2v7.3h-1.8c0.5,0.4,0.9,0.8,1.1,1.3c0.3,0.5,0.4,1.1,0.4,1.8
			c0,0.6-0.1,1.2-0.3,1.7c-0.2,0.5-0.6,1-1,1.4c-0.4,0.4-0.9,0.7-1.5,0.9c-0.6,0.2-1.2,0.3-1.8,0.3c-1.4,0-2.5-0.4-3.4-1.2
			c-0.4-0.4-0.7-0.8-1-1.4c-0.2-0.5-0.3-1.1-0.3-1.7c0-0.9,0.2-1.6,0.7-2.3c0.4-0.6,1-1.1,1.8-1.4c-0.9-0.5-1.4-1.1-1.8-1.9
			c-0.3,0.7-0.8,1.3-1.6,1.8c-0.7,0.5-1.6,0.7-2.7,0.8v-1.9c0.9-0.1,1.6-0.5,2.2-1.1s0.9-1.4,1-2.5h-2.9v-1.9h8v1.9h-2.9
			c0.1,1,0.4,1.9,1,2.5c0.5,0.6,1.3,0.9,2.2,1.1v0.9c1,0,1.8,0.3,2.5,0.7v-2.4H125.6z M125.5,134.9c-0.8,0-1.3,0.2-1.8,0.7
			c-0.4,0.4-0.6,1-0.6,1.7c0,0.7,0.2,1.3,0.6,1.8c0.4,0.4,1,0.6,1.8,0.6c0.4,0,0.7-0.1,1-0.2c0.3-0.1,0.6-0.3,0.8-0.5
			c0.2-0.2,0.4-0.5,0.5-0.8s0.2-0.6,0.2-1c0-0.4-0.1-0.7-0.2-1s-0.3-0.5-0.5-0.8c-0.2-0.2-0.5-0.4-0.8-0.5S125.9,134.9,125.5,134.9z
			"/>
		<path class="st7" d="M137.1,131.9c-0.1,0.2-0.2,0.5-0.4,0.8c-0.2,0.3-0.5,0.6-0.8,0.9c-0.3,0.3-0.7,0.5-1.1,0.7s-0.9,0.3-1.4,0.4
			v-2c0.8-0.2,1.4-0.6,2-1.3c0.5-0.7,0.8-1.7,0.8-2.9v-1.7h2.2v1.7c0,1.2,0.3,2.2,0.8,2.9c0.5,0.7,1.2,1.1,2,1.3v2
			c-0.5-0.1-1-0.2-1.4-0.4c-0.4-0.2-0.8-0.5-1.1-0.7c-0.4-0.3-0.6-0.6-0.9-0.9C137.3,132.4,137.2,132.1,137.1,131.9z M136.8,135.7
			v3.2H147v1.9h-10.7c-0.5,0-1-0.2-1.3-0.5c-0.3-0.3-0.4-0.7-0.4-1.2v-3.4H136.8z M141.7,136.3V131h-1.9v-1.9h1.9v-2.2h2.2v9.5
			H141.7z M144.8,136.3v-9.5h2.2v9.5H144.8z"/>
		<path class="st7" d="M149.8,128.7c0-0.2,0-0.5,0.1-0.7c0.1-0.2,0.2-0.4,0.3-0.6c0.1-0.2,0.3-0.3,0.5-0.4s0.4-0.1,0.6-0.1h6.6v1.9
			h-6v2.5h5.9v1.9h-5.9v2.8h6.4v1.9h-7c-0.2,0-0.4,0-0.6-0.1s-0.4-0.2-0.5-0.4s-0.3-0.4-0.3-0.6c-0.1-0.2-0.1-0.5-0.1-0.7V128.7z
			 M162.7,140.9h-2.2v-7.6h-2.2v-1.9h2.2v-4.5h2.2V140.9z"/>
	</g>
</g>
</svg>
