<?xml version="1.0" encoding="utf-8"?>
<!-- Generator: Adobe Illustrator 22.1.0, SVG Export Plug-In . SVG Version: 6.00 Build 0)  -->
<svg version="1.1" id="Layer_1" xmlns="http://www.w3.org/2000/svg" xmlns:xlink="http://www.w3.org/1999/xlink" x="0px" y="0px"
	 viewBox="0 0 261 273" style="enable-background:new 0 0 261 273;" xml:space="preserve">
<style type="text/css">
	.st0{fill:#CBA25B;}
	.st1{fill:#FBC263;}
	.st2{fill:#FEE1B5;}
	.st3{fill:#F39200;}
	.st4{fill:url(#SVGID_1_);}
	.st5{fill:#00A49A;}
	.st6{fill:#FFFFFF;stroke:#00A19A;stroke-width:2.9852;stroke-miterlimit:10;}
	.st7{fill:#0A5552;}
</style>
<polygon class="st0" points="139.5,208.4 192.9,180.6 192.9,105.1 139.5,122.9 "/>
<polygon class="st1" points="139.5,208.4 86.1,180.6 86.1,105.1 139.5,122.9 "/>
<polygon class="st2" points="139.4,122.9 86.1,105.1 139.5,91 192.9,105.1 "/>
<g>
	<path class="st3" d="M131.9,71.7l0-1.8c0,0-3.6,2.1-4,5.1h0c0,0.2,0,0.4,0,0.6c0,2.2,1.8,3.9,3.9,3.9c2.2,0,3.9-1.8,3.9-3.9
		C135.7,73.5,134,71.7,131.9,71.7z"/>
	<linearGradient id="SVGID_1_" gradientUnits="userSpaceOnUse" x1="119.1535" y1="93.0974" x2="159.0543" y2="93.0974">
		<stop  offset="0" style="stop-color:#00A49A"/>
		<stop  offset="5.639684e-02" style="stop-color:#41A592"/>
		<stop  offset="0.3091" style="stop-color:#9CA66A"/>
		<stop  offset="0.5388" style="stop-color:#C8A145"/>
		<stop  offset="0.7378" style="stop-color:#E19A27"/>
		<stop  offset="0.8982" style="stop-color:#EF9505"/>
		<stop  offset="1" style="stop-color:#F39200"/>
	</linearGradient>
	<path class="st4" d="M158.3,96.3l-7.3-12c-0.1-0.1-0.1-0.2-0.2-0.3c0,0,0-0.1-0.1-0.1c-0.1-0.1-0.1-0.2-0.2-0.3
		c0,0-0.1-0.1-0.1-0.1c-0.1-0.1-0.1-0.1-0.2-0.2c-0.1-0.1-0.1-0.1-0.2-0.2c-0.1-0.1-0.1-0.1-0.2-0.2c-0.1-0.1-0.2-0.1-0.2-0.2
		c0,0-0.1-0.1-0.2-0.1c-0.1-0.1-0.1-0.1-0.2-0.2h0c0,0-0.1,0-0.1,0c0,0,0,0-0.1,0c-0.7-0.4-1.6-0.7-2.4-0.7c-0.1,0-0.2,0-0.2,0
		c-0.1,0-0.2,0-0.2,0c-0.8,0-1.6,0.3-2.4,0.7c0,0,0,0-0.1,0c0,0-0.1,0-0.1,0l0,0c-0.1,0-0.1,0.1-0.2,0.2c-0.1,0-0.1,0.1-0.2,0.1
		c-0.1,0.1-0.2,0.1-0.2,0.2c-0.1,0.1-0.1,0.1-0.2,0.2c-0.1,0.1-0.1,0.1-0.2,0.2c-0.1,0.1-0.1,0.1-0.2,0.2c0,0-0.1,0.1-0.1,0.1
		c-0.1,0.1-0.2,0.2-0.2,0.3c0,0,0,0.1-0.1,0.1c-0.1,0.1-0.1,0.2-0.2,0.3l-2.8,4.6l-2.8-4.6c-0.1-0.1-0.1-0.2-0.2-0.3
		c0,0,0-0.1-0.1-0.1c-0.1-0.1-0.1-0.2-0.2-0.3c0,0-0.1-0.1-0.1-0.1c-0.1-0.1-0.1-0.1-0.2-0.2c-0.1-0.1-0.1-0.1-0.2-0.2
		c-0.1-0.1-0.1-0.1-0.2-0.2c-0.1-0.1-0.2-0.1-0.2-0.2c0,0-0.1-0.1-0.2-0.1c-0.1-0.1-0.1-0.1-0.2-0.2h0c0,0-0.1,0-0.1,0
		c0,0,0,0-0.1,0c-0.7-0.4-1.6-0.7-2.4-0.7c-0.1,0-0.2,0-0.2,0c-0.1,0-0.2,0-0.2,0c-0.8,0-1.6,0.3-2.4,0.7c0,0,0,0-0.1,0
		c0,0-0.1,0-0.1,0l0,0c-0.1,0-0.1,0.1-0.2,0.2c-0.1,0-0.1,0.1-0.2,0.1c-0.1,0.1-0.2,0.1-0.2,0.2c-0.1,0.1-0.1,0.1-0.2,0.2
		c-0.1,0.1-0.1,0.1-0.2,0.2c-0.1,0.1-0.1,0.1-0.2,0.2c0,0-0.1,0.1-0.1,0.1c-0.1,0.1-0.2,0.2-0.2,0.3c0,0,0,0.1-0.1,0.1
		c-0.1,0.1-0.1,0.2-0.2,0.3l-7.3,12c-1.5,2.5-0.7,5.8,1.8,7.3l0,0c2.5,1.5,5.8,0.7,7.3-1.8l2.8-4.5l2.8,4.5c0.7,1.2,1.9,2,3.2,2.4
		c0,0,0.1,0,0.1,0c0.1,0,0.2,0,0.3,0.1c0.1,0,0.2,0,0.2,0c0.1,0,0.1,0,0.2,0c0.1,0,0.2,0,0.3,0c0.1,0,0.2,0,0.3,0c0.1,0,0.2,0,0.3,0
		c0.1,0,0.2,0,0.3,0c0.1,0,0.1,0,0.2,0c0.1,0,0.2,0,0.2,0c0.1,0,0.2,0,0.3-0.1c0,0,0.1,0,0.1,0c1.3-0.3,2.4-1.1,3.2-2.4l2.8-4.5
		l2.8,4.5c1.5,2.5,4.8,3.3,7.3,1.8C159,102.1,159.8,98.8,158.3,96.3z"/>
	<path class="st5" d="M146.3,77.8l0,1.8c0,0,3.6-2.1,4-5.1h0c0-0.2,0-0.4,0-0.6c0-2.2-1.8-3.9-3.9-3.9c-2.2,0-3.9,1.8-3.9,3.9
		C142.5,76,144.2,77.7,146.3,77.8z"/>
</g>
<g>
	<path class="st6" d="M176.3,147.9h-69.7c-4.9,0-8.9-4-8.9-8.9v-6.1c0-4.9,4-8.9,8.9-8.9h69.7c4.9,0,8.9,4,8.9,8.9v6.1
		C185.2,143.9,181.2,147.9,176.3,147.9z"/>
	<g>
		<path class="st7" d="M110.4,134.6v-5.1h2.2v5h6.6v1.9h-7.2c-0.2,0-0.4,0-0.6-0.1c-0.2-0.1-0.4-0.2-0.5-0.4
			c-0.1-0.2-0.3-0.4-0.3-0.6C110.4,135.1,110.4,134.8,110.4,134.6z M111.1,141.8v-4.2h10.5c0.4,0,0.6,0.1,0.8,0.3s0.3,0.5,0.3,0.8
			v4.8h-9.9c-0.5,0-0.9-0.2-1.2-0.5C111.2,142.7,111.1,142.3,111.1,141.8z M120.6,139.5h-7.3v2h7.3V139.5z M120.6,136.6v-7.1h2.2
			v2.6h2.3v1.9h-2.3v2.6H120.6z"/>
		<path class="st7" d="M126.3,142.9V141h6.1v-3.3h-5.1v-1.9h2.1v-4.3h-2.1v-1.9h12.4v1.9h-2.1v4.3h2.1v1.9h-5.1v3.3h6.1v1.9H126.3z
			 M131.5,135.8h3.9v-4.3h-3.9V135.8z"/>
		<path class="st7" d="M146.1,134.5c-0.1,0.2-0.2,0.5-0.4,0.8c-0.2,0.3-0.5,0.6-0.8,0.9c-0.3,0.3-0.7,0.5-1.1,0.7
			c-0.4,0.2-0.9,0.3-1.4,0.4v-2c0.8-0.2,1.4-0.6,2-1.3c0.5-0.7,0.8-1.7,0.8-2.9v-1.7h2.2v1.7c0,1.2,0.3,2.2,0.8,2.9
			c0.5,0.7,1.2,1.1,2,1.3v2c-0.5-0.1-1-0.2-1.4-0.4c-0.4-0.2-0.8-0.5-1.1-0.7c-0.4-0.3-0.6-0.6-0.9-0.9
			C146.3,135.1,146.2,134.8,146.1,134.5z M145.8,138.4v3.2H156v1.9h-10.7c-0.5,0-1-0.2-1.3-0.5c-0.3-0.3-0.4-0.7-0.4-1.2v-3.4H145.8
			z M150.7,139v-5.3h-1.9v-1.9h1.9v-2.2h2.2v9.5H150.7z M153.8,139v-9.5h2.2v9.5H153.8z"/>
		<path class="st7" d="M158.8,131.3c0-0.2,0-0.5,0.1-0.7s0.2-0.4,0.3-0.6c0.1-0.2,0.3-0.3,0.5-0.4c0.2-0.1,0.4-0.1,0.6-0.1h6.6v1.9
			h-6v2.5h5.9v1.9h-5.9v2.8h6.4v1.9h-7c-0.2,0-0.4,0-0.6-0.1c-0.2-0.1-0.4-0.2-0.5-0.4c-0.1-0.2-0.3-0.4-0.3-0.6s-0.1-0.5-0.1-0.7
			V131.3z M171.7,143.5h-2.2v-7.6h-2.2V134h2.2v-4.5h2.2V143.5z"/>
	</g>
</g>
</svg>
