<?xml version="1.0" encoding="utf-8"?>
<!-- Generator: Adobe Illustrator 22.1.0, SVG Export Plug-In . SVG Version: 6.00 Build 0)  -->
<svg version="1.1" id="Layer_1" xmlns="http://www.w3.org/2000/svg" xmlns:xlink="http://www.w3.org/1999/xlink" x="0px" y="0px"
	 viewBox="0 0 261 273" style="enable-background:new 0 0 261 273;" xml:space="preserve">
<style type="text/css">
	.st0{fill:#426E6C;}
	.st1{fill:#5DB3AE;}
	.st2{fill:#BAD9D7;}
	.st3{fill:#F39200;}
	.st4{fill:url(#SVGID_1_);}
	.st5{fill:#00A49A;}
	.st6{fill:#FFFFFF;stroke:#F39200;stroke-width:4.0343;stroke-miterlimit:10;}
	.st7{fill:#0A5552;}
</style>
<g>
	<g>
		<polygon class="st0" points="138.3,223.5 191.7,195.7 191.7,120.2 138.3,138 		"/>
		<polygon class="st1" points="138.3,223.5 84.9,195.7 84.9,120.2 138.3,138 		"/>
		<polygon class="st2" points="138.2,138 84.9,120.1 138.3,106 191.7,120.1 		"/>
	</g>
	<g>
		<path class="st3" d="M130.7,86.8l0-1.8c0,0-3.6,2.1-4,5.1h0c0,0.2,0,0.4,0,0.6c0,2.2,1.8,3.9,3.9,3.9c2.2,0,3.9-1.8,3.9-3.9
			C134.5,88.5,132.8,86.8,130.7,86.8z"/>
		<linearGradient id="SVGID_1_" gradientUnits="userSpaceOnUse" x1="117.9407" y1="108.1794" x2="157.8414" y2="108.1794">
			<stop  offset="0" style="stop-color:#00A49A"/>
			<stop  offset="5.639684e-02" style="stop-color:#41A592"/>
			<stop  offset="0.3091" style="stop-color:#9CA66A"/>
			<stop  offset="0.5388" style="stop-color:#C8A145"/>
			<stop  offset="0.7378" style="stop-color:#E19A27"/>
			<stop  offset="0.8982" style="stop-color:#EF9505"/>
			<stop  offset="1" style="stop-color:#F39200"/>
		</linearGradient>
		<path class="st4" d="M157.1,111.4l-7.3-12c-0.1-0.1-0.1-0.2-0.2-0.3c0,0,0-0.1-0.1-0.1c-0.1-0.1-0.1-0.2-0.2-0.3
			c0,0-0.1-0.1-0.1-0.1c-0.1-0.1-0.1-0.1-0.2-0.2c-0.1-0.1-0.1-0.1-0.2-0.2c-0.1-0.1-0.1-0.1-0.2-0.2c-0.1-0.1-0.2-0.1-0.2-0.2
			c0,0-0.1-0.1-0.2-0.1c-0.1-0.1-0.1-0.1-0.2-0.2h0c0,0-0.1,0-0.1,0c0,0,0,0-0.1,0c-0.7-0.4-1.6-0.7-2.4-0.7c-0.1,0-0.2,0-0.2,0
			c-0.1,0-0.2,0-0.2,0c-0.8,0-1.6,0.3-2.4,0.7c0,0,0,0-0.1,0c0,0-0.1,0-0.1,0l0,0c-0.1,0-0.1,0.1-0.2,0.2c-0.1,0-0.1,0.1-0.2,0.1
			c-0.1,0.1-0.2,0.1-0.2,0.2c-0.1,0.1-0.1,0.1-0.2,0.2c-0.1,0.1-0.1,0.1-0.2,0.2c-0.1,0.1-0.1,0.1-0.2,0.2c0,0-0.1,0.1-0.1,0.1
			c-0.1,0.1-0.2,0.2-0.2,0.3c0,0,0,0.1-0.1,0.1c-0.1,0.1-0.1,0.2-0.2,0.3l-2.8,4.6l-2.8-4.6c-0.1-0.1-0.1-0.2-0.2-0.3
			c0,0,0-0.1-0.1-0.1c-0.1-0.1-0.1-0.2-0.2-0.3c0,0-0.1-0.1-0.1-0.1c-0.1-0.1-0.1-0.1-0.2-0.2c-0.1-0.1-0.1-0.1-0.2-0.2
			c-0.1-0.1-0.1-0.1-0.2-0.2c-0.1-0.1-0.2-0.1-0.2-0.2c0,0-0.1-0.1-0.2-0.1c-0.1-0.1-0.1-0.1-0.2-0.2h0c0,0-0.1,0-0.1,0
			c0,0,0,0-0.1,0c-0.7-0.4-1.6-0.7-2.4-0.7c-0.1,0-0.2,0-0.2,0c-0.1,0-0.2,0-0.2,0c-0.8,0-1.6,0.3-2.4,0.7c0,0,0,0-0.1,0
			c0,0-0.1,0-0.1,0l0,0c-0.1,0-0.1,0.1-0.2,0.2c-0.1,0-0.1,0.1-0.2,0.1c-0.1,0.1-0.2,0.1-0.2,0.2c-0.1,0.1-0.1,0.1-0.2,0.2
			c-0.1,0.1-0.1,0.1-0.2,0.2c-0.1,0.1-0.1,0.1-0.2,0.2c0,0-0.1,0.1-0.1,0.1c-0.1,0.1-0.2,0.2-0.2,0.3c0,0,0,0.1-0.1,0.1
			c-0.1,0.1-0.1,0.2-0.2,0.3l-7.3,12c-1.5,2.5-0.7,5.8,1.8,7.3l0,0c2.5,1.5,5.8,0.7,7.3-1.8l2.8-4.5l2.8,4.5c0.7,1.2,1.9,2,3.2,2.4
			c0,0,0.1,0,0.1,0c0.1,0,0.2,0,0.3,0.1c0.1,0,0.2,0,0.2,0c0.1,0,0.1,0,0.2,0c0.1,0,0.2,0,0.3,0c0.1,0,0.2,0,0.3,0
			c0.1,0,0.2,0,0.3,0c0.1,0,0.2,0,0.3,0c0.1,0,0.1,0,0.2,0c0.1,0,0.2,0,0.2,0c0.1,0,0.2,0,0.3-0.1c0,0,0.1,0,0.1,0
			c1.3-0.3,2.4-1.1,3.2-2.4l2.8-4.5l2.8,4.5c1.5,2.5,4.8,3.3,7.3,1.8C157.8,117.2,158.6,113.9,157.1,111.4z"/>
		<path class="st5" d="M145.1,92.9l0,1.8c0,0,3.6-2.1,4-5.1h0c0-0.2,0-0.4,0-0.6c0-2.2-1.8-3.9-3.9-3.9c-2.2,0-3.9,1.8-3.9,3.9
			C141.3,91.1,143,92.8,145.1,92.9z"/>
	</g>
	<g>
		<path class="st6" d="M175.1,163h-69.7c-4.9,0-8.9-4-8.9-8.9V148c0-4.9,4-8.9,8.9-8.9h69.7c4.9,0,8.9,4,8.9,8.9v6.1
			C184,159,180,163,175.1,163z"/>
		<g>
			<path class="st7" d="M117.6,153.5v2c-1.2-0.3-2.2-0.7-3-1.4c-0.3-0.3-0.7-0.6-0.9-0.9c-0.3-0.3-0.5-0.7-0.7-1.1
				c-0.4,0.8-1,1.5-1.6,2c-0.8,0.6-1.8,1.1-3,1.4v-2c1.4-0.4,2.4-1.3,3-2.6c0.4-0.9,0.6-2.1,0.6-3.5v-2.9h2.3v2.9
				c0,1.5,0.2,2.6,0.5,3.5C115.2,152.2,116.2,153.1,117.6,153.5z M123.8,148.5v1.9h-2.3v8.1h-2.2v-14h2.2v3.9H123.8z"/>
			<path class="st7" d="M135.5,151.6v-7h2.2v2.6h2.3v1.9h-2.3v2.8H136c0.5,0.4,0.8,0.8,1.1,1.3s0.4,1.1,0.4,1.8
				c0,0.6-0.1,1.2-0.3,1.7c-0.2,0.5-0.5,1-1,1.4c-0.4,0.4-0.9,0.7-1.5,0.9s-1.2,0.3-1.8,0.3s-1.3-0.1-1.9-0.3
				c-0.6-0.2-1.1-0.5-1.5-0.9c-0.4-0.4-0.7-0.8-1-1.4c-0.2-0.5-0.3-1.1-0.3-1.7c0-1.1,0.4-2,1.1-2.8c0.3-0.4,0.7-0.7,1.2-0.9
				c0.5-0.2,1-0.4,1.6-0.5c-0.5-0.2-1-0.5-1.5-0.9s-0.8-0.9-1-1.5c-0.5,1-1.1,1.7-1.9,2.1c-0.8,0.4-1.7,0.7-2.8,0.8v-2
				c0.5-0.1,1-0.2,1.4-0.4c0.4-0.2,0.8-0.5,1.1-0.9c0.3-0.4,0.6-0.8,0.8-1.4c0.2-0.5,0.3-1.2,0.3-2v-0.2h2.2v0.2
				c0,0.8,0.1,1.5,0.3,2c0.2,0.5,0.4,1,0.8,1.4c0.3,0.4,0.7,0.7,1.1,0.9s0.9,0.3,1.4,0.4v1.6c0.2,0.1,0.4,0.1,0.7,0.2
				C135.1,151.4,135.3,151.5,135.5,151.6z M132.9,152.6c-0.7,0-1.3,0.2-1.8,0.7c-0.4,0.4-0.7,1-0.7,1.7c0,0.7,0.2,1.3,0.7,1.8
				c0.4,0.4,1,0.6,1.8,0.6c0.7,0,1.3-0.2,1.8-0.6c0.4-0.4,0.7-1,0.7-1.8c0-0.7-0.2-1.3-0.7-1.7C134.2,152.9,133.6,152.6,132.9,152.6
				z"/>
			<path class="st7" d="M144.9,149.6c-0.1,0.2-0.2,0.5-0.4,0.8c-0.2,0.3-0.5,0.6-0.8,0.9c-0.3,0.3-0.7,0.5-1.1,0.7
				c-0.4,0.2-0.9,0.3-1.4,0.4v-2c0.8-0.2,1.4-0.6,2-1.3c0.5-0.7,0.8-1.7,0.8-2.9v-1.7h2.2v1.7c0,1.2,0.3,2.2,0.8,2.9
				c0.5,0.7,1.2,1.1,2,1.3v2c-0.5-0.1-1-0.2-1.4-0.4s-0.8-0.5-1.1-0.7c-0.4-0.3-0.6-0.6-0.9-0.9C145.1,150.1,145,149.9,144.9,149.6z
				 M144.6,153.4v3.2h10.2v1.9h-10.7c-0.5,0-1-0.2-1.3-0.5s-0.4-0.7-0.4-1.2v-3.4H144.6z M149.5,154.1v-5.3h-1.9v-1.9h1.9v-2.2h2.2
				v9.5H149.5z M152.6,154.1v-9.5h2.2v9.5H152.6z"/>
			<path class="st7" d="M157.6,146.4c0-0.2,0-0.5,0.1-0.7c0.1-0.2,0.2-0.4,0.3-0.6c0.1-0.2,0.3-0.3,0.5-0.4c0.2-0.1,0.4-0.1,0.6-0.1
				h6.6v1.9h-6v2.5h5.9v1.9h-5.9v2.8h6.4v1.9h-7c-0.2,0-0.4,0-0.6-0.1c-0.2-0.1-0.4-0.2-0.5-0.4c-0.1-0.2-0.3-0.4-0.3-0.6
				c-0.1-0.2-0.1-0.5-0.1-0.7V146.4z M170.5,158.6h-2.2V151h-2.2v-1.9h2.2v-4.5h2.2V158.6z"/>
		</g>
	</g>
</g>
</svg>
