<svg xmlns="http://www.w3.org/2000/svg" xmlns:xlink="http://www.w3.org/1999/xlink" width="218.038" height="187.422" viewBox="0 0 218.038 187.422">
  <defs>
    <clipPath id="clip-path">
      <path id="패스_482" data-name="패스 482" d="M316.877,187.044s38.552,0,62.9,24.349c14.2,14.2,40.581,73.046,28.406,105.51s-32.465,44.639-91.307,44.639h-4.994c-58.842,0-79.132-12.174-91.307-44.639s14.2-91.307,28.407-105.51c24.348-24.349,62.9-24.349,62.9-24.349Z" transform="translate(-217.453 -187.044)" fill="none" stroke="#737373" stroke-miterlimit="10" stroke-width="4"/>
    </clipPath>
    <clipPath id="clip-path-2">
      <rect y="-3" width="48.484" height="42.201" fill="none"/>
    </clipPath>
    <clipPath id="clip-path-3">
      <path d="M46.835,0,0,.323V42.2l46.835.339Z" fill="none"/>
    </clipPath>
  </defs>
  <g id="그룹_434" data-name="그룹 434" transform="translate(-501.981 -2554.748)">
    <g id="그룹_409" data-name="그룹 409" transform="translate(300.74 2369.704)">
      <g id="그룹_401" data-name="그룹 401" transform="translate(212.577 187.044)">
        <g id="그룹_400" data-name="그룹 400" clip-path="url(#clip-path)">
          <path id="패스_480" data-name="패스 480" d="M316.877,187.044s38.552,0,62.9,24.349c14.2,14.2,40.581,73.046,28.406,105.51s-32.465,44.639-91.307,44.639h-4.994c-58.842,0-79.132-12.174-91.307-44.639s14.2-91.307,28.407-105.51c24.348-24.349,62.9-24.349,62.9-24.349Z" transform="translate(-217.453 -187.044)" fill="#c2c0c0" stroke="#737373" stroke-miterlimit="10" stroke-width="4"/>
          <path id="패스_481" data-name="패스 481" d="M316.877,187.044s38.552,0,62.9,24.349c14.2,14.2,40.581,73.046,28.406,105.51s-32.465,44.639-91.307,44.639h-4.994c-58.842,0-79.132-12.174-91.307-44.639s14.2-91.307,28.407-105.51c24.348-24.349,62.9-24.349,62.9-24.349Z" transform="translate(-217.453 -187.044)" fill="#e0dedf"/>
          <circle id="타원_56" data-name="타원 56" cx="25.363" cy="25.363" r="25.363" transform="translate(-15.735 119.714)" fill="#f3cee2"/>
          <circle id="타원_57" data-name="타원 57" cx="25.363" cy="25.363" r="25.363" transform="translate(157.271 119.714)" fill="#f3cee2"/>
        </g>
        <path id="패스_483" data-name="패스 483" d="M316.877,187.044s38.552,0,62.9,24.349c14.2,14.2,40.581,73.046,28.406,105.51s-32.465,44.639-91.307,44.639h-4.994c-58.842,0-79.132-12.174-91.307-44.639s14.2-91.307,28.407-105.51c24.348-24.349,62.9-24.349,62.9-24.349Z" transform="translate(-217.453 -187.044)" fill="none" stroke="#737373" stroke-miterlimit="10" stroke-width="4"/>
      </g>
      <path id="패스_484" data-name="패스 484" d="M316.877,187.044s38.552,0,62.9,24.349c14.2,14.2,40.581,73.046,28.406,105.51s-32.465,44.639-91.307,44.639h-4.994c-58.842,0-79.132-12.174-91.307-44.639s14.2-91.307,28.407-105.51c24.348-24.349,62.9-24.349,62.9-24.349Z" transform="translate(-4.876)" fill="none" stroke="#737373" stroke-linecap="round" stroke-miterlimit="10" stroke-width="4"/>
      <g id="그룹_402" data-name="그룹 402" transform="translate(269.938 308.401)">
        <rect id="사각형_114" data-name="사각형 114" width="15.456" height="23.184" rx="7.728" transform="translate(0 0)" fill="#040506"/>
        <circle id="타원_58" data-name="타원 58" cx="1.803" cy="1.803" r="1.803" transform="translate(4.122 2.061)" fill="#fff"/>
      </g>
      <g id="그룹_403" data-name="그룹 403" transform="translate(333.307 308.401)">
        <rect id="사각형_115" data-name="사각형 115" width="15.456" height="23.184" rx="7.728" transform="translate(0 0)" fill="#040506"/>
        <circle id="타원_59" data-name="타원 59" cx="1.803" cy="1.803" r="1.803" transform="translate(4.122 2.061)" fill="#fff"/>
      </g>
      <g id="그룹_404" data-name="그룹 404" transform="translate(375.221 198.596)">
        <path id="패스_485" data-name="패스 485" d="M471.518,217.511s16.275-17.8,34.213-11.535c0,0,7.678,23.644-11.48,32.887,0,0-12.622,7.333-25.032-.353C469.218,238.51,458.824,229.85,471.518,217.511Z" transform="translate(-465.212 -204.641)" fill="#868787" stroke="#737373" stroke-miterlimit="10" stroke-width="4"/>
        <path id="패스_486" data-name="패스 486" d="M472.569,238.922c4.09,4.61,17.218,3.074,24.349-4.058,12.175-12.174,6.087-24.349,6.087-24.349s-14.064-1.853-21.609,4.841S468.479,234.311,472.569,238.922Z" transform="translate(-467.255 -206.578)" fill="#a98899"/>
        <path id="패스_487" data-name="패스 487" d="M469.218,238.51s-10.394-8.659,2.3-21c0,0,16.275-17.8,34.213-11.535,0,0-15.928,5.646-17.958,17.82S470.953,239.021,469.218,238.51Z" transform="translate(-465.212 -204.641)" fill="#e0dedf" stroke="#737373" stroke-linejoin="round" stroke-width="4"/>
      </g>
      <g id="그룹_405" data-name="그룹 405" transform="translate(252.309 287.939)">
        <ellipse id="타원_60" data-name="타원 60" cx="25.093" cy="20.982" rx="25.093" ry="20.982" transform="translate(0 0)" fill="none" stroke="#040506" stroke-miterlimit="10" stroke-width="5"/>
        <ellipse id="타원_61" data-name="타원 61" cx="25.093" cy="20.982" rx="25.093" ry="20.982" transform="translate(62.923 0)" fill="none" stroke="#040506" stroke-miterlimit="10" stroke-width="5"/>
        <path id="패스_488" data-name="패스 488" d="M354.426,373.656c0-2.21,2.851-4,6.368-4s6.369,1.792,6.369,4" transform="translate(-304.24 -350.673)" fill="none" stroke="#040506" stroke-miterlimit="10" stroke-width="5"/>
      </g>
      <g id="그룹_407" data-name="그룹 407" transform="translate(284.607 335.295)">
        <path id="패스_489" data-name="패스 489" d="M345.909,428.781s20.919,4.133,36.229-8.354c0,0,4.579-4.648-3.66-7.549" transform="translate(-333.612 -412.878)" fill="none" stroke="#737373" stroke-linecap="round" stroke-miterlimit="10" stroke-width="4"/>
        <g id="그룹_406" data-name="그룹 406" transform="translate(0 5.54)">
          <path id="패스_490" data-name="패스 490" d="M327.505,421.317a37.634,37.634,0,0,0,6.2,26.051,20.8,20.8,0,0,0,18.607,0s4.962-22.33,11.165-26.051" transform="translate(-327.177 -421.317)" fill="#e0dedf" stroke="#737373" stroke-linecap="round" stroke-miterlimit="10" stroke-width="4"/>
          <path id="패스_491" data-name="패스 491" d="M330.96,427.3s10.87-3.928,22.035-.207" transform="translate(-328.477 -422.751)" fill="none" stroke="#737373" stroke-linecap="round" stroke-miterlimit="10" stroke-width="4"/>
          <path id="패스_492" data-name="패스 492" d="M332.427,438.551s8.7-3.142,17.628-.165" transform="translate(-328.981 -426.741)" fill="none" stroke="#737373" stroke-linecap="round" stroke-miterlimit="10" stroke-width="4"/>
          <path id="패스_493" data-name="패스 493" d="M335.908,449.752a17.852,17.852,0,0,1,10.577-.1" transform="translate(-330.177 -430.787)" fill="none" stroke="#737373" stroke-linecap="round" stroke-miterlimit="10" stroke-width="4"/>
        </g>
      </g>
      <g id="그룹_408" data-name="그룹 408" transform="translate(203.26 198.596)">
        <path id="패스_494" data-name="패스 494" d="M238.993,217.511s-16.275-17.8-34.213-11.535c0,0-7.678,23.644,11.481,32.887,0,0,12.622,7.333,25.032-.353C241.293,238.51,251.686,229.85,238.993,217.511Z" transform="translate(-203.26 -204.641)" fill="#868787" stroke="#737373" stroke-miterlimit="10" stroke-width="4"/>
        <path id="패스_495" data-name="패스 495" d="M242.479,238.922c-4.09,4.61-17.217,3.074-24.349-4.058-12.174-12.174-6.087-24.349-6.087-24.349s14.065-1.853,21.609,4.841S246.569,234.311,242.479,238.922Z" transform="translate(-205.754 -206.578)" fill="#a98899"/>
        <path id="패스_496" data-name="패스 496" d="M242.088,238.51s10.393-8.659-2.3-21c0,0-16.275-17.8-34.213-11.535,0,0,15.928,5.646,17.958,17.82S240.352,239.021,242.088,238.51Z" transform="translate(-204.055 -204.641)" fill="#e0dedf" stroke="#737373" stroke-linejoin="round" stroke-width="4"/>
      </g>
    </g>
    <g id="스크롤_그룹_1" data-name="스크롤 그룹 1" transform="translate(527 2701.798)" clip-path="url(#clip-path-2)" style="isolation: isolate">
      <path id="패스_500" data-name="패스 500" d="M247.243,517.236a19.021,19.021,0,0,0-18.965-18.965h0a25.6,25.6,0,0,0-25.52,25.52h0a5.11,5.11,0,0,0,.686,2.554,2.984,2.984,0,0,0,1.089,1.325,5.168,5.168,0,0,0,1.876,1.052c3.78,1.647,10.69,2.75,18.592,2.75s14.812-1.1,18.592-2.75a5.168,5.168,0,0,0,1.876-1.052,2.984,2.984,0,0,0,1.088-1.325,5.109,5.109,0,0,0,.686-2.554Z" transform="translate(-200.759 -496.271)" fill="#e0dedf" stroke="#737373" stroke-linejoin="round" stroke-width="4"/>
    </g>
    <g id="스크롤_그룹_2" data-name="스크롤 그룹 2" transform="translate(640.008 2699.636)" clip-path="url(#clip-path-3)" style="isolation: isolate">
      <g id="패스_501" data-name="패스 501" transform="translate(0 2.015)" fill="#e0dedf" stroke-linejoin="round">
        <path d="M1.9,21.1a19.354,19.354,0,0,1,1.426-7.314,19.115,19.115,0,0,1,3.888-6A18.378,18.378,0,0,1,12.991,3.7a17.563,17.563,0,0,1,7.081-1.531h0a23.672,23.672,0,0,1,9.582,1.965A24.83,24.83,0,0,1,37.545,9.6,25.834,25.834,0,0,1,42.9,17.752a26.093,26.093,0,0,1,1.972,9.98h0A5.255,5.255,0,0,1,44.2,30.3a1.954,1.954,0,0,1-.156.344,2.545,2.545,0,0,1-.231.337,3.46,3.46,0,0,1-.3.329,4.75,4.75,0,0,1-.375.321,5.2,5.2,0,0,1-.413.333,5.064,5.064,0,0,1-.445.289,4.942,4.942,0,0,1-.475.24,4.808,4.808,0,0,1-.5.188A21.763,21.763,0,0,1,37.991,33.8a41.729,41.729,0,0,1-4.249.85c-1.55.233-3.223.414-4.986.534s-3.613.178-5.523.168-3.751-.09-5.5-.228-3.4-.336-4.933-.585a40.98,40.98,0,0,1-4.178-.886,21.332,21.332,0,0,1-3.238-1.134,4.724,4.724,0,0,1-.489-.19,4.824,4.824,0,0,1-.463-.242A4.958,4.958,0,0,1,4,31.794a5.12,5.12,0,0,1-.4-.333,4.7,4.7,0,0,1-.365-.319,3.44,3.44,0,0,1-.3-.327,2.55,2.55,0,0,1-.225-.334,1.962,1.962,0,0,1-.151-.34,5.312,5.312,0,0,1-.277-.584A5.243,5.243,0,0,1,1.9,27.6Z" stroke="none"/>
        <path d="M 23.23368835449219 37.348388671875 C 25.14001846313477 37.36026382446289 27.00695610046387 37.30471420288086 28.79946899414062 37.18680953979492 C 30.59415817260742 37.06875991821289 32.31405639648438 36.88821411132812 33.9239501953125 36.65041351318359 C 35.53557205200195 36.4122314453125 37.03668975830078 36.11664199829102 38.39191436767578 35.76881408691406 C 39.74832916259766 35.42061233520508 40.95831680297852 35.02014923095703 41.98632431030273 34.57260131835938 C 42.20462036132812 34.50042724609375 42.41843795776367 34.41743469238281 42.62747955322266 34.32387542724609 C 42.83652877807617 34.2303581237793 43.04081344604492 34.12621307373047 43.24000549316406 34.01160430908203 C 43.43921661376953 33.8969841003418 43.63333511352539 33.77190399169922 43.82204437255859 33.63661193847656 C 44.01078796386719 33.50123596191406 44.19411087036133 33.35558319091797 44.37171936035156 33.19989013671875 C 44.56478118896484 33.0478515625 44.74336242675781 32.89096069335938 44.90729141235352 32.72971725463867 C 45.07123947143555 32.56838989257812 45.22051620483398 32.40264511108398 45.35491943359375 32.232666015625 C 45.48934555053711 32.0627326965332 45.60892868041992 31.88850784301758 45.71344375610352 31.71029853820801 C 45.81795883178711 31.53207206726074 45.90742111206055 31.3499927520752 45.98162841796875 31.1641731262207 C 46.12130355834961 30.90091323852539 46.24446487426758 30.62964630126953 46.35067749023438 30.3521614074707 C 46.45689392089844 30.07471466064453 46.54610443115234 29.79111289978027 46.61788177490234 29.50308036804199 C 46.68964385986328 29.21509742736816 46.74395751953125 28.9227466583252 46.78033065795898 28.6278190612793 C 46.81668090820312 28.33288192749023 46.83507919311523 28.03543090820312 46.83507919311523 27.7373161315918 C 46.83507919311523 26.80495452880859 46.79026412963867 25.8790397644043 46.70090484619141 24.96114349365234 C 46.61153793334961 24.04324150085449 46.47768020629883 23.13348007202148 46.29963684082031 22.23331451416016 C 46.12163162231445 21.33325576782227 45.8994255065918 20.44290161132812 45.63340759277344 19.5639591217041 C 45.3674201965332 18.6851692199707 45.05765914916992 17.81777191162109 44.70441055297852 16.96327972412109 C 44.36380004882812 16.13935852050781 43.98666381835938 15.33645629882812 43.57391357421875 14.5558910369873 C 43.16127395629883 13.77556896209717 42.71303939819336 13.01757717132568 42.2301139831543 12.2832555770874 C 41.7473258972168 11.54917049407959 41.22987747192383 10.83877468109131 40.67863845825195 10.15334129333496 C 40.12759017944336 9.46819019317627 39.54281234741211 8.808013916015625 38.92518615722656 8.174113273620605 C 38.30782699584961 7.540473461151123 37.66556167602539 6.941257953643799 36.99969482421875 6.377322196960449 C 36.33412933349609 5.813605308532715 35.64501190185547 5.285184860229492 34.93359756469727 4.792847633361816 C 34.22253799438477 4.30074405670166 33.48922729492188 3.84473443031311 32.73495864868164 3.42566180229187 C 31.98105812072754 3.006769418716431 31.20623016357422 2.624818801879883 30.41175842285156 2.280616044998169 C 29.58849143981934 1.923885822296143 28.75337600708008 1.611952781677246 27.90792655944824 1.345089554786682 C 27.06298637390137 1.078346610069275 26.20773506164551 0.8566569089889526 25.34371757507324 0.6801983714103699 C 24.48020172119141 0.5038418173789978 23.60792350769043 0.3726968467235565 22.72843742370605 0.2870607674121857 C 21.84945487976074 0.2014751583337784 20.96327972412109 0.1613457202911377 20.0713996887207 0.1668762713670731 C 19.39223861694336 0.1711052507162094 18.71810531616211 0.2101004421710968 18.0501651763916 0.2834730446338654 C 17.38250923156738 0.3568737208843231 16.72102928161621 0.4646823704242706 16.06682395935059 0.6066640019416809 C 15.41291809082031 0.748583197593689 14.76630687713623 0.92464679479599 14.12809085845947 1.134529829025269 C 13.49016284942627 1.344353199005127 12.86061763763428 1.588030219078064 12.24062156677246 1.865238070487976 C 11.64302349090576 2.132466793060303 11.06078243255615 2.427804946899414 10.49476337432861 2.75057315826416 C 9.928959846496582 3.073279619216919 9.379368782043457 3.423401594161987 8.846902847290039 3.800293684005737 C 8.314627647399902 4.177021026611328 7.799468040466309 4.580537796020508 7.302332401275635 5.010200977325439 C 6.805363655090332 5.439690113067627 6.326381206512451 5.895288467407227 5.86629581451416 6.376296997070312 C 5.406352043151855 6.857185840606689 4.971175670623779 7.357368946075439 4.561381340026855 7.875818729400635 C 4.151700496673584 8.394156455993652 3.767359256744385 8.930768966674805 3.408960580825806 9.484726905822754 C 3.050663232803345 10.03860950469971 2.718298673629761 10.60981941223145 2.412455320358276 11.19745445251465 C 2.106675148010254 11.78496932983398 1.827425122261047 12.38889598846436 1.57529604434967 13.00830745697021 C 1.313875555992126 13.65059566497803 1.084681868553162 14.30225467681885 0.8879876732826233 14.96224594116211 C 0.6913045048713684 15.62211894989014 0.5270733833312988 16.29025840759277 0.3955259919166565 16.96559906005859 C 0.2639902532100677 17.64087677001953 0.1650962680578232 18.32326316833496 0.09911006689071655 19.01169013977051 C 0.03312679380178452 19.70008659362793 1.514004725322593e-05 20.39455223083496 1.514004725322593e-05 21.09383964538574 L 1.514004725322593e-05 27.59745979309082 C 1.514004725322593e-05 27.89105606079102 0.01786536350846291 28.1840934753418 0.05312737822532654 28.47476196289062 C 0.08837509155273438 28.76543235778809 0.1410211175680161 29.05374145507812 0.210613027215004 29.33786392211914 C 0.2801779508590698 29.62200355529785 0.3667070865631104 29.9019660949707 0.4697035849094391 30.17593002319336 C 0.5727224349975586 30.45003700256348 0.6922132968902588 30.7181568145752 0.8277256488800049 30.97852897644043 C 0.899758517742157 31.16216850280762 0.9865511655807495 31.34222030639648 1.087969541549683 31.5185546875 C 1.189394950866699 31.69490242004395 1.305435180664062 31.86748504638672 1.435896396636963 32.03617477416992 C 1.566384434700012 32.20476150512695 1.711298584938049 32.36933517456055 1.870476484298706 32.52972030639648 C 2.029671669006348 32.690185546875 2.203136444091797 32.84633636474609 2.39069390296936 32.99805450439453 C 2.563412427902222 33.15326690673828 2.741733074188232 33.29856109619141 2.925354480743408 33.43392944335938 C 3.109013080596924 33.56930923461914 3.297975301742554 33.69464492797852 3.491954326629639 33.80974197387695 C 3.685943365097046 33.92485809326172 3.884952306747437 34.02973556518555 4.088694095611572 34.12425231933594 C 4.292448997497559 34.21872329711914 4.500909328460693 34.30282592773438 4.713802814483643 34.37637329101562 C 5.717403411865234 34.82924652099609 6.90030574798584 35.23823165893555 8.228531837463379 35.59771347045898 C 9.557962417602539 35.95752334594727 11.0332498550415 36.26787185668945 12.62033557891846 36.5230827331543 C 14.20910263061523 36.77856826782227 15.91015529632568 36.97888946533203 17.68924140930176 37.11832046508789 C 19.4704532623291 37.25791168212891 21.33008003234863 37.33647155761719 23.23368835449219 37.348388671875 Z M 42.35595703125 29.62222862243652 C 42.35220718383789 29.62876510620117 42.34381103515625 29.64268684387207 42.32868957519531 29.66336250305176 C 42.31354522705078 29.68409538269043 42.29169464111328 29.71158409118652 42.26104354858398 29.74543380737305 C 42.23040771484375 29.77928161621094 42.19099044799805 29.81949043273926 42.14073181152344 29.8656120300293 C 42.09046173095703 29.91160774230957 42.02933502197266 29.9635124206543 41.955322265625 30.020751953125 C 41.94610214233398 30.02790641784668 41.93694305419922 30.03518486022949 41.92783737182617 30.04246520996094 C 41.91874313354492 30.04974365234375 41.90971374511719 30.05714797973633 41.90076065063477 30.06461143493652 C 41.89179229736328 30.07207679748535 41.88288116455078 30.0796012878418 41.87405014038086 30.08724975585938 C 41.86521148681641 30.09490203857422 41.85644149780273 30.10255241394043 41.84774017333984 30.11032676696777 C 41.76376724243164 30.18551635742188 41.67716598510742 30.25551414489746 41.58810043334961 30.32020378112793 C 41.49903869628906 30.38488960266113 41.40749359130859 30.44426536560059 41.31364440917969 30.49833297729492 C 41.21980667114258 30.55233764648438 41.12366485595703 30.60096740722656 41.02538681030273 30.64411354064941 C 40.92711639404297 30.687255859375 40.82670211791992 30.72490882873535 40.72428894042969 30.75701141357422 C 40.70689010620117 30.76242065429688 40.6895637512207 30.7681999206543 40.67232131958008 30.77416038513184 C 40.65508270263672 30.78012466430664 40.63793563842773 30.78626823425293 40.62086868286133 30.792724609375 C 40.60379028320312 30.7991828918457 40.58683013916016 30.80588340759277 40.56993103027344 30.81276702880859 C 40.55303955078125 30.81971740722656 40.53625106811523 30.82691192626953 40.51955795288086 30.83429145812988 C 39.62641143798828 31.23132705688477 38.54099655151367 31.58935356140137 37.30431365966797 31.90250968933105 C 36.06863403320312 32.21534729003906 34.68216323852539 32.48327255249023 33.18576431274414 32.70049285888672 C 31.69084548950195 32.91756057739258 30.08644485473633 33.08388137817383 28.41315650939941 33.1938362121582 C 26.74174118041992 33.30354690551758 25.00177955627441 33.35702133178711 23.23368835449219 33.348388671875 C 21.46793365478516 33.33970642089844 19.73430252075195 33.26942825317383 18.07270812988281 33.14384078979492 C 16.4129638671875 33.01839065551758 14.82491874694824 32.83773040771484 13.34826564788818 32.60810852050781 C 11.87306022644043 32.37870407104492 10.50879096984863 32.1004524230957 9.294933319091797 31.77952575683594 C 8.08208179473877 31.45892143249512 7.019136905670166 31.09564590454102 6.145501136779785 30.69585800170898 C 6.129189014434814 30.6883487701416 6.112800121307373 30.68113708496094 6.096321105957031 30.67417335510254 C 6.079841613769531 30.66720581054688 6.063286304473877 30.66041946411133 6.046609401702881 30.65393447875977 C 6.029948234558105 30.64745330810547 6.013195991516113 30.64114952087402 5.996383666992188 30.63515281677246 C 5.979556083679199 30.62921524047852 5.962636947631836 30.62345695495605 5.945656776428223 30.61787986755371 C 5.84562349319458 30.58541488647461 5.747541904449463 30.54739189147949 5.651564121246338 30.50399017333984 C 5.555577754974365 30.46059417724609 5.461694717407227 30.41182327270508 5.370096206665039 30.35767555236816 C 5.278473377227783 30.3035945892334 5.18913459777832 30.24419784545898 5.102217674255371 30.17961502075195 C 5.015290260314941 30.11503601074219 4.930798053741455 30.04526710510254 4.848878383636475 29.97043418884277 C 4.840387344360352 29.96270561218262 4.831820011138916 29.9549732208252 4.823207855224609 29.94736671447754 C 4.814595699310303 29.93975830078125 4.805906772613525 29.9322681427002 4.797158718109131 29.92484283447266 C 4.78840970993042 29.91741371154785 4.77961540222168 29.91004753112793 4.770759582519531 29.90279769897461 C 4.761889457702637 29.89555168151855 4.75295877456665 29.8883056640625 4.743951320648193 29.88117599487305 C 4.671807765960693 29.82404136657715 4.612226963043213 29.77231025695801 4.563233852386475 29.72651100158691 C 4.514242649078369 29.68071365356445 4.475821495056152 29.64072036743164 4.445981502532959 29.60706520080566 C 4.416112422943115 29.57341384887695 4.394822597503662 29.54608726501465 4.380077838897705 29.5256233215332 C 4.365348815917969 29.50503730773926 4.357179641723633 29.49125099182129 4.353535175323486 29.48472213745117 C 4.343908309936523 29.4564266204834 4.33367395401001 29.42830657958984 4.322832107543945 29.40041923522949 C 4.312005996704102 29.37265777587891 4.300557136535645 29.34507179260254 4.288531303405762 29.31778144836426 C 4.276490688323975 29.29049301147461 4.263873100280762 29.26350021362305 4.250678539276123 29.23680877685547 C 4.237468719482422 29.21005439758301 4.223667621612549 29.18365859985352 4.209303855895996 29.15756034851074 C 4.142848968505859 29.03689002990723 4.084579944610596 28.91382026672363 4.034572124481201 28.78865242004395 C 3.98455023765564 28.66336441040039 3.942788362503052 28.53591728210449 3.909331083297729 28.40655326843262 C 3.87585973739624 28.27713394165039 3.850707054138184 28.14585304260254 3.833919048309326 28.01277542114258 C 3.81713080406189 27.87975692749023 3.808706521987915 27.74506187438965 3.808706521987915 27.60880851745605 L 3.808706521987915 21.09682655334473 C 3.808706521987915 18.77335929870605 4.262263774871826 16.55793380737305 5.082301139831543 14.54069709777832 C 5.902806758880615 12.52234554290771 7.090603828430176 10.70143699645996 8.558904647827148 9.169034957885742 C 10.02868938446045 7.635148048400879 11.780104637146 6.389729976654053 13.7261381149292 5.524739265441895 C 15.67473793029785 4.658585548400879 17.81898880004883 4.173660755157471 20.0713996887207 4.162639141082764 C 23.19976234436035 4.14735221862793 26.18842506408691 4.792823791503906 28.9133243560791 5.974141597747803 C 31.64319610595703 7.157646179199219 34.10734939575195 8.878531455993652 36.18062973022461 11.01033782958984 C 38.25679397583008 13.14506530761719 39.93993377685547 15.69082450866699 41.10447692871094 18.51936721801758 C 42.26993942260742 21.35004615783691 42.91516876220703 24.46207809448242 42.91516876220703 27.72563934326172 C 42.91516876220703 27.86356544494629 42.90651702880859 27.99999809265137 42.88928604125977 28.13463020324707 C 42.87205505371094 28.26914024353027 42.84623718261719 28.4019660949707 42.8118782043457 28.53274345397949 C 42.77752685546875 28.66358184814453 42.73463439941406 28.7923698425293 42.68329620361328 28.91891860961914 C 42.63196563720703 29.0455265045166 42.57215881347656 29.16983795166016 42.50394058227539 29.29166412353516 C 42.48920440673828 29.31793594360352 42.47504425048828 29.34464073181152 42.46149444580078 29.3715991973877 C 42.44794082641602 29.39855575561523 42.43499755859375 29.42588996887207 42.42264556884766 29.45347023010254 C 42.41032028198242 29.48105239868164 42.39857864379883 29.50888633728027 42.38745498657227 29.53703498840332 C 42.37633514404297 29.56518173217773 42.36582183837891 29.59357833862305 42.35595703125 29.62222862243652 Z" stroke="none" fill="#737373"/>
      </g>
    </g>
  </g>
</svg>
