<svg xmlns="http://www.w3.org/2000/svg" width="41" height="41" viewBox="0 0 41 41">
  <g id="그룹_542" data-name="그룹 542" transform="translate(-1279.833 -448.294)">
    <path id="패스_608" data-name="패스 608" d="M1338.333,510.494l7.1-4.1-7.1-4.1Z" transform="translate(-40.733 -37.6)" fill="#0f4440"/>
    <path id="패스_609" data-name="패스 609" d="M1300.333,448.294a20.5,20.5,0,1,0,20.5,20.5A20.5,20.5,0,0,0,1300.333,448.294Zm13.1,27.079a3.423,3.423,0,0,1-2.417,2.417c-2.132.571-10.679.571-10.679.571s-8.547,0-10.679-.571a3.423,3.423,0,0,1-2.417-2.417,38.158,38.158,0,0,1,0-13.158,3.423,3.423,0,0,1,2.417-2.417c2.131-.571,10.679-.571,10.679-.571s8.547,0,10.679.571a3.423,3.423,0,0,1,2.417,2.417,38.19,38.19,0,0,1,0,13.158Z" fill="#0f4440"/>
  </g>
</svg>
