<?xml version="1.0" encoding="utf-8"?>
<!-- Generator: Adobe Illustrator 22.1.0, SVG Export Plug-In . SVG Version: 6.00 Build 0)  -->
<svg version="1.1" id="Layer_1" xmlns="http://www.w3.org/2000/svg" xmlns:xlink="http://www.w3.org/1999/xlink" x="0px" y="0px"
	 viewBox="0 0 261 273" style="enable-background:new 0 0 261 273;" xml:space="preserve">
<style type="text/css">
	.st0{fill:#104440;}
	.st1{fill:#AED5D3;}
</style>
<g>
	<circle class="st0" cx="129.9" cy="149.8" r="57.5"/>
	<g>
		<path class="st1" d="M120.2,154.5c-5.7-11.8-0.9-26,10.9-31.7c1.1-0.6,2.3-1,3.5-1.4c-6-1.1-12.3-0.4-18.2,2.5
			c-14.5,7.1-20.5,24.6-13.4,39.1c7.1,14.5,24.6,20.5,39.1,13.4c5.9-2.9,10.4-7.5,13.1-12.9c-1,0.7-2.1,1.3-3.2,1.9
			C140.2,171.1,126,166.2,120.2,154.5z"/>
		<polygon class="st1" points="141.5,131.8 147.9,136.7 155.7,134.2 152.9,141.9 157.7,148.5 149.6,148.3 144.7,154.9 142.4,147 
			134.7,144.5 141.4,139.9 		"/>
	</g>
</g>
</svg>
