<svg xmlns="http://www.w3.org/2000/svg" width="114" height="114" viewBox="0 0 114 114">
  <g id="그룹_2635" data-name="그룹 2635" transform="translate(-954.883 -4513)">
    <circle id="타원_738" data-name="타원 738" cx="57" cy="57" r="57" transform="translate(954.883 4513)" fill="#0f4440"/>
    <g id="그룹_2633" data-name="그룹 2633" transform="translate(982.259 4539.734)">
      <path id="패스_3538" data-name="패스 3538" d="M376.52,537.72a21.507,21.507,0,0,1,8.673-29.153c.44-.238.885-.453,1.334-.658a30.26,30.26,0,1,0,20.426,37.725c-.417.263-.84.519-1.28.757A21.507,21.507,0,0,1,376.52,537.72Z" transform="translate(-347.705 -506.668)" fill="#9fccca"/>
      <path id="패스_3539" data-name="패스 3539" d="M413.163,528.421a11.662,11.662,0,0,0-8.411-9.465c.721-.152,1.438-.328,2.164-.452a5.723,5.723,0,0,0,4.412-3.433c.934-1.945.987-4.05,1.28-6.115a6.9,6.9,0,0,1,.488-2.289c.142,1.142.253,2.01.357,2.877a14.165,14.165,0,0,0,1.416,5.03,6.916,6.916,0,0,0,4.241,3.555c.511.157,1.017.328,1.652.534-1.063.452-2.083.725-3.018,1.214a6.506,6.506,0,0,0-3.4,4.176C413.946,525.489,413.556,526.924,413.163,528.421Z" transform="translate(-365.719 -506.668)" fill="#9fccca"/>
      <path id="패스_3540" data-name="패스 3540" d="M423.74,554.149a6.465,6.465,0,0,0-4.662-5.247c.4-.084.8-.182,1.2-.25a3.173,3.173,0,0,0,2.445-1.9,11.139,11.139,0,0,0,.71-3.39,3.814,3.814,0,0,1,.27-1.269c.079.633.14,1.114.2,1.595a7.856,7.856,0,0,0,.785,2.789,3.836,3.836,0,0,0,2.352,1.971c.283.086.563.182.916.3-.589.25-1.154.4-1.673.673a3.608,3.608,0,0,0-1.885,2.315C424.175,552.523,423.959,553.319,423.74,554.149Z" transform="translate(-370.242 -517.853)" fill="#9fccca"/>
    </g>
  </g>
</svg>
