<svg xmlns="http://www.w3.org/2000/svg" width="114" height="114" viewBox="0 0 114 114">
  <g id="그룹_2634" data-name="그룹 2634" transform="translate(-935 -4089.921)">
    <circle id="타원_736" data-name="타원 736" cx="57" cy="57" r="57" transform="translate(935 4089.921)" fill="#f17445"/>
    <g id="그룹_2631" data-name="그룹 2631" transform="translate(941.001 4095.922)">
      <circle id="타원_737" data-name="타원 737" cx="20.62" cy="20.62" r="20.62" transform="translate(30.379 30.379)" fill="#f9d8a3"/>
      <path id="패스_3530" data-name="패스 3530" d="M136.444,505.775l-2.5,23.751h5Z" transform="translate(-85.445 -427.528)" fill="#f9d8a3"/>
      <path id="패스_3531" data-name="패스 3531" d="M164.4,494.609l15.025,18.563,3.538-3.538Z" transform="translate(-94.134 -424.343)" fill="#f9d8a3"/>
      <path id="패스_3532" data-name="패스 3532" d="M175.566,466.653l23.751,2.5v-5Z" transform="translate(-97.319 -415.654)" fill="#f9d8a3"/>
      <path id="패스_3533" data-name="패스 3533" d="M164.4,433.285l18.563-15.025-3.538-3.538Z" transform="translate(-94.134 -401.554)" fill="#f9d8a3"/>
      <path id="패스_3534" data-name="패스 3534" d="M136.444,420.049l2.5-23.751h-5Z" transform="translate(-85.445 -396.298)" fill="#f9d8a3"/>
      <path id="패스_3535" data-name="패스 3535" d="M103.076,433.285,88.051,414.722l-3.538,3.538Z" transform="translate(-71.345 -401.554)" fill="#f9d8a3"/>
      <path id="패스_3536" data-name="패스 3536" d="M89.84,466.653l-23.751-2.5v5Z" transform="translate(-66.089 -415.654)" fill="#f9d8a3"/>
      <path id="패스_3537" data-name="패스 3537" d="M103.076,494.609,84.513,509.634l3.538,3.538Z" transform="translate(-71.345 -424.343)" fill="#f9d8a3"/>
    </g>
  </g>
</svg>
