<svg id="telephone-call-receiver" xmlns="http://www.w3.org/2000/svg" width="23.979" height="24" viewBox="0 0 23.979 24">
  <g id="그룹_16" data-name="그룹 16" transform="translate(0)">
    <path id="패스_26" data-name="패스 26" d="M2.278,22.411a1.636,1.636,0,0,0,.17.139l.848.524c.031.015.077.046.108.062A10.256,10.256,0,0,0,7.553,24a8.688,8.688,0,0,0,6.231-2.422l8.005-8.005c2.483-2.483,3.1-6.74,1.5-10.35a.624.624,0,0,0-.077-.139l-.54-.818c-.031-.046-.077-.093-.108-.139L21.126.694A2.36,2.36,0,0,0,19.46,0a2.173,2.173,0,0,0-1.527.632L13.769,4.8a2.267,2.267,0,0,0,.046,3.208L15.45,9.64,9.882,15.208,8.216,13.542a2.1,2.1,0,0,0-1.589-.679,2.257,2.257,0,0,0-1.573.648L.89,17.676A2.463,2.463,0,0,0,.2,19.28a2.229,2.229,0,0,0,.632,1.681ZM2.2,18.987l4.165-4.165a.4.4,0,0,1,.571.031l2.314,2.314a.94.94,0,0,0,1.311,0L17.424,10.3a.952.952,0,0,0,.278-.648.888.888,0,0,0-.278-.648L15.141,6.694a.437.437,0,0,1-.046-.6L19.26,1.928a.28.28,0,0,1,.216-.093.531.531,0,0,1,.355.154l1.357,1.357.447.679a7.507,7.507,0,0,1-1.141,8.206l-8.005,8.036a6.862,6.862,0,0,1-4.936,1.882,8.355,8.355,0,0,1-3.332-.679l-.709-.432L2.139,19.666a.406.406,0,0,1-.093-.293A.729.729,0,0,1,2.2,18.987Z" transform="translate(-0.193)" fill="#707070"/>
  </g>
</svg>
